<svg xmlns="http://www.w3.org/2000/svg" viewBox="0 0 155.42 27.55"><defs><style>.cls-1{fill:#ff4817;}</style></defs><title>Asset 18</title><g id="Layer_2" data-name="Layer 2"><g id="Layer_1-2" data-name="Layer 1"><path class="cls-1" d="M2.35,27.21c-.28,0-1.94-.11-2.23-.11S0,26.74,0,26.63s.22-1,.22-1.08c.5-3.81.83-7.7,1.44-11.51.18-1.84.58-3.6.76-5.48.07-.75.39-1.54.5-2.3A23.23,23.23,0,0,1,3.69,2h.43c-.22,1.08-.43,2.3-.47,2.84l-.22.86a10.07,10.07,0,0,0-.28,1.37C3,8,2.89,8.89,2.75,9.79s-.29,1.83-.36,2.7c-.36,2.27-.65,4.82-.9,7.09L1,24s-.07.29-.11.51l0-.08a3.92,3.92,0,0,0-.15.72c0,.54-.28,1.19.83,1.19.15,0,.58,0,1,.07.14,0,.36,0,.54,0-.11.43-.26.72-.51.72Zm1.44-1.44c-.28,0-1.94-.11-2.23-.11s-.11-.36-.11-.47a10.89,10.89,0,0,1,.22-1.08L3.11,12.6c.18-1.84.58-3.6.76-5.48.07-.75.39-1.54.5-2.3A23.23,23.23,0,0,1,5.13.54C6.31.54,7.61.47,8.9.57A39.79,39.79,0,0,1,9.81,6c.07,1,.32,2.05.46,3l.58,4.75c0,.11.11.5.11.57.28,3.24,1.11,8.43,1.19,8.93.07.86.28,1.66.28,2.52l-.11.11H9.19c-.36,0-.36-.65-.36-1a14.47,14.47,0,0,0-.5-3.39H5.23c-.72,0-.18,4.25-1.15,4.25ZM5.23,23l.08-.72H7.93c.08.47.18,2.09.18,2.67s0,1.69,1.08,1.69H11c0,.18,0,.39,0,.61l-.1.11H7.75c-.36,0-.36-.65-.36-1A14.47,14.47,0,0,0,6.89,23ZM7.86,18.5l.07-.11c.18-.47-.28-.21-.28-3.35,0,0-.54-6-.87-6a.34.34,0,0,0-.29.29,54,54,0,0,1-.86,6.73,13.34,13.34,0,0,0-.29,2,.31.31,0,0,0,.18.4ZM6.35,16.23,6.67,14l.08-.47a2.54,2.54,0,0,0,.07.57,4.55,4.55,0,0,0,.11.9,12.77,12.77,0,0,0,.18,2.74H6.24a8.74,8.74,0,0,1,0-.94Z"/><path class="cls-1" d="M14.41,26a2.06,2.06,0,0,0,1.12.61h5a4.86,4.86,0,0,0,1-.07,1.19,1.19,0,0,1-.54.43,4.19,4.19,0,0,1-1.87.36h-5a.65.65,0,0,1-.4-.18V19.18c0-.29.11-1.9.11-2.19V4c0-.11.07-.76.07-1s-.07-.82.22-1h.47v.11c0,.14,0,.43,0,.47v13c0,.14,0,.61-.07,1s0,1.05,0,1.15Zm.72-8.21c0-.28.11-1.9.11-2.19v-13c0-.11.07-.76.07-1s-.07-.83.22-1h.65A9.73,9.73,0,0,1,18,.61L18.55.5l.11.11c.25,0,1.62.07,1.91.07A4.14,4.14,0,0,1,22.08,1a4.75,4.75,0,0,1,1.33,1.15.48.48,0,0,1,.07.22c0,.07.51.46.51.46a13.12,13.12,0,0,1,.25,2.09c0,.08.11.76.11.83s.11,1.19.11,1.26c.07,1,0,12.78,0,13.75a6,6,0,0,1-1.37,4.18,2.13,2.13,0,0,1-.68.57,4.19,4.19,0,0,1-1.87.36h-5a.65.65,0,0,1-.4-.18ZM18.44,4c0,1.11.11,17.35.11,18.46.11.4.47.29.69.29.86,0,1.8-.36,1.91-1.29.07-1.26.07-2,.07-3.17,0-.76,0-12.67-.07-13.43a1.78,1.78,0,0,0-2-1.44c-.29,0-.69.11-.69.47Zm2,.94c.07.75.07,12.59.07,13.35,0,1.08,0,2-.07,3.13a1,1,0,0,1-.69.58c0-.8,0-1.41,0-2.27s0-12.67-.07-13.43a2.18,2.18,0,0,0-.54-1V4.17A1.21,1.21,0,0,1,20.43,5Z"/><path class="cls-1" d="M27.09,26a2,2,0,0,0,1.11.61h5a4.86,4.86,0,0,0,1-.07,1.19,1.19,0,0,1-.54.43,4.19,4.19,0,0,1-1.87.36h-5a.61.61,0,0,1-.39-.18V19.18c0-.29.1-1.9.1-2.19V4c0-.11.08-.76.08-1s-.08-.82.21-1h.47v.11c0,.14,0,.43,0,.47v13c0,.14,0,.61-.07,1s0,1.05,0,1.15Zm.72-8.21c0-.28.1-1.9.1-2.19v-13c0-.11.08-.76.08-1s-.08-.83.21-1h.65a9.73,9.73,0,0,1,1.8.11L31.23.5l.1.11c.26,0,1.62.07,1.91.07A4.14,4.14,0,0,1,34.75,1a4.75,4.75,0,0,1,1.33,1.15.44.44,0,0,1,.08.22c0,.07.5.46.5.46a13.12,13.12,0,0,1,.25,2.09c0,.08.11.76.11.83s.11,1.19.11,1.26c.07,1,0,12.78,0,13.75a6.08,6.08,0,0,1-1.36,4.18,2.17,2.17,0,0,1-.69.57,4.19,4.19,0,0,1-1.87.36h-5a.61.61,0,0,1-.39-.18ZM31.12,4c0,1.11.11,17.35.11,18.46.1.4.46.29.68.29.86,0,1.8-.36,1.91-1.29.07-1.26.07-2,.07-3.17,0-.76,0-12.67-.07-13.43a1.78,1.78,0,0,0-2-1.44c-.29,0-.68.11-.68.47Zm2,.94c.07.75.07,12.59.07,13.35,0,1.08,0,2-.07,3.13a.94.94,0,0,1-.69.58c0-.8,0-1.41,0-2.27s0-12.67-.07-13.43a2.18,2.18,0,0,0-.54-1V4.17A1.21,1.21,0,0,1,33.1,5Z"/><path class="cls-1" d="M46.67,25.81a6.25,6.25,0,0,0,2.63.64.9.9,0,0,1-.69.69A4.42,4.42,0,0,1,46,26.81V26c0-.11,0-.72,0-.72.07-7.45,0-15-.07-22.53,0-.22.07-.79.4-.79h.32c0,1.91,0,3.81,0,5.76,0,3.81,0,7.63,0,11.41V23.9s0,.57,0,.68Zm.72-1.23c0-.11,0-.72,0-.72.07-7.45,0-15-.07-22.53,0-.22.07-.79.4-.79,1.87-.07,3.6-.47,3.63,2.19.36,1.3.69,2.49,1,3.75C53,9.21,54,11.77,54.8,14.54a4.53,4.53,0,0,1,.33,1.15c0,.11.11.51.11.61s.1.4.28.36.22,0,.22-.11c0-.39,0-2.26,0-2.66s-.1-3.67-.1-4.07c0-1.36-.11-7.66-.15-9l.18-.22,2.77,0c.29,0,.4.21.51.39V1.8c0,2.16,0,4.25,0,6.4,0,5.22-.26,17.35-.26,17.35l-.17.18-3.86.08a1.72,1.72,0,0,1-.32-.29,1,1,0,0,1-.22-.51c-.25-2.23-2.8-12.27-3.27-12.7h-.07l-.11.11c0,3.56.07,9,.11,12.56a.85.85,0,0,1-.69.72,4.42,4.42,0,0,1-2.66-.33ZM51.56,21c0-1.47,0-3,0-4.5.79,3.06,1.58,7.06,1.83,8.61a2,2,0,0,0,.33.82,5.82,5.82,0,0,0,.72.54h2.81V27l-.18.18-3.86.08a1.72,1.72,0,0,1-.32-.29,1,1,0,0,1-.22-.51A45.88,45.88,0,0,0,51.56,21ZM54.19,2h.58c0,2.42.11,6.73.11,7.81,0,.26,0,1.62,0,2.78l-.54-1.73-.21-.61-.15-8Z"/><path class="cls-1" d="M61.43,25c0,.44,0,1.26,1,1.26.28,0,1.08,0,1.87,0h1.91l1.65.07c.36,0,.72,0,1,0l0,.54s-.11.18-.18.18a.56.56,0,0,0-.18,0h-.29c-.4,0-3.13-.14-3.49-.14L61,27c-.29,0-.29-.36-.29-.54v-.18c.07-4.78.11-9.57.11-14.32,0-.9.07-8.39,0-9.29V2L61,1.83h.54v.72c0,1.55,0,4.11,0,5.91v2c0,4.75,0,9.54-.11,14.32Zm.72-.18c.07-4.78.11-9.57.11-14.32,0-.9.07-8.39,0-9.29V.57l.18-.18H63.7c1.83-.07,6.22,0,6.22,0L70.1.5a6,6,0,0,1,.11.76v.18c0,.54,0,1.76,0,1.76L70,3.38h-.36c-1.12,0-2.16-.07-3.24,0a.55.55,0,0,0-.58.36c0,2-.18,4.42-.14,6.37v.79a.78.78,0,0,0,.75.29c.76,0,1.55-.11,2.31-.15.18,0,.28,0,.36.29v.61c0,.22,0,.76,0,.76L69,14c.08-.25-.43.26-.61.29-.65,0-1.29-.07-1.91-.07-.39,0-.57,0-.75.29a9.79,9.79,0,0,0-.07,1.08c0,.65-.11,4.53-.11,5.54,0,0,0,.47,0,.54v.65a.41.41,0,0,0,.29.25l4.39-.07.08,3.06s-.11.18-.18.18a.56.56,0,0,0-.18,0h-.29c-.4,0-3.13-.14-3.49-.14l-3.78,0c-.29,0-.29-.36-.29-.54Zm4.25-9.14v-.25a1.52,1.52,0,0,1,0-.54h.07c.29,0,.58,0,.87,0a.61.61,0,0,0,.25,0,2.23,2.23,0,0,0,0,.43c0,.26-.43.26-.61.29Zm.14-10.91V4.06c.58,0,1.15,0,1.76,0h.44v.58l-.18.18H68.2C67.62,4.82,67.08,4.82,66.54,4.78Z"/><path class="cls-1" d="M77.88,26.49c0,.25-.15.72-.4.72H76.33c-.75,0-2.12.22-2.63-.25-.28-.29-.68-6.37-.68-6.37-.36-3.28-.72-6.52-1.12-9.83-.28-2-.46-4-.64-6a16,16,0,0,1-.18-2.37V2l.07-.11h.65A13.3,13.3,0,0,0,72,3.38v0c.18,2,.36,4.1.64,6.08v0c.4,3.21.76,6.66,1.12,9.83,0,0,.43,6.37.9,6.84s1.76.5,2.59.47c.22,0,.36,0,.54,0Zm-.11-.72c-.75,0-2.12.22-2.63-.25-.28-.29-.68-6.37-.68-6.37-.36-3.28-.72-6.52-1.12-9.83-.28-2-.46-4-.64-6.05A16,16,0,0,1,72.52.9V.54l.07-.11h2.55c.58,0,.58.68.58,1,0,.11.07.87.07,1,.22,1.18.61,5.07.69,5.47s.57,4.93.57,5.22c0,.07.07,1.18.07,1.29s.11.58.11.69.07.64.36.64h.11a1.15,1.15,0,0,0,.07-.25c0-.11.11-1.08.11-1.19.29-2.05.86-6.12,1.11-8.2,0-.29.44-4,.62-4.93.11-.51.11-.69,2.62-.65h.08c.57,0,.57.65.57,1,0,.11.07.87.07,1,.22,1.19.33,5.08.44,5.44s.54,4.17.54,4.46c0,.07.36,2,.36,2.09s.07.58.07.68.39.72.68-.79c.47-2.77.83-6.12,1.08-8.21,0-.28.43-4,.61-4.93a2,2,0,0,1,.08-.36s.1-.28.18-.28h2.37c.29,0,.29.28.29.46,0,0-.11.65-.11.87-.54,4.24-1,8.49-1.58,12.74-.36,2.56-.87,5.18-1.15,7.77,0,.19-.18,1.37-.18,1.59a4.82,4.82,0,0,1-.11.47c0,.1-.07.57-.07.68s-.11.83-.4.83H84.93c-.75,0-2.12.21-2.62-.25-.29-.29-.69-7.89-.69-7.89-.25-1.94-.29-4.68-.5-6.62h-.25L79.68,22.21c0,.18-.18,1.36-.18,1.58a4.82,4.82,0,0,1-.11.47c0,.11-.07.57-.07.68s-.11.83-.4.83Zm.94-23.72c-.15,1.12-.33,2.66-.4,3.49a3.54,3.54,0,0,0,0,.51c-.15,1.29-.44,3.27-.72,5.11a4.43,4.43,0,0,0-.08-.69c-.07-.39-.1-.79-.14-1.15l.22-1.76c0-.29.43-4,.61-4.93C78.2,2.34,78.24,2.16,78.71,2.05Zm1.65,20.59a1.23,1.23,0,0,0,0-.36l.47-4.39a.78.78,0,0,0,0,.14s.4,7.81.9,8.32,1.77.5,2.59.46c.22,0,.36,0,.54,0H85c0,.25-.15.72-.4.72H83.49c-.75,0-2.12.21-2.62-.25A26.69,26.69,0,0,1,80.36,22.64ZM85.55,2.09h.28c-.14,1.11-.32,2.73-.39,3.56a2.63,2.63,0,0,0,0,.5l-.14,1.26-.61,4.9-.26-2.09c.11-.94.18-1.84.29-2.56,0-.28.43-3.95.61-4.93a2,2,0,0,1,.08-.36S85.47,2.09,85.55,2.09Z"/><path class="cls-1" d="M98.87,26.45h1.55a1.3,1.3,0,0,1,0,.15s-.18.07-.18.18-.21.29-.39.29a10.69,10.69,0,0,1-1.8.1h-.65c-.29-.21-.22-.75-.22-1s-.07-.9-.07-1V12.09c0-.29-.11-1.87-.11-2.16V2.34c.11-.11.29-.51.4-.51h.32V8.49c0,.15,0,.69,0,1.15s.07.87.07,1V23.72s0,.25,0,.39a4.87,4.87,0,0,1,0,.58v.14a1.49,1.49,0,0,0,.51,1.48Zm-.22-1.76c0-.22-.07-.9-.07-1V10.65c0-.29-.11-1.87-.11-2.16V.9c.11-.11.29-.51.4-.51h5a4.36,4.36,0,0,1,1.87.36,2.16,2.16,0,0,1,.68.58,6,6,0,0,1,1.37,4.18c0,1,0,3.31,0,4.28,0,.11-.1,1.15-.1,1.26s-.11.75-.11.83a4,4,0,0,1-2.16,2.59,4.18,4.18,0,0,1-1.51.29c-.29,0-1.66.1-1.91.1l-.11.08c.07,3.34-.14,6.55,0,10.22,0,0-.18.07-.18.18s-.21.29-.39.29a10.69,10.69,0,0,1-1.8.1h-.65C98.58,25.52,98.65,25,98.65,24.69Zm3.13-13.14c0,.36,0,.47.33.47,1,0,2.16-.4,2.37-1.44.08-.79.08-1.91.08-2.66,0-1.16,0-1.91-.08-3.17-.1-.94-1-1.3-1.9-1.3-.22,0-.58-.1-.69.29,0,1.12-.11,6.55-.11,7.7Zm.83-6.19V4.17c.58,0,1.08.22,1.15.61.08,1.27.08,2,.08,3.14,0,.72,0,1.8-.08,2.59v-.07a1.17,1.17,0,0,1-.68.68c0-.61,0-1.26,0-1.76,0-1.16,0-1.91-.08-3.17A1.29,1.29,0,0,0,102.61,5.36Zm0,10.84v-.62a1.46,1.46,0,0,0,.36,0l.94-.07a3.74,3.74,0,0,0,.9-.08,2.78,2.78,0,0,1-.83.51A3.46,3.46,0,0,1,102.61,16.2Z"/><path class="cls-1" d="M109.81,26.53c.83,0,2.3.07,3.13.07,1.48,0,3-.07,4.29-.15,0,.44-.22.62-.69.65a54.75,54.75,0,0,1-7.52.18l-.11-.9c0-.18-.18-5.22-.25-7.16,0-.36.18-6.48.14-8.71,0-1.37-.14-7.13-.14-8.39a.33.33,0,0,1,.36-.29l.36,0c0,.83,0,1.91.07,2.84,0,1.8.07,3.67.07,4.36,0,1.69-.07,5.65-.1,7.59,0,.62,0,1.08,0,1.16.07,1.94.25,7,.25,7.19Zm.54-1.59c0-.18-.18-5.22-.25-7.16,0-.36.18-6.48.14-8.71,0-1.37-.14-7.13-.14-8.39a.33.33,0,0,1,.36-.29l2.7.08.29.28v.87c0,.39-.07,2.34-.07,2.7l.32,17.85a.39.39,0,0,0,.29.29l4.14-.15c.1,0,.32.29.32.4l.22,2.12c.07.58-.15.8-.69.83a54.75,54.75,0,0,1-7.52.18Z"/><path class="cls-1" d="M121.62,27.21c-.29,0-1.94-.11-2.23-.11s-.11-.36-.11-.47.21-1,.21-1.08c.51-3.81.83-7.7,1.45-11.51.17-1.84.57-3.6.75-5.48.07-.75.4-1.54.5-2.3A24.11,24.11,0,0,1,123,2h.43c-.21,1.08-.43,2.3-.47,2.84l-.21.86a10.37,10.37,0,0,0-.29,1.37c-.11.94-.25,1.84-.39,2.74s-.29,1.83-.37,2.7c-.36,2.27-.64,4.82-.89,7.09L120.22,24s-.08.29-.11.51l0-.08a3.5,3.5,0,0,0-.14.72c0,.54-.29,1.19.83,1.19l1,.07c.15,0,.36,0,.54,0-.11.43-.25.72-.5.72Zm1.44-1.44c-.29,0-2-.11-2.23-.11s-.11-.36-.11-.47a10.89,10.89,0,0,1,.22-1.08l1.43-11.51c.18-1.84.58-3.6.76-5.48.07-.75.4-1.54.5-2.3a24.11,24.11,0,0,1,.76-4.28c1.19,0,2.48-.07,3.78,0a39.76,39.76,0,0,1,.9,5.4c.07,1,.32,2.05.47,3l.57,4.75c0,.11.11.5.11.57.29,3.24,1.12,8.43,1.19,8.93.07.86.29,1.66.29,2.52l-.11.11h-3.13c-.36,0-.36-.65-.36-1a14.4,14.4,0,0,0-.51-3.39H124.5c-.72,0-.18,4.25-1.15,4.25ZM124.5,23l.07-.72h2.63c.07.47.18,2.09.18,2.67s0,1.69,1.08,1.69h1.76c0,.18,0,.39,0,.61l-.11.11H127c-.36,0-.36-.65-.36-1a14.4,14.4,0,0,0-.51-3.39Zm2.63-4.46.07-.11c.18-.47-.29-.21-.29-3.35,0,0-.54-6-.86-6a.34.34,0,0,0-.29.29,55.88,55.88,0,0,1-.87,6.73,14.69,14.69,0,0,0-.28,2,.3.3,0,0,0,.18.4Zm-1.52-2.27.33-2.19.07-.47a3.29,3.29,0,0,0,.07.57,5.55,5.55,0,0,0,.11.9,12.77,12.77,0,0,0,.18,2.74h-.86a6.57,6.57,0,0,1,0-.94Z"/><path class="cls-1" d="M140.84,26.78l.29-.11v0a4,4,0,0,1-1.84.79h-2.55a4.85,4.85,0,0,1-1-.29c-2.27-.9-2.66-3.24-2.77-5.4v-11c0-.51.11-2.78.11-3.17a8.21,8.21,0,0,1,1.08-4.18,12.92,12.92,0,0,0-.36,2.74c0,.18,0,.72,0,1.37s-.07,1.54-.07,1.8V20.41c.11,2.37.54,5,3.17,6a6.23,6.23,0,0,0,1.33.36Zm-2.66-.72a4.85,4.85,0,0,1-1-.29c-2.27-.9-2.66-3.24-2.77-5.4v-11c0-.51.11-2.78.11-3.17.1-2.05.5-4.14,2.26-5.4a4.93,4.93,0,0,1,3.75-.72,1,1,0,0,0,.32.11,5,5,0,0,1,1.84,1.4c1.08,1.19,1.08,3.13,1.08,4.68a6,6,0,0,1-.11,2l-.07.11h-2.85l-.1-.11V5.86c0-.28-.11-1.43-.11-1.65s-.29-.58-.58-.76a1.68,1.68,0,0,0-.68-.1c-1,0-1.19.86-1.19,1.76,0,4.93-.11,9.83-.11,14.76v.61c0,.18.11,1.15.11,1.37A1.58,1.58,0,0,0,139.44,23a3.08,3.08,0,0,0,1.29-.47l.11-.11a3.93,3.93,0,0,1,.36-.57V16.7c0-.07.22-.07.29-.07h.22c.39,0,1.94.07,2.34.07.1,0,.32.79.39,1v1.37c0,2.26-.18,4.53-1.87,6.19a4,4,0,0,1-1.84.79Zm.61-20.95c0-.54.07-1.05.47-1.05a.88.88,0,0,1,.32,0c.29.29.18.29.25.9,0,.32.08.76.08.86V8.53l.54.54h1.87a1.74,1.74,0,0,1-.11.61l-.07.11h-2.85l-.1-.11V7.3c0-.28-.11-1.44-.11-1.65A.81.81,0,0,0,138.79,5.11Zm1.48,13h.21v3.56l-.21.36-.15,0h0l-.4.18V18.14c0-.07.22-.07.29-.07Z"/><path class="cls-1" d="M146.49,25c0,.44,0,1.26,1,1.26.29,0,1.08,0,1.87,0h1.91l1.66.07c.36,0,.72,0,1,0l0,.54s-.11.18-.18.18a.56.56,0,0,0-.18,0h-.29c-.39,0-3.13-.14-3.49-.14l-3.78,0c-.29,0-.29-.36-.29-.54v-.18c.08-4.78.11-9.57.11-14.32,0-.9.07-8.39,0-9.29V2l.18-.18h.54v.72c0,1.55,0,4.11,0,5.91v2c0,4.75,0,9.54-.11,14.32Zm.72-.18c.08-4.78.11-9.57.11-14.32,0-.9.07-8.39,0-9.29V.57l.18-.18h1.22c1.84-.07,6.23,0,6.23,0l.18.07a6,6,0,0,1,.11.76v.18c0,.54,0,1.76,0,1.76l-.18.18h-.36c-1.11,0-2.16-.07-3.24,0a.53.53,0,0,0-.57.36c0,2-.18,4.42-.15,6.37v.79a.8.8,0,0,0,.76.29c.75,0,1.55-.11,2.3-.15.18,0,.29,0,.36.29v.61c0,.22,0,.76,0,.76L154.09,14c.07-.25-.43.26-.61.29-.65,0-1.3-.07-1.91-.07-.4,0-.58,0-.76.29,0,.18-.1.9-.07,1.08,0,.65-.11,4.53-.11,5.54,0,0,0,.47,0,.54v.65a.41.41,0,0,0,.29.25l4.39-.07.07,3.06s-.11.18-.18.18a.56.56,0,0,0-.18,0h-.29c-.39,0-3.13-.14-3.49-.14l-3.78,0c-.29,0-.29-.36-.29-.54Zm4.25-9.14v-.25a1.6,1.6,0,0,1,0-.54h.07c.29,0,.58,0,.86,0a.69.69,0,0,0,.26,0,2.23,2.23,0,0,0,0,.43c0,.26-.43.26-.61.29Zm.15-10.91V4.06c.57,0,1.15,0,1.76,0h.43v.58l-.18.18h-.36C152.69,4.82,152.15,4.82,151.61,4.78Z"/></g></g></svg>