<svg xmlns="http://www.w3.org/2000/svg" viewBox="0 0 91.77 100.11"><defs><style>.cls-1{fill:#82524b;}</style></defs><title>Asset 2</title><g id="Layer_2" data-name="Layer 2"><g id="Layer_1-2" data-name="Layer 1"><path class="cls-1" d="M91.18,17.27a2,2,0,0,0-1.49-.59H69.54L65,5.8a8.92,8.92,0,0,0-3.52-4.1A9.19,9.19,0,0,0,56.31,0H35.46a9.19,9.19,0,0,0-5.15,1.7,8.92,8.92,0,0,0-3.52,4.1L22.23,16.68H2.09a2,2,0,0,0-1.5.59A2,2,0,0,0,0,18.77v4.17a2,2,0,0,0,.59,1.5,2,2,0,0,0,1.5.59H8.34V87.08a14.22,14.22,0,0,0,3.07,9.22,9.16,9.16,0,0,0,7.36,3.81H73a9.09,9.09,0,0,0,7.37-3.94,14.81,14.81,0,0,0,3.06-9.35V25h6.26a2,2,0,0,0,2.08-2.09V18.77a2,2,0,0,0-.59-1.5ZM34.48,9.06a1.84,1.84,0,0,1,1.11-.72H56.25a1.85,1.85,0,0,1,1.1.72l3.13,7.62H31.28ZM75.09,86.82a7.55,7.55,0,0,1-.46,2.64,5.74,5.74,0,0,1-.95,1.75c-.32.38-.55.56-.68.56H18.77c-.13,0-.36-.18-.68-.56a5.53,5.53,0,0,1-.95-1.75,7.54,7.54,0,0,1-.45-2.64V25h58.4Z"/><path class="cls-1" d="M27.11,79.26h4.17a2,2,0,0,0,1.5-.59,2,2,0,0,0,.59-1.5V39.63a2,2,0,0,0-.59-1.5,2,2,0,0,0-1.5-.59H27.11A2,2,0,0,0,25,39.63V77.17a2,2,0,0,0,.58,1.5,2.05,2.05,0,0,0,1.5.59Z"/><path class="cls-1" d="M43.8,79.26H48a2,2,0,0,0,2.08-2.09V39.63A2,2,0,0,0,48,37.54H43.8a2,2,0,0,0-2.09,2.09V77.17a2,2,0,0,0,2.09,2.09Z"/><path class="cls-1" d="M60.48,79.26h4.18a2,2,0,0,0,2.08-2.09V39.63a2,2,0,0,0-2.08-2.09H60.48a2,2,0,0,0-2.08,2.09V77.17a2,2,0,0,0,2.08,2.09Z"/></g></g></svg>