<svg xmlns="http://www.w3.org/2000/svg" viewBox="0 0 659.29 459.77"><defs><style>.cls-1{fill:#e0d5bf;}.cls-2{fill:#ffb8b8;}.cls-12,.cls-14,.cls-17,.cls-18,.cls-19,.cls-20,.cls-23,.cls-26,.cls-3,.cls-34,.cls-36,.cls-37,.cls-39,.cls-43,.cls-45,.cls-47,.cls-48,.cls-50,.cls-59,.cls-61,.cls-62,.cls-64,.cls-65,.cls-9{fill:none;}.cls-3{stroke:#ff9494;}.cls-12,.cls-17,.cls-18,.cls-19,.cls-20,.cls-23,.cls-26,.cls-3,.cls-34,.cls-36,.cls-37,.cls-39,.cls-43,.cls-45,.cls-47,.cls-48,.cls-50,.cls-53,.cls-59,.cls-61,.cls-62,.cls-64,.cls-65,.cls-9{stroke-linecap:round;stroke-linejoin:round;}.cls-12,.cls-17,.cls-18,.cls-19,.cls-23,.cls-26,.cls-3,.cls-34,.cls-36,.cls-37,.cls-39,.cls-43,.cls-45,.cls-47,.cls-48,.cls-50,.cls-53,.cls-59,.cls-61,.cls-62,.cls-64,.cls-65,.cls-9{stroke-width:0.75px;}.cls-4{fill:#ff9494;}.cls-5{fill:#2e2c27;}.cls-6{fill:#c43b52;}.cls-7{fill:#7d2c2c;}.cls-8{fill:#ad1a33;}.cls-9{stroke:#822627;}.cls-10{fill:#3079a6;}.cls-11{fill:#45aded;}.cls-12{stroke:#1a435c;}.cls-13{fill:#28648a;}.cls-14,.cls-17,.cls-53{stroke:#2e2c27;}.cls-14{stroke-miterlimit:10;stroke-width:2px;}.cls-15{fill:#ab7d00;}.cls-16{fill:#ff9696;}.cls-18{stroke:#ff5e5e;}.cls-19{stroke:#ab7d00;}.cls-20{stroke:#fff;}.cls-21{fill:#244657;}.cls-22{fill:#215473;}.cls-23{stroke:#45aded;}.cls-24{fill:#ff9c9c;}.cls-25{fill:#ff7878;}.cls-26{stroke:#ff5959;}.cls-27{fill:#ff5959;}.cls-28{fill:#bf7850;}.cls-29{fill:#a14332;}.cls-30{fill:#e3a600;}.cls-31{fill:#4355a8;}.cls-32{fill:#334180;}.cls-33{fill:#2a3569;}.cls-34{stroke:#a14332;}.cls-35{fill:#fff;}.cls-36{stroke:#e3a600;}.cls-37{stroke:#334180;}.cls-38{fill:#192040;}.cls-39{stroke:#ff7878;}.cls-40{fill:#525659;}.cls-41{fill:#786f37;}.cls-42{fill:#665e2f;}.cls-43{stroke:#ada04f;}.cls-44{fill:#224a32;}.cls-45{stroke:#adadad;}.cls-46{fill:#c9c9c9;}.cls-47{stroke:#b33434;}.cls-48{stroke:#7d2c2c;}.cls-49,.cls-53{fill:#4da872;}.cls-50{stroke:#224a32;}.cls-51{fill:#3c8258;}.cls-52{fill:#62d691;}.cls-54{fill:#ed745f;}.cls-55{fill:#db4327;}.cls-56{fill:#8c6600;}.cls-57{fill:#5177c2;}.cls-58{fill:#405e99;}.cls-59{stroke:#293c61;}.cls-60{fill:#573f00;}.cls-61{stroke:#db5b44;}.cls-62{stroke:#573f00;}.cls-63{fill:#8fb4ff;}.cls-64{stroke:#db4327;}.cls-65{stroke:#525659;}</style></defs><title>Asset 1</title><g id="Layer_2" data-name="Layer 2"><g id="OBJECTS"><ellipse class="cls-1" cx="145.27" cy="439.45" rx="20.01" ry="5.25"/><ellipse class="cls-1" cx="63.76" cy="439.45" rx="20.01" ry="5.25"/><path class="cls-2" d="M20.21,34.36s-1-9.85-.63-12,3-15.08,3-15.08-1.46-.18-2,.8-2.09,4.8-2.09,4.8-2-3.59-3.09-5.61S10.67.21,10.48,0,9.09.88,9.73,2.24s3,4.86,3.09,8.06L4.61,2.85a2.2,2.2,0,0,0,.54,2.46c1.17,1.36,4.32,6.22,4.32,6.22L.76,7.47a1.86,1.86,0,0,0,.63,2c1,.8,5.24,2.4,6.06,3.81L0,11.53a2.32,2.32,0,0,0,1.45,2.09c1.46.55,4.93.8,5.56,1.91s.32,7,3.6,9.41l-.32,9.8Z"/><path class="cls-3" d="M15.35,14.11a8.86,8.86,0,0,0-1.58,8.31"/><line class="cls-3" x1="8.15" y1="14.48" x2="13.89" y2="11.34"/><path class="cls-4" d="M19.61,27a23.47,23.47,0,0,0-9.14,2.17l-.18,5.58,9.92-.38S19.81,30.42,19.61,27Z"/><path class="cls-5" d="M78.35,432.56s.14,1.29.15,2.89a2.74,2.74,0,0,1-2.88,2.73c-1.8-.08-3.92,0-4.44.63-.93,1.18.43,2.61-5.57,2.61s-15.18.23-16.26-6S78.35,432.56,78.35,432.56Z"/><path class="cls-5" d="M130.29,432.56s-.13,1.29-.15,2.89a2.74,2.74,0,0,0,2.88,2.73c1.8-.08,3.92,0,4.44.63.94,1.18-.43,2.61,5.57,2.61s15.18.23,16.26-6S130.29,432.56,130.29,432.56Z"/><path class="cls-2" d="M84.74,274.9s-3.94,27.22-4.5,38,2.43,26.67,2.25,41.29S75.55,411,76.3,418.31a15.61,15.61,0,0,1-9.75,5.3c-6.19.73-6.38-5.48-6.38-5.48s4.32-4.57,2.25-19.37S54.36,349.44,57,330.44s-1.88-28.32-3.1-35.07S50.8,274.9,50.8,274.9Z"/><path class="cls-4" d="M50.8,274.9s1.87,13.71,3.09,20.47c.09.51.21,1,.33,1.59.78-3.71,2.88-7,7.58-7.08,9.88-.18,16.45,6.1,19.65,10.14,1.35-11.72,3.29-25.12,3.29-25.12Z"/><path class="cls-2" d="M98.24,281.1S102,297,107.42,306s7.88,17.17,9.75,32,12.55,59.36,14.44,70.88c.75,4.57,1.59,11.24,1.59,11.24l13.6-3.2a173.09,173.09,0,0,1-1.31-21.19c0-11.69-.18-48-2.07-60.84-2.25-15.34-6.56-22.1-8.06-29.77s-3.19-29.12-3.19-29.12Z"/><path class="cls-4" d="M119,287.46c7.64,0,12.22,3.34,14.92,6.79-1-8.67-1.72-18.32-1.72-18.32L98.24,281.1a128.69,128.69,0,0,0,6.43,19.49C105.25,295.87,107.86,287.53,119,287.46Z"/><path class="cls-6" d="M125.34,195.05s6.83,37.66,7.77,50.81,4.31,34.34,4.31,34.34-31.12,4.2-41.62,2.93l-7.5-23.57-1.31,23a132.86,132.86,0,0,1-42.38-.19s5.06-51.8,5.63-61.25S52.3,198,58.3,190.77l67,4.28"/><path class="cls-7" d="M95.8,283.13c10.5,1.27,41.62-2.93,41.62-2.93s-.26-1.63-.65-4.27c-12.84,2.78-36,3.54-42.09,3.69Z"/><path class="cls-8" d="M64.33,284.12A118.82,118.82,0,0,0,87,282.58l1.31-23L87,243C84,251.12,68.24,277.6,64.33,284.12Z"/><path class="cls-8" d="M125.82,197.69c-.3-1.67-.48-2.64-.48-2.64l-67-4.28A26.4,26.4,0,0,0,53.93,199C86.2,212.9,118.84,200.65,125.82,197.69Z"/><path class="cls-9" d="M88.3,259.56s-.52-4.52-1.08-11.37-1-51.11-1-51.11"/><path class="cls-7" d="M58.3,190.77c-5.87,7-7.43,20.31-8,29.73C59.91,214,62.47,196.35,63,191.07Z"/><path class="cls-7" d="M129.9,221.84h0c-2.15-13.53-4.56-26.79-4.56-26.79l-6.57-.42-5.35,1.72S118.63,216.27,129.9,221.84Z"/><path class="cls-10" d="M132.19,100.26c7.34,4.34,14.94,9.53,16.34,18.65s1,25.42,2.67,32.27,4.64,22.56.41,32.48c1.26,11.43-1.25,18.77-7.16,23.56s-4.14,14.94-12.26,13.84-11-11.92-9-18.77,7-37.72,7-37.72a174.92,174.92,0,0,0,0-22.29C129.52,128.36,132.19,100.26,132.19,100.26Z"/><path class="cls-11" d="M55.58,180.73v9.14c0,3.47,18.56,8.49,34,8.49s30.19-.82,36.94-2.56v-7.39Z"/><path class="cls-12" d="M132.92,165.66s2.25-9.13,13.32-13.33"/><path class="cls-12" d="M130.25,195.8a42.82,42.82,0,0,1,13,2.56"/><line class="cls-12" x1="130.25" y1="200.01" x2="136.74" y2="204.02"/><path class="cls-10" d="M72.31,84.05s-2.53-6.17,21.41-6.85c17.58-.5,25.56,9.18,25.28,17.26,0,0,7.16,2.93,12.31,5.32,6,2.76,6,11.65,4.15,22.06-1.06,5.9-3.67,12.64-3.14,16.94s1.24,13.09-.53,19.63,2,23.77-5.65,31.69c0,0-38.78,3.28-66.1-4.65-8.31-2.41-7.6-13.78-4.42-20.67s-3.19-22.73-2.22-32.37-2.55-9.47-2-19.46,6.54-32,6.54-32Z"/><path class="cls-13" d="M62.05,89.58l-8.29,8.48A107.49,107.49,0,0,0,51.38,113c-.53,10,3,9.82,2,19.46a31.24,31.24,0,0,0,.19,6.55C70.22,132.2,62.05,89.58,62.05,89.58Z"/><path class="cls-13" d="M135.48,121.76h0a3,3,0,0,0-5.34,1.32c-1.07,8.33-3.25,21.46-7,29.25-4.62,9.69-12.61,30.4-13.53,38.43,9.79-.1,16.5-.66,16.5-.66,7.6-7.92,3.88-25.14,5.65-31.69s1.06-15.32.53-19.63,2.1-11.1,3.16-17Z"/><path class="cls-2" d="M85.77,77.06a96.24,96.24,0,0,0,.37,12.7c.66,4.38,8.53,6.57,11,8.49,4.41-3.74,8.1-7,8.74-9.22s-4-12.55-4.26-15.73Z"/><path class="cls-4" d="M101.59,73.3,85.77,77.06s-.06,1.78-.06,4.12c3.14,2.49,8.75,6.35,11.87,5,2.69-1.14,4.8-3.85,6.07-5.84A42.36,42.36,0,0,1,101.59,73.3Z"/><path class="cls-14" d="M71.05,160.55s-2.63,11.51-12.75,18.81"/><path class="cls-14" d="M109.59,162.93s-.93,11.75,6.57,21.62"/><path class="cls-10" d="M57.92,80.93c-7.82-2-26.11-9.38-26.11-9.38a1.35,1.35,0,0,0,0-2.09c-1.12-1.17-2.95-2.81-2.95-2.81s.84-1.11-.7-3.43c0,0,1.83-19.86-6.05-25.89v-4.8s-9-1.78-14.06,0v5.21S3.69,39,4.11,50.07,5.2,79.7,10,89.18c6.77,13.36,36.76,28.11,41.59,29.58s10-8,10.46-12.52S66.11,83,57.92,80.93Z"/><path class="cls-13" d="M22.11,37.33v-4.8s-9-1.78-14.06,0v5.21A18.31,18.31,0,0,1,22.11,37.33Z"/><line class="cls-12" x1="27.55" y1="66.61" x2="20.89" y2="67.01"/><path class="cls-12" d="M30.17,71.55s-6.37,3-6,3.77,3-.45,3-.45"/><path class="cls-12" d="M67.3,97.89s-4.64,13.64-8.74,16.73"/><line class="cls-12" x1="66.83" y1="107.84" x2="57.27" y2="118.91"/><line class="cls-12" x1="55.49" y1="100.26" x2="46.58" y2="81.68"/><path class="cls-4" d="M119.33,209a4.67,4.67,0,0,1,5.06-2.83c4.75.63,8,7.49,4.22,15C128.61,221.14,121.11,216,119.33,209Z"/><path class="cls-11" d="M132.16,156.8c1.28-6.31.65-14.06.16-18a19,19,0,0,1,.53-5.91c-4-1.54-13.92-4.39-36.78-6.49-24.61-2.25-37.6-.26-42.59.88a25.88,25.88,0,0,1-.08,5.15c-.45,4.51.69,10.36,1.72,16C67.42,148.08,106.84,147.73,132.16,156.8Z"/><path class="cls-10" d="M62.61,125.89a70.7,70.7,0,0,0-9.13,1.37h0c0,.32.06.66.07,1,0,.05,0,.1,0,.15,0,.33,0,.69,0,1.06v.19c0,.38,0,.77,0,1.18a1.21,1.21,0,0,0,0,.19c0,.44-.07.89-.12,1.38h0c0,.53-.08,1.07-.09,1.63,0,.28,0,.57,0,.86s0,.53,0,.8,0,.82.07,1.24l0,.43c0,.51.09,1,.15,1.54V139C58.42,137,61.16,132,62.61,125.89Z"/><path class="cls-10" d="M123.17,152.33l-.74,1.58a99.27,99.27,0,0,1,9.73,2.89,47.1,47.1,0,0,0,.75-9.85v-.07c0-.36,0-.72,0-1.08a.86.86,0,0,1,0-.16c0-.33,0-.66,0-1a1.77,1.77,0,0,1,0-.23l-.06-.88c0-.1,0-.19,0-.29q0-.4-.06-.78l0-.35-.06-.68,0-.4-.06-.56c0-.18,0-.35,0-.52s0-.25,0-.37c0-.29-.07-.56-.1-.82a11.09,11.09,0,0,1-.06-1.18v-.27c0-.42,0-.84.07-1.29a.17.17,0,0,0,0-.07c0-.45.11-.91.19-1.38l0-.18c.08-.5.18-1,.29-1.54-.95-.37-2.25-.82-4-1.31C127.63,138.78,125.78,146.86,123.17,152.33Z"/><polyline class="cls-9" points="75.83 233.62 102.13 236.41 76.39 239.15"/><line class="cls-9" x1="49.25" y1="250.52" x2="53.89" y2="276.69"/><path class="cls-7" d="M87,282.58l.24-4.23c-16.83,2.52-36.36.44-42.2-.29-.26,2.71-.42,4.33-.42,4.33A132.86,132.86,0,0,0,87,282.58Z"/><path class="cls-4" d="M70.2,314.91c-2.28,1.55-5.55,3.56-7.45,3.91s-1.33,2.39,2.53,3.08a6,6,0,0,0,6.82-3.49C73,316.62,73.71,312.54,70.2,314.91Z"/><path class="cls-4" d="M122.31,314.91c2.29,1.55,5.56,3.56,7.46,3.91s1.33,2.39-2.54,3.08a6.06,6.06,0,0,1-6.82-3.49C119.57,316.62,118.81,312.54,122.31,314.91Z"/><path class="cls-6" d="M61.36,410.58s8.74-.79,9.29,1.2-.41,6.52,1.09,6.65,4.51-1.05,4.51-1.05S79.39,433.2,78,433.73s-4.5-.13-5.19.8-2.59,2.39-7,2-15,0-16.52-1.06,5.87-9.4,8.19-11.95S61.36,410.58,61.36,410.58Z"/><path class="cls-6" d="M147.28,410.58s-8.74-.79-9.28,1.2.4,6.52-1.1,6.65-4.5-1.05-4.5-1.05-3.14,15.82-1.78,16.35,4.51-.13,5.19.8,2.59,2.39,7,2,15,0,16.52-1.06-5.87-9.4-8.19-11.95S147.28,410.58,147.28,410.58Z"/><path class="cls-15" d="M79.73,70.5l-3.62-6.21a2.47,2.47,0,0,1-3-2.37c-.21-2.81,2.32-17.47,12-14.25,2.88-4,12.66-2.33,15.54,1.24s7.66,6.78,7.59,8.28-4.6,4.24-4.09,7.68S79.73,70.5,79.73,70.5Z"/><path class="cls-4" d="M83,71s-1.91-3.43-3.83-3.29-.75,3.52.61,4.57,2.23,1.51,3.65.36Z"/><path class="cls-4" d="M102.58,66.61s.25-3.35,2.5-3-1,7.49-2.37,5.83Z"/><path class="cls-2" d="M86,53.64S84.63,61,81,63.81l1.45,7.8S84.3,78.15,86,78.94s5.34,3.38,8.74,2.6,7.27-5.6,7.76-8,0-8,0-8L100.8,62s-4.53.86-5.18-1.5S89.88,51,88.43,54.12A7.1,7.1,0,0,0,86,53.64Z"/><path class="cls-16" d="M101,70.26a2.1,2.1,0,1,1-2.1-2.11A2.1,2.1,0,0,1,101,70.26Z"/><path class="cls-17" d="M90.46,64.29a3.47,3.47,0,0,1-3.09,3.84,3.51,3.51,0,0,1-3.93-3,3.46,3.46,0,0,1,3.08-3.84A3.52,3.52,0,0,1,90.46,64.29Z"/><path class="cls-17" d="M99.58,63.22a3.46,3.46,0,0,1-3.09,3.83,3.51,3.51,0,0,1-3.93-3,3.45,3.45,0,0,1,3.08-3.83A3.51,3.51,0,0,1,99.58,63.22Z"/><line class="cls-17" x1="90.46" y1="64.29" x2="92.56" y2="64.04"/><line class="cls-17" x1="83.42" y1="64.87" x2="79.73" y2="66.61"/><line class="cls-17" x1="99.58" y1="63.22" x2="102.58" y2="63.6"/><path class="cls-15" d="M87,73.64A38.32,38.32,0,0,1,98.61,71.9S97,68.76,92.78,69.6,86.44,71.44,87,73.64Z"/><path class="cls-18" d="M91.12,74.78s1.35,1.18,3.6,0"/><path class="cls-5" d="M87.69,64.78c.1.7-.16,1.32-.57,1.37s-.82-.48-.92-1.19.17-1.31.58-1.37S87.6,64.07,87.69,64.78Z"/><path class="cls-5" d="M96.81,63.54c.1.7-.16,1.31-.57,1.37s-.82-.48-.91-1.19.16-1.31.57-1.37S96.72,62.83,96.81,63.54Z"/><line class="cls-19" x1="84.41" y1="59.48" x2="89.61" y2="60.18"/><line class="cls-19" x1="92.32" y1="59.97" x2="94.78" y2="58.65"/><path class="cls-18" d="M91.12,66.2l.21,3.8a2.26,2.26,0,0,0,1.8-.71"/><path class="cls-20" d="M92.61,99.35s-1.52,1.28-.76,6.39,2.07,7,1.6,10.05-2.41,7.58,2.36,12.15"/><path class="cls-20" d="M101.33,98.8s-.84,1.19,0,5.75,3.56,7.49,3.37,11.79,2.44,6.85,6.47,8.13"/><path class="cls-12" d="M135.86,119.48s-3.78,11-3.52,16.49,1.58,14.12-.18,20.83-1.38,10-.93,13.15"/><path class="cls-12" d="M129.56,112.59s2.39,9.4-1.26,22.78"/><ellipse class="cls-1" cx="374.83" cy="443.2" rx="18.23" ry="3.49"/><ellipse class="cls-1" cx="454.74" cy="443.2" rx="18.23" ry="3.49"/><path class="cls-21" d="M386.29,426.23l2.08,1.48s.68,3.73-.48,5.32-4.94,3.06-8.14,3.78a29.77,29.77,0,0,0-9.88,4.8c-1.86,1.42-6,2.39-9.33,2.28a3.82,3.82,0,0,1-3.58-2.83l-.36-1.34Z"/><path class="cls-21" d="M463.41,412.9l2.45.71s1.88,3.29,1.31,5.19-3.65,4.51-6.43,6.25a29.89,29.89,0,0,0-7.74,7.8c-1.28,1.95-4.85,4.23-8.05,5.24a3.81,3.81,0,0,1-4.31-1.49l-.79-1.14Z"/><path class="cls-22" d="M389.15,397.29l-2.52,22a23,23,0,0,1,1.74,8.43s-7,4.84-13.66,6.68-11.62,7.36-18.11,5.33c0,0-1-4,3.92-9s9-10.27,9.64-13.37.2-20,.2-20Z"/><path class="cls-21" d="M370.47,402.8c3.06.49,11.43,2.16,17.35,6.11l1.33-11.62H370.36S370.42,399.66,370.47,402.8Z"/><path class="cls-23" d="M387.09,420.49s-7,3.44-6.13,11.48"/><path class="cls-22" d="M456.53,384.65l4.9,21.58a22.86,22.86,0,0,1,4.43,7.38s-5,6.88-10.68,10.82-8.53,10.8-15.33,11c0,0-2.24-3.43.72-9.8s5.06-12.66,4.68-15.81-6.45-19-6.45-19Z"/><path class="cls-21" d="M440.73,396c3-.54,11.5-1.74,18.39,0l-2.59-11.4-17.73,6.22S439.65,393.08,440.73,396Z"/><path class="cls-23" d="M462.27,407.22s-5.5,5.57-2,12.86"/><path class="cls-24" d="M426,180.71s10.37,29.45,11.72,57.73,4.65,57.73,4.65,57.73a18.52,18.52,0,0,1,3.1,12.4s7,7.16,6.4,14.72c0,0,11.43,34.87,10.07,63.15a37.13,37.13,0,0,1-23.44,9.11s-28.28-68.77-29.83-78.07-6.2-26.93-6.2-26.93l-3.68,19.57s1.55,7.55-.78,13.56c0,0,1.55,9.3,0,15.11,0,0-3.87,47.46-6.39,60,0,0-20.34,2.52-29.45,1.94,0,0-1.93-72.65-2.9-89.89s14.28-105.58,21.83-117.2l.83-9.27Z"/><path class="cls-25" d="M433.07,206.39A246.74,246.74,0,0,0,426,180.71l-44.07,3.71-.56,6.27a44.24,44.24,0,0,0,17,5.66C407.8,197.28,422.61,208.81,433.07,206.39Z"/><line class="cls-26" x1="396.22" y1="230.88" x2="397.62" y2="185.46"/><path class="cls-26" d="M393,186.11s-.22,14.89-.43,18.09,1.15,5,4.31,6.13"/><line class="cls-26" x1="389.32" y1="220.75" x2="409.66" y2="218.14"/><line class="cls-26" x1="391.21" y1="223.08" x2="410.28" y2="223.08"/><path class="cls-27" d="M386.22,184.06l-4.34.36-.83,9.27a31.36,31.36,0,0,0-2.74,6.42C383.93,198.68,385.7,188.77,386.22,184.06Z"/><path class="cls-27" d="M432.29,203c-3.1-13.06-6.34-22.27-6.34-22.27l-11.62,1,.58,2.73s2.21,18.22,17.38,18.56Z"/><path class="cls-28" d="M361.93,162.49l-4.7,22.38-26.59,46.21s-6.1,7.94-9,12.2-4,5.52-3.1,5.72,5.14-4.36,5.14-4.36-1.35,8.42-1.4,11.33,1.2,2.42,1.5,1.36,2-10,2-10,1.45,11.25,2.91,10.81.09-10.81.09-10.81,1.75,4.94,3.88,6.39,2.9-.58,2.61-.77l-2.42-1.75-1.07-4.06s4.56,4.84,5,4.36-2.81-5.24-2.81-5.24A14.5,14.5,0,0,0,338.1,237s29.32-32.73,35.45-44,10.17-26.83,10.17-26.83Z"/><path class="cls-29" d="M383.72,166.18l-21.79-3.69-2.4,11.44a16.42,16.42,0,0,0,7.63,5.62c3.94,1.38,7.69,2.64,10.42,4.87A159,159,0,0,0,383.72,166.18Z"/><path class="cls-30" d="M407.36,77.07c7.16,1.55,12.69,2.61,12.88,8.52s-.39,11.14,2.52,13.46,6.68,1.65,6.68,7.17.29,5.43,3.1,8.43,1.07,8,1.07,8l1.35,4.07-54.43,2.71s-1-5.81.87-9.69a22.56,22.56,0,0,0,2.52-11c0-4.46-.39-6.3,2.71-10.07s4.37-8.84,3.49-11.34C386.8,77.94,400.77,71.84,407.36,77.07Z"/><path class="cls-31" d="M385.35,120.07c-9.67,3.78-13.44,7.12-16.93,14.53s-11.19,31.82-11.19,31.82,18.6,10,31.38,6.25Z"/><path class="cls-32" d="M373.65,148.7c-1.45,6.67.43,18.09-.54,23.66,5.13,1.2,10.72,1.72,15.5.31l-1.69-27.29-8.76-10.73A89.11,89.11,0,0,0,373.65,148.7Z"/><path class="cls-33" d="M388.35,168.4c-9.2,2.64-24.55-3.55-29.86-5.91-.78,2.41-1.26,3.93-1.26,3.93s18.6,10,31.38,6.25Z"/><path class="cls-31" d="M393.17,119.2a10.6,10.6,0,0,0-5.28,0c-2.62.78-4.07.49-6.88,8.14s-6.78,14.62-3.78,21S383,161.05,382,167.15s-1.94,13.75-2.71,16.46,1.74,4.46,12.1,4.17,28.39-2.32,33.23-4.07,5.62-3.39,4.55-6.39-2-2.81-2.23-7.85,4-18.21,6.49-23.44-11.23-22.76-11.62-29.93a23.12,23.12,0,0,0-6.2.49C413.5,117.28,393.17,119.2,393.17,119.2Z"/><path class="cls-29" d="M412.44,99.22s1.75-2.25,2.91-1.45-2.15,6.12-3.84,5.57S412.44,99.22,412.44,99.22Z"/><path class="cls-29" d="M396,95.86s-.92-2.47-2.13-2.18-.72,6.29.25,7,2.08-2.32,2.08-2.32Z"/><path class="cls-28" d="M397.62,104.82s-.41,11-1.4,12.35c-.62.81-3.15,1.61-5,2.11a2.69,2.69,0,0,0-2,2.93c.41,3.28,2.31,8.65,10.46,7.92a17.89,17.89,0,0,0,14.89-10.22,1.88,1.88,0,0,0-1.32-2.67c-1.23-.25-2.56-.78-2.89-1.89-.66-2.18-.51-11.19-.51-11.19Z"/><path class="cls-29" d="M410,111.84h0c-.17-3.37-.1-7.67-.1-7.67l-12.28.66s-.09,2.44-.29,5.17a10.2,10.2,0,0,0,2.55,2.71C403.43,115.28,406.88,114.31,410,111.84Z"/><path class="cls-28" d="M429.62,108.12s16.71-15.93,18.74-19.48c0,0,1.73-43.13,0-47s-8.16-8.12-7.49-10.48,2.54,2.2,3.72,1.69-1.35-11.33-.17-11.33,2,9.3,3.05,9.13-.4-10.48.67-10.49c1.68,0,1.68,10.14,2.54,10.15.63-.12-.32-9,1.37-9s.25,9,.93,9.52c1,.15,1.68-5,2.36-4.87s-.46,4.79-.29,6.65,1.21,6.18-.31,7.87c3.72,9.47,13.87,41,11.5,50s-22.66,41.85-22.66,41.85l-10.66,6.89-8.79-3.55S425.6,112,429.62,108.12Z"/><path class="cls-29" d="M455,113h0s-11.43,19.27-16.85,15.36c-4.38-3.16-5.16-17.72-3.27-25.39-3,2.93-5.27,5.11-5.27,5.11-2.39,2.31-3.88,11.63-4.7,18.8l6.82,11.81,1.18.47,10.66-6.89S449.29,123.07,455,113Z"/><path class="cls-29" d="M462.93,91.69c-.69,1.36-1.81,2.19-2.5,1.84s-.69-1.75,0-3.11,1.82-2.2,2.51-1.85S463.63,90.32,462.93,91.69Z"/><path class="cls-34" d="M446.2,33.19s.68.82,3,1.06,3.42,2.64,2.57,5.38"/><path class="cls-34" d="M446.72,31.66a18.9,18.9,0,0,1,6.94.37"/><path class="cls-28" d="M407.65,83.27s-1.16,4.94,1.74,8.42,4.17,4.56,4.07,5.72-2.13,8.13-4.94,10.36-5.91,3.1-9.11.78-4.16-6-4.16-9.59a63.87,63.87,0,0,1,.68-8S399.7,84,407.65,83.27Z"/><polyline class="cls-34" points="403.93 95.47 403.11 97.85 404.36 98.21"/><path class="cls-35" d="M399.73,100.49l8.58-.5s-1.24,4.68-3.95,5.25C400.14,106.13,399.73,100.49,399.73,100.49Z"/><path class="cls-36" d="M407.65,83.27s-6.61,1.06-8.79,6.87"/><path class="cls-36" d="M408.31,83.71s-3.49,1.6-5.2,7.34"/><path class="cls-34" d="M398.44,92.68s2.45-1.6,4,.6"/><path class="cls-34" d="M405.71,94.11s2.66-1.74,4.7.54"/><path class="cls-37" d="M426,160.61s-8.71,16.27-11,16.71"/><path class="cls-37" d="M424.5,175.14s-17.67,9.28-22.72,7.51c-2.75-1,5.87-5.82,5.87-5.82"/><line class="cls-37" x1="377.3" y1="136.8" x2="381.37" y2="126.39"/><line class="cls-37" x1="375.61" y1="136.06" x2="377.3" y2="129.08"/><path class="cls-31" d="M419.86,116.31c3.68-1.37,6.89-6.62,10.36-8.56,0,0-4.48,3.8,1,20s16.15-1.35,16.24-2.71a26.49,26.49,0,0,1-2.54,7.53c-1.77,3-10.19,9.69-12.2,13.81s-9.28.14-10.46-7S419.86,116.31,419.86,116.31Z"/><path class="cls-33" d="M431,127.11c-4.59-16.52-.79-19.36-.79-19.36a18.92,18.92,0,0,0-3.89,3.26c-.91,4.61-.48,11.17,1.6,18.63,2.63,9.44,10.77,8.34,16.69,3.4a3.85,3.85,0,0,0,.31-.43,26.49,26.49,0,0,0,2.54-7.53C447.38,126.44,435.19,142.2,431,127.11Z"/><path class="cls-38" d="M447.47,125.08c-.07,1-7.2,10.9-12.76,8.32,3.69,1.86,9.08-.27,10.6-1.49A28.48,28.48,0,0,0,447.47,125.08Z"/><path class="cls-34" d="M326,243.72s6.47.72,7.78-7.27"/><path class="cls-25" d="M396.22,230.88s-5.43,7.75-4.65,24.8,2.52,32.74-1,41.07-14.14,17.63-17.05,33.71c-2.76,15.27-4.81,20.66-13,15,.82,25.84,1.6,55.28,1.6,55.28,9.11.58,29.45-1.94,29.45-1.94,2.52-12.59,6.39-60,6.39-60,1.55-5.81,0-15.11,0-15.11,2.33-6,.78-13.56.78-13.56l3.68-19.57Z"/><line class="cls-26" x1="384.59" y1="297.33" x2="375.1" y2="309.92"/><line class="cls-26" x1="389.63" y1="307.79" x2="377.04" y2="315.87"/><path class="cls-39" d="M426,204.62l9.27,92.71s5.27,5.61,4.14,10.46c0,0,4.89,10.19,6.77,19.74s9.8,52.08,9.8,52.08"/><line class="cls-26" x1="440.29" y1="294.13" x2="425.95" y2="304.21"/><line class="cls-26" x1="428.18" y1="306.15" x2="441.87" y2="302.37"/><path class="cls-27" d="M435,387c2.14,5.25,3.5,8.56,3.5,8.56a37.13,37.13,0,0,0,23.44-9.11c.17-3.55.14-7.2-.05-10.88C450.35,387.23,439.77,387.62,435,387Z"/><path class="cls-27" d="M361.89,392.34c.15,5.22.23,8.44.23,8.44,9.11.58,29.45-1.94,29.45-1.94.46-2.32,1-5.82,1.5-10Z"/><path class="cls-37" d="M422,137.34s-.38,9.63,8.57,10.71"/><path class="cls-37" d="M416.37,136.06s2.89,8.36,9.51,12"/><line class="cls-34" x1="391.96" y1="121.53" x2="397.33" y2="121.53"/><path class="cls-1" d="M227.63,437.74c-.91,12.17-7.27,22-14.21,22s-11.82-9.86-10.91-22,7.27-22,14.2-22S228.54,425.57,227.63,437.74Z"/><path class="cls-1" d="M305.08,443.31c-2.42,5-13.28,4.85-24.27-.42s-17.92-13.64-15.5-18.68,13.29-4.85,24.27.42S307.5,438.27,305.08,443.31Z"/><path class="cls-40" d="M268.87,421.36c-.59,2.75-.95,5.67-.37,7.8s3,2.81,6.2,3.56,4.78,1.28,7.37,3.65,8.45,7.95,14.95,7.7,7.11-2.1,7.11-2.1v-5.61Z"/><path class="cls-25" d="M285.27,393.11s-2.09,16-1.62,19.1,5.6,10.15,7.41,11.66,13.1,9.87,13.08,12.49-2.74,6.87-10.26,3.8-9.52-7.73-13.59-9.19-10.37-2.26-11.2-7,2.51-9,2.19-12.71-1.62-18.81-1.62-18.81Z"/><path class="cls-5" d="M280.29,431c-4.08-1.47-10.37-2.26-11.2-7s2.51-9,2.19-12.71c-.09-1-.25-3-.45-5.2,4.6,1.37,9.82.7,13,0a35.53,35.53,0,0,0-.19,6.12c.46,3.14,5.6,10.15,7.41,11.66s13.1,9.87,13.08,12.49-2.74,6.86-10.26,3.8S284.36,432.43,280.29,431Z"/><path class="cls-40" d="M225.78,418.52s1,5.88.6,7.19-3.14,3.78-2.57,7.25,2.92,6.43,1.8,12.81-7.76,7.61-10.68,7.89-10.27-2.8-9.91-12.05S225.78,418.52,225.78,418.52Z"/><path class="cls-25" d="M224.85,395.82s-.58,11.71-.57,15,2.56,7,1.18,11.33-2.76,5.73-2,9.35,3.82,9.67,1.49,12.94-8.87,5.3-11.55,4.65-8.88-.4-8.28-9.12,3.9-10.21,3.88-16.76,2.4-13.49,3.17-15.84.43-11.33.43-11.33Z"/><path class="cls-5" d="M209,423.17c0-6.55,2.4-13.49,3.17-15.84.23-.71.16.78.23-.71,4.25,2,9.08,1,12-.08-.12,2.86-.1,2.87-.1,4.24,0,3.26,2.56,7,1.18,11.33s-2.76,5.73-2,9.35,3.82,9.67,1.49,12.94-8.87,5.3-11.55,4.65-8.88-.4-8.28-9.12S209,429.72,209,423.17Z"/><path class="cls-41" d="M283.59,204.12l-56.77,3.52s-10.18,33-10.21,61,1.13,37.92-2.18,50.07-9,29.6-2.88,80.51l14.06-.87s13.38-73.11,16.61-91,14.2-64.21,14.2-64.21,5,76.22,7.39,97.24,3.74,55.88,3.74,55.88l18.65-1.16s7.81-36,4.05-61.51-2.23-42.07-.17-55.36C295,246.13,292.75,224.88,283.59,204.12Z"/><path class="cls-42" d="M267.55,396.22s-1.35-34.85-3.74-55.88c-1.55-13.64-4.2-50.53-5.87-74.75,1,9.11,4.72,35.3,13.55,38.18,6.09,2,12.52,7.64,17.23,16.84.36,4.05.86,8.34,1.53,12.94,3.76,25.55-4.05,61.51-4.05,61.51Z"/><path class="cls-42" d="M220.46,233.85c2.89-14.94,6.36-26.21,6.36-26.21l56.77-3.52a102.57,102.57,0,0,1,8.3,30.49c-7.16.29-17.83.35-21-1.58-4.89-3-7.18-2.05-21.87-2.59C242.55,237.47,226.66,235.1,220.46,233.85Z"/><line class="cls-43" x1="256.42" y1="243.1" x2="255.86" y2="211.2"/><path class="cls-43" d="M261.38,210.86s-.53,11.79-.35,17.57a6.69,6.69,0,0,1-4.78,7"/><line class="cls-43" x1="264.8" y1="242.58" x2="242.38" y2="237.68"/><line class="cls-43" x1="270.3" y1="237.76" x2="252.65" y2="237.05"/><path class="cls-44" d="M182.27,142.5c-.75-5.2,11.25-19.08,15-22.45s8.35,1.64,8.35,1.64l-2.35,32.67-12.19,4.12Z"/><path class="cls-24" d="M195.4,140.27s1.31-31,0-32.91-9.72-6.73-10.69-11.39c-.75-3.61,4,3.61,5.64,4.17,0,0-5.83-9.66-4.7-10.5s4.68,7.13,6.09,7.88c0,0-2.25-5.66-2.81-7.94s.09-3.31.75-3.5,1.22,6.09,3.94,9.37c0,0-1.6-8.34.09-8.81s.6,6.19,2.27,8.06a14.41,14.41,0,0,0,3.64,2.91s-.14-7.21.79-7,.89,2.43,1.36,3.83,2.91,7,.38,11.63l4.59,23.15Z"/><path class="cls-39" d="M194.49,98.7s5-1.56,5.29,8"/><path class="cls-25" d="M203.66,113.66l3.08,15.54L195.4,140.27s.27-6.39.44-13.54C203.17,124.15,203.66,113.66,203.66,113.66Z"/><path class="cls-35" d="M247.33,114.45s-4.71.74-6,2.32c-3.37,4.21-3.44,92.9-3.44,92.9s17.56,6.38,34.88-2.25c0,0-2.56-87.29-3.87-89.68s-6.71-3.29-6.71-3.29Z"/><path class="cls-45" d="M278.07,197.93s-18.52,10.8-33.71,3.87"/><path class="cls-46" d="M245.34,198.8c-.37-3.57.71-5.82-1-9.57s-2.23-64-2.23-64l-2.16-.47c-2,22.66-2.05,84.94-2.05,84.94a42.65,42.65,0,0,0,8.37,1.84C245.08,207.15,245.63,201.68,245.34,198.8Z"/><path class="cls-45" d="M235.32,188.48s15.47,10.32,20,7.32"/><path class="cls-45" d="M272.8,127.75s-16.71,13-21.92,12.5"/><line class="cls-45" x1="270.2" y1="134.01" x2="261.84" y2="142.55"/><path class="cls-44" d="M327.42,142.5c.75-5.2-11.24-19.08-15-22.45s-8.35,1.64-8.35,1.64l2.35,32.67,12.18,4.12Z"/><path class="cls-24" d="M314.09,140.55s-1.58-31-.28-32.9,9.66-6.82,10.59-11.49c.72-3.61-3.93,3.65-5.6,4.22,0,0,5.74-9.7,4.6-10.54s-4.62,7.17-6,7.93c0,0,2.2-5.67,2.74-8s-.12-3.31-.78-3.49-1.16,6.1-3.85,9.41c0,0,1.52-8.36-.17-8.82s-.55,6.2-2.2,8.09a14.42,14.42,0,0,1-3.62,2.93s.08-7.2-.85-7-.87,2.43-1.33,3.84-2.49,6.23-.78,10.57a4.36,4.36,0,0,1,.24,2.45l-4.13,21.81Z"/><path class="cls-39" d="M314.64,99s-5-1.52-5.22,8"/><path class="cls-25" d="M305.6,114l-3,15.57,11.44,11s-.32-6.38-.56-13.53C306.18,124.51,305.6,114,305.6,114Z"/><path class="cls-8" d="M226.6,112.81a212.25,212.25,0,0,0,52.87,0,10.43,10.43,0,0,0-2-7.89c-2.86-4.1-1.43-7.89-2.66-10.24s-4.1-2.57-5.12-7.89-5.19-13.94-16.63-13.94S238.59,82,237.77,85.56s-2.36,4-3.48,7.48S234,98,232.54,99.9,225.78,107.89,226.6,112.81Z"/><path class="cls-25" d="M247,95.26s-.9-3.9-2.47-3.67c-2.44.36-.22,5.8,1.83,5.86C247.36,97.48,247.22,96.52,247,95.26Z"/><path class="cls-25" d="M262.79,95.26s.91-3.9,2.47-3.67c2.45.36.23,5.8-1.82,5.86C262.47,97.48,262.61,96.52,262.79,95.26Z"/><path class="cls-24" d="M248.42,100s-.57,15.1-1.63,15.48-4,.46-4.13,2.54,4.26,15.29,11.77,15.29,10.82-13.6,11.2-15.14-3.53-3-4.22-3.74-.54-14.86-.54-14.86Z"/><path class="cls-25" d="M260.88,107c-.05-3.69,0-7.37,0-7.37l-12.45.43s-.09,2.41-.27,5.34c1.07,1.93,3.22,5,6.28,5.25S259.73,108.51,260.88,107Z"/><path class="cls-24" d="M248.05,86.56c2.61-.43,7.07-1.49,9.82-3.87-3,4.84-4.81,5.84-4.81,5.84s4.2.61,7.73-4.07c.42,2.41,1,5.39,2.46,6.8a1.39,1.39,0,0,1,.41,1.25c-.51,3-2.74,13-9.47,12.7C248,104.9,246.9,99,246.52,96c-.24-1.81-.4-4.9-.48-7A2.4,2.4,0,0,1,248.05,86.56Z"/><path class="cls-25" d="M251.66,95.7A1.76,1.76,0,1,1,249.9,94,1.76,1.76,0,0,1,251.66,95.7Z"/><path class="cls-47" d="M254.43,90.92c0,.12,0,1.31,0,2.14a1.38,1.38,0,0,0,.65,1.16c.36.22.73.48.69.62s-1.35.69-1.35.69"/><path class="cls-47" d="M250.88,96.57s3.84,1.85,7.28.21"/><path class="cls-47" d="M253.08,100.35a6.46,6.46,0,0,1,2.71,0"/><ellipse class="cls-7" cx="251.37" cy="91.03" rx="0.69" ry="1.08"/><ellipse class="cls-7" cx="257.49" cy="91.03" rx="0.69" ry="1.08"/><path class="cls-47" d="M249.57,87.66a2.92,2.92,0,0,1,3.54,0"/><path class="cls-47" d="M259.32,87.66a2.91,2.91,0,0,0-3.53,0"/><line class="cls-48" x1="236.51" y1="99.15" x2="233.67" y2="111.29"/><line class="cls-48" x1="241.92" y1="100.02" x2="240.27" y2="111.29"/><line class="cls-48" x1="271.79" y1="99.15" x2="274.63" y2="111.29"/><line class="cls-48" x1="266.38" y1="100.02" x2="268.02" y2="111.29"/><path class="cls-39" d="M246.57,116.77s3.86,1.4,6.11.84"/><path class="cls-49" d="M262.22,114.45s5.16,3.72,5.58,13.28,1,33.61.7,43.32a146.58,146.58,0,0,0,.71,21.09c.56,5.49-1,13.92.84,20.39a61,61,0,0,1,1.83,14.2l24.89-.7a20.93,20.93,0,0,0-1-8.72c-1.54-4.08-.14-7.17-1.82-11.95s-1.69-8.16-2.11-12.8S288.61,177,288.61,177s9.42,14.49,19.55,13.78,9.42-12.93,10.27-16.17,3.65-4.92,4.64-8,0-8.44.7-12.1,2.81-7.45,3.65-11.95c0,0-2.24,3.52-10.26-3.52s-13.08-17.29-13.08-17.29L299.72,145s-7.87-17.72-13.36-23.2S262.22,114.45,262.22,114.45Z"/><line class="cls-50" x1="299.72" y1="145.03" x2="297.24" y2="158.48"/><line class="cls-50" x1="297.24" y1="148.69" x2="292.69" y2="160.08"/><path class="cls-51" d="M292.69,148.69c.62-1,1.3-2.19,2-3.35a10.54,10.54,0,0,0,.26-10.2,78.46,78.46,0,0,0-7.32-11.92c.25,6.85-3.13,19.89-2.22,24.76l3.23,29a47.46,47.46,0,0,0,6.3,7.47,89.54,89.54,0,0,0-1.05-13.83C292.36,162.07,290.3,152.67,292.69,148.69Z"/><line class="cls-50" x1="304.93" y1="157.83" x2="312.1" y2="170.59"/><line class="cls-50" x1="305.97" y1="147.98" x2="310.27" y2="153.47"/><line class="cls-50" x1="283.97" y1="135.33" x2="287.58" y2="167.66"/><line class="cls-50" x1="289.32" y1="133.78" x2="286.64" y2="146.72"/><path class="cls-52" d="M277.36,188.48l12,7.46s2.19,12.23-3.55,11.39S276.94,199.31,277.36,188.48Z"/><line class="cls-53" x1="276.05" y1="207.37" x2="283.97" y2="214.36"/><path class="cls-50" d="M267.38,118.88s11.81,8.43,11.39,12.65-6,19.2-6,19.2,5.83,3.3,5.13,9.35-7.73,20-7.73,20"/><path class="cls-49" d="M247.47,114.45s-5.15,3.72-5.57,13.28-1,33.61-.71,43.32a146.87,146.87,0,0,1-.7,21.09c-.56,5.49,1,13.92-.84,20.39a61,61,0,0,0-1.83,14.2l-24.89-.7a21,21,0,0,1,1-8.72c1.55-4.08.14-7.17,1.83-11.95s1.69-8.16,2.11-12.8S221.08,177,221.08,177s-9.42,14.49-19.54,13.78-9.42-12.93-10.27-16.17-3.65-4.92-4.64-8,0-8.44-.7-12.1-2.81-7.45-3.66-11.95c0,0,2.25,3.52,10.27-3.52s13.08-17.29,13.08-17.29L210,145s7.87-17.72,13.35-23.2S247.47,114.45,247.47,114.45Z"/><line class="cls-50" x1="209.98" y1="145.03" x2="212.46" y2="158.48"/><line class="cls-50" x1="212.46" y1="148.69" x2="217.01" y2="160.08"/><path class="cls-51" d="M217,148.69c-.62-1-1.3-2.19-2-3.35a10.57,10.57,0,0,1-.25-10.2,77.67,77.67,0,0,1,7.32-11.92c-.25,6.85,3.12,19.89,2.22,24.76l-3.24,29a47,47,0,0,1-6.29,7.47,89.48,89.48,0,0,1,1-13.83C217.33,162.07,219.4,152.67,217,148.69Z"/><line class="cls-50" x1="204.77" y1="157.83" x2="197.6" y2="170.59"/><line class="cls-50" x1="203.73" y1="147.98" x2="199.43" y2="153.47"/><line class="cls-50" x1="225.73" y1="135.33" x2="222.12" y2="167.66"/><line class="cls-50" x1="220.38" y1="133.78" x2="223.05" y2="146.72"/><path class="cls-52" d="M232.33,188.48l-12,7.46s-2.2,12.23,3.54,11.39S232.76,199.31,232.33,188.48Z"/><line class="cls-17" x1="233.65" y1="207.37" x2="225.73" y2="214.36"/><path class="cls-50" d="M242.32,118.88s-11.81,8.43-11.39,12.65,6,19.2,6,19.2-5.83,3.3-5.13,9.35,7.73,20,7.73,20"/><line class="cls-43" x1="281.87" y1="304.85" x2="272.07" y2="313.14"/><line class="cls-43" x1="280.83" y1="311.42" x2="274.2" y2="315.36"/><path class="cls-43" d="M221.18,303.54s11.77,6.06,14.47,5.89"/><line class="cls-43" x1="223.88" y1="309.26" x2="232.36" y2="311.76"/><path class="cls-1" d="M545.28,437.67c.38,2.66-10.33,6.39-23.92,8.34s-24.93,1.35-25.31-1.31,10.34-6.4,23.93-8.34S544.9,435,545.28,437.67Z"/><path class="cls-1" d="M584.63,437.67c-.38,2.66,10.34,6.39,23.93,8.34s24.92,1.35,25.3-1.31-10.33-6.4-23.92-8.34S585,435,584.63,437.67Z"/><path class="cls-54" d="M539.85,394.58s-2.12,18.1-1.07,24.21,2.25,14.2,1.84,17.15c0,0-10.17,2.82-16.92,3.32s-19.6,7.23-23.06-.3l11.72-7.52,10.33-8.81a5.6,5.6,0,0,0,1.91-4.79l-2.19-23.49Z"/><path class="cls-5" d="M523.7,439.26c6.75-.5,16.92-3.32,16.92-3.32.28-2-.19-6.36-.84-10.87-3.53,1.9-9.3,4.53-11.43,2.64a63.44,63.44,0,0,0-6.23-4.58l-9.76,8.31L500.64,439C504.1,446.49,516.94,439.76,523.7,439.26Z"/><path class="cls-55" d="M523.48,405.8l15.33.2c.4-5.95,1-11.42,1-11.42l-17.44-.23Z"/><path class="cls-54" d="M591.81,395.26s1.64,18.15.43,24.23-2.62,14.14-2.28,17.1c0,0,10.08,3.08,16.82,3.76s19.41,7.74,23.07.31l-11.53-7.83-10.1-9.07a5.63,5.63,0,0,1-1.78-4.85l2.81-23.42Z"/><path class="cls-5" d="M606.78,440.35c-6.74-.68-16.82-3.76-16.82-3.76-.23-2,.35-6.36,1.12-10.85,3.48,2,9.18,4.77,11.36,2.94a64.62,64.62,0,0,1,6.35-4.42l9.53,8.57,11.53,7.83C626.19,448.09,613.53,441,606.78,440.35Z"/><path class="cls-55" d="M607.88,406.9l-15.33-.2c-.24-5.95-.74-11.44-.74-11.44l17.44.23Z"/><path class="cls-5" d="M542.57,38.46s9-5.22,17.5-1.87,6.91,8,9.7,10.39.78,4.72.33,6.7,1.08,5.56-.51,7.32-1.44,5.42-4,6.91-1.42,4.53-4.88,5.53-3.29,3.1-5.49,3.7-4.11,2-7.36,2.62-10.27.39-11.19-1.09-4.37-1.51-5.07-4-3.12-2.17-4.55-4.56-3-2.82-4.23-4.83-2.28-1.6-2.89-3.17,2.28-5.62,2.34-10.23S530.18,33.17,542.57,38.46Z"/><path class="cls-55" d="M538.27,64.4s-1.59-3.29-3.22-2.68-1.84,7.11,3.72,6.23Z"/><path class="cls-55" d="M556.53,63.47s1.67-3.24,3.29-2.59S561.48,68,555.94,67Z"/><path class="cls-55" d="M506.49,221.38l7.38,9.29s5.31-9.94,6.06-14.29l-4.06-9.11S507.31,216.43,506.49,221.38Z"/><path class="cls-15" d="M517.81,165l-8.7,19.22,8.11,25.41a33,33,0,0,0-11.42,17.15,26.33,26.33,0,0,1-7.81-8c-3.21-5.23-8.95-4.85-10.24-10.28s-7.54-8-7.69-17.54,7.58-36.59,10.47-48.65,4.75-29,19.8-42.17C510.33,100.13,520.07,143,517.81,165Z"/><path class="cls-56" d="M517.22,209.64l-8.11-25.41,8.7-19.22c.83-8.1,0-19-1.3-29.61l-5.92-13.61s-.26,16.78-4.49,27.32S500.17,160,497.63,168c-2.35,7.41-9.23,20.77-17,16.34a41.79,41.79,0,0,0-.6,6.58c.15,9.56,6.39,12.1,7.69,17.54s7,5,10.24,10.28a26.33,26.33,0,0,0,7.81,8A33,33,0,0,1,517.22,209.64Z"/><path class="cls-57" d="M602,216.68s5.79,10.5,7.93,35.72,4.51,44.82,7,58.3-1.37,18.55-.35,26.44,2.09,15,.65,23.23-1.55,17.3-1.65,24.39-1.34,16.52-1.34,16.52l-30-.4s-.53-18.9-3-30.74-3.45-21.7-3-31.14-8.7-25.53-10.08-34.94-5.26-27.57-5.23-30.33-2.82-13.42-2.82-13.42-2.57,16.5-4.16,27.5-.16,16.14-2.54,25.56.88,21.37-1.89,32.36-3.63,19.64-4.86,27.89-.36,26.77-.36,26.77L515,400a144.44,144.44,0,0,0-1.75-20.5c-1.73-10.65-3.18-11.46-2.47-24.05s2.43-15.71.25-27.95-4.14-24.85-3.32-35.08.06-28.34.51-38.57.25-19.46.25-19.46L520,212.61Z"/><path class="cls-58" d="M571.37,234.17c8.25-3.15,12.42-4.54,23.4-5.54a54.35,54.35,0,0,0,10.89-1.82A52.08,52.08,0,0,0,602,216.68l-82-4.07-11.53,21.76s.08,3.87,0,9.37c4.65-1.27,11.45.45,20.05.14,9.64-.35,18.3-4.67,24.41-5.82S563.11,237.31,571.37,234.17Z"/><line class="cls-59" x1="560.14" y1="260.31" x2="562.97" y2="218.52"/><path class="cls-59" d="M568.6,218.6s2.07,18.55-7.64,29.64"/><path class="cls-60" d="M659,121.44c1.25-2.09-1.69-11.39-19-21.86-5.4-3.26-11.86-4.23-12.47-.35s2.82,35.1,2.82,35.1l14.66,5Z"/><path class="cls-54" d="M627.47,110.58s3.76-18.34,2.73-21-7.61-18.24-7.61-18.24,1.74-.6,2.69.49,3.82,5.52,3.82,5.52,1.46-5,2.33-7.87,3.88-10.1,4.07-10.38,1.93.73,1.51,2.6-2.45,6.9-1.68,10.95l8.12-11.48a2.89,2.89,0,0,1,0,3.24c-1.07,2-3.67,8.94-3.67,8.94L649.4,66a2.44,2.44,0,0,1-.26,2.64c-1,1.27-5.81,4.37-6.44,6.36L651.39,71a3,3,0,0,1-1.23,3c-1.64,1.07-5.84,2.27-6.32,3.83s1.45,8.92-2,12.78l-1.1,26.86Z"/><path class="cls-55" d="M641.37,103.28a18.91,18.91,0,0,1-11.32-7.89c-.76,6.29-2.58,15.19-2.58,15.19l13.32,6.86Z"/><path class="cls-61" d="M630.92,77.71s8.25,1,6.89,10.55"/><path class="cls-15" d="M659,121.44c-3.27,2.14-7.1,1.47-10.93-.64a3.79,3.79,0,0,0-5.27,1.66l-3.89,8.14,2.56-12.16a3.82,3.82,0,0,0-1.09-3.54,100.76,100.76,0,0,1-12.87-15.67l-4.91,31.16S617.39,112,606,101.9,581.11,90.32,573.9,88.08c-3.31-1-11-4-12.34-2.94-2.55,2.18-7.45,4.26-12.25,5.26-9.7,2-10.74-4-12.21-4.17s-26.77,13.9-26.77,13.9c-.69,10.3.5,31.67,2.12,38.45s2.74,20.12,1.7,28-.31,9,1.11,15.39-1.87,13.85-2.34,20.78-.18,14.07-.18,14.07c4.51-1.07,10.66,2.2,19.27,3.74s17.07-.45,22.69-.26,9.17,1.31,17.06.23,11.83-1.47,21.75-.22,12.19.16,12.19.16c.62-4.11-2.85-11.28-2.8-17.66s-3.22-9.79-2.21-15.22-1.5-6.72-1.73-10.8.6-13.5.6-13.5,21.15,16.88,33.64,19.15,16.34-12.86,16.54-17.36,2.17-14.88,3.46-16.83a14.78,14.78,0,0,0,2-10.81C654.25,132.35,659,121.44,659,121.44Z"/><path class="cls-62" d="M542.45,92.3s-1.17,14.14,8.59,21.3c0,0,7.22-7.4,4.37-23.47"/><path class="cls-62" d="M550.19,106.56s1.21,7.52,1.62,12.12,1.13,6.57,1.65,10.42,1,9,1,9"/><path class="cls-35" d="M546.09,116.22a1.3,1.3,0,1,1,1.44,1.14A1.3,1.3,0,0,1,546.09,116.22Z"/><path class="cls-35" d="M547.56,125.52a1.3,1.3,0,1,1,1.44,1.15A1.3,1.3,0,0,1,547.56,125.52Z"/><path class="cls-35" d="M549.14,134.82a1.3,1.3,0,1,1,1.44,1.15A1.29,1.29,0,0,1,549.14,134.82Z"/><path class="cls-62" d="M544.13,165.36s-15,19.54-23.25,24.89"/><line class="cls-62" x1="534.08" y1="180.14" x2="520.77" y2="198.24"/><path class="cls-60" d="M605.7,220.45c.27-1.82-.25-4.23-.92-6.91-3.11.16-7,.15-9.67-.62-5-1.47-14.79-1.61-22,.54s-13.31,0-19.73-.44-14.23,2.44-19.8,1.24c-5.11-1.1-13-5.4-21-4.72,0,4.13.07,7.26.07,7.26,4.51-1.07,10.66,2.2,19.27,3.74s17.07-.45,22.69-.26,9.17,1.31,17.06.23,11.83-1.47,21.75-.22S605.7,220.45,605.7,220.45Z"/><path class="cls-56" d="M623.73,179c-2.18-3.42-3.43-7.61-5.31-10.52-3.47-5.35-4.2-3.77-9.75-11.79s-4.1-10.66-4-21.29-4.86-16.83-4.86-16.83c.69,4.25-.33,8-.9,11.65s-.25,5.48.88,12.39.38,12.38-.27,20.67C599.56,163.27,612.22,173.37,623.73,179Z"/><line class="cls-62" x1="622.63" y1="130.39" x2="619.29" y2="149.75"/><path class="cls-62" d="M648.67,150.14s-3.45,5.72-14.43,6.7"/><path class="cls-62" d="M506.14,183.91s-10.34-2.26-11.88,1,6.88-.82,6.88-.82"/><path class="cls-62" d="M505.61,186.27s-4.11-1.05-7.33,6.41"/><path class="cls-62" d="M510.19,112.3s-1,15.84,2.7,28.31"/><line class="cls-62" x1="515.82" y1="110.89" x2="513.82" y2="134.2"/><line class="cls-59" x1="544.62" y1="266.31" x2="518.86" y2="298.37"/><path class="cls-59" d="M538.37,292.51s-7.26,17.91-14,18.42-8.14-4.66-8.14-4.66"/><line class="cls-59" x1="540.94" y1="311.19" x2="523.49" y2="333.36"/><path class="cls-59" d="M540.38,354.25s-10.6,14.62-12.38,21.39"/><line class="cls-59" x1="578.95" y1="286.84" x2="591.16" y2="299.32"/><path class="cls-59" d="M586.06,302.46s15.7,25.52,25.47,9.66"/><line class="cls-59" x1="607.94" y1="328.26" x2="596.77" y2="343.47"/><path class="cls-59" d="M590.36,360.81s-2.58,3.21,6.07,8.94"/><path class="cls-63" d="M515,400l31.35.41s-.22-4.65-.28-10.33l-31.55.06C515,395.88,515,400,515,400Z"/><path class="cls-63" d="M583.64,390c.43,6.19.57,10.89.57,10.89l30,.4s.74-5.56,1.12-11.35Z"/><path class="cls-62" d="M600.55,105.32s-.23,19.5-1.8,26.48,2.31,10.53,1.63,20.11"/><path class="cls-62" d="M604.48,113.6s.38,11.27-3.93,18.51"/><path class="cls-54" d="M540.08,70.63s.12,14.76-.21,15.7-5.78,3.85-5.78,3.85S539,95,545.65,95.12c0,0,2.65,13.06,5.31,14,2.82-5.85,2.17-15.91,2.17-15.91s7.33-1.63,10.28-5.44a28.45,28.45,0,0,0-6.57-2.61l-1.52-15.15Z"/><path class="cls-55" d="M550.91,83.17a10.77,10.77,0,0,0,5.4-3.25l-1-9.87-15.24.58s0,4.29,0,8.39C542.59,81.45,546.49,84.17,550.91,83.17Z"/><path class="cls-54" d="M544.1,49.33s-1.24,7.21-6.62,9.75c0,0,.78,5,1.44,10s2.72,8.4,8.16,8.58c0,0,7.12-.64,8.56-6.06A55.22,55.22,0,0,0,557,59s-4.08-.27-5-3.1-3.75-.89-4.66-3.52S544.38,52.27,544.1,49.33Z"/><path class="cls-5" d="M541,77a19.13,19.13,0,0,1,.06-4.55c.36-1.49-.68-6.37,4.86-6.93s6.54,1.42,6.68,3.78,1.36,6.3,1.26,7.32-1.54,1.08-1.54,1.08-1,1.63-1.72,1.39-2.36,1.75-4.42.74c-1.76-.87-1.64,0-2.7-1.41C542.66,77.35,540.7,78.65,541,77Z"/><polyline class="cls-64" points="545.63 60.34 545.58 64.03 544.94 65.51 547.14 65.54"/><path class="cls-64" d="M543.77,67.62a7,7,0,0,0,6.4-.23"/><path class="cls-65" d="M530.37,51s-1.29,2.91-2.25,3.63-.45,2.4-1.82,3.64-2.18,4.61-4.33,5.87"/><path class="cls-65" d="M532.73,53.54s-1.29,2.92-2.24,3.64-.45,2.4-1.83,3.64-2.18,4.61-4.33,5.87"/><path class="cls-65" d="M535.12,56.17s-1.29,2.91-2.24,3.63-.45,2.4-1.83,3.64-2.18,4.61-4.33,5.87"/><path class="cls-65" d="M561,49.55a5.17,5.17,0,0,0,1.95,2.54c1.66,1.28,1.1,3.87,3,4.48s2.35,4,3.71,4.43"/><path class="cls-65" d="M559.48,52.24a5.15,5.15,0,0,0,2,2.54c1.65,1.28,1.1,3.87,3,4.48s2.35,4,3.71,4.43"/><path class="cls-65" d="M558.16,54.84a5.17,5.17,0,0,0,2,2.54c1.66,1.28,1.1,3.87,3,4.48s2.35,4,3.71,4.43"/><path class="cls-5" d="M543.69,60.81c0,.69-.37,1.27-.88,1.29s-1-.53-1-1.22.37-1.27.88-1.29S543.67,60.11,543.69,60.81Z"/><path class="cls-5" d="M551.45,60.52c0,.69-.37,1.27-.89,1.29s-.95-.53-1-1.22.38-1.27.89-1.29S551.42,59.83,551.45,60.52Z"/><path class="cls-5" d="M548.3,57.9a6.67,6.67,0,0,1,4.92.09C554.25,56.69,549.11,54.8,548.3,57.9Z"/><path class="cls-5" d="M544.93,57.93a6.68,6.68,0,0,0-4.92.18C539,56.83,544.07,54.85,544.93,57.93Z"/></g></g></svg>