<svg xmlns="http://www.w3.org/2000/svg" viewBox="0 0 35.88 37.25"><defs><style>.cls-1{fill:#ff4817;}</style></defs><title>Asset 5</title><g id="Layer_2" data-name="Layer 2"><g id="Layer_1-2" data-name="Layer 1"><path class="cls-1" d="M1.25,34.9A1.37,1.37,0,0,0,2.8,36.25h8.8v1H.8c-.35,0-.5-.15-.55-.5L.15,36c0-.25-.15-7.25-.15-9.95V2.4C0,2.15.3,2,.55,2l.45,0v22c0,1.9.1,6.5.15,8.8V34Zm.9-.9c0-.25-.15-7.25-.15-9.95V.4c0-.25.3-.4.55-.4L6.6.15l.45.4v1.2C7.05,2.3,6.9,5,6.9,5.5V30.25a.54.54,0,0,0,.4.4h5.9c.15,0,.4.4.4.55v4.05H2.8c-.35,0-.5-.15-.55-.5Z"/><path class="cls-1" d="M25.5,33.34a1.37,1.37,0,0,0,2.05.24l7.25-5,.56.82-8.89,6.12a.49.49,0,0,1-.74-.09l-.51-.57c-.14-.2-4.23-5.88-5.76-8.11L6.05,7.28c-.14-.21,0-.5.22-.64l.4-.22L19.15,24.55c1.07,1.56,3.76,5.3,5.11,7.16l.65.95Zm.23-1.25C25.59,31.89,21.5,26.2,20,24L6.56,4.5c-.14-.21,0-.5.23-.64l3.42-2.18.6.08.68,1c.31.45,1.72,2.76,2,3.17l14,20.39a.54.54,0,0,0,.56.1l4.86-3.34c.12-.09.56.1.64.22l2.3,3.34L27,32.75a.49.49,0,0,1-.74-.1Z"/></g></g></svg>