<svg xmlns="http://www.w3.org/2000/svg" viewBox="0 0 255.54 27.28"><defs><style>.cls-1{fill:#ff4817;}</style></defs><title>Asset 19</title><g id="Layer_2" data-name="Layer 2"><g id="Layer_1-2" data-name="Layer 1"><path class="cls-1" d="M1.84,26.28H3.38s0,.07,0,.14-.18.07-.18.18-.22.29-.4.29A9.62,9.62,0,0,1,1,27H.4C.11,26.78.18,26.24.18,26s-.07-.9-.07-1V11.92C.11,11.63,0,10,0,9.75V2.16c.11-.11.29-.5.4-.5H.72V8.32c0,.14,0,.68,0,1.15s.07.86.07,1V23.54s0,.25,0,.4a3.56,3.56,0,0,1,0,.57v.15a1.49,1.49,0,0,0,.5,1.47Zm-.22-1.77c0-.21-.07-.9-.07-1V10.48c0-.29-.11-1.88-.11-2.16V.72c.11-.11.29-.5.4-.5h5A4.22,4.22,0,0,1,8.75.58a2.11,2.11,0,0,1,.68.57A6.07,6.07,0,0,1,10.8,5.33c0,1,0,3.31,0,4.28,0,.11-.11,1.15-.11,1.26s-.1.76-.1.83a4.07,4.07,0,0,1-2.16,2.59,4.22,4.22,0,0,1-1.51.29c-.29,0-1.66.11-1.91.11l-.11.07c.07,3.35-.14,6.55,0,10.22,0,0-.18.07-.18.18s-.22.29-.4.29a9.62,9.62,0,0,1-1.8.11H1.84C1.55,25.34,1.62,24.8,1.62,24.51ZM4.75,11.38c0,.36,0,.46.33.46,1,0,2.15-.39,2.37-1.44.07-.79.07-1.9.07-2.66,0-1.15,0-1.91-.07-3.17-.11-.93-1-1.29-1.91-1.29-.21,0-.57-.11-.68.28,0,1.12-.11,6.55-.11,7.71Zm.83-6.2V4c.57,0,1.08.21,1.15.61.07,1.26.07,2,.07,3.13,0,.72,0,1.8-.07,2.59v-.07a1.17,1.17,0,0,1-.68.68c0-.61,0-1.26,0-1.76C6.08,8,6.08,7.27,6,6A1.34,1.34,0,0,0,5.58,5.18ZM5.58,16v-.61a1.11,1.11,0,0,0,.36,0l.94-.07a4.13,4.13,0,0,0,.89-.07,3.06,3.06,0,0,1-.82.5A3.46,3.46,0,0,1,5.58,16Z"/><path class="cls-1" d="M18,26.57a5.75,5.75,0,0,0,1.12-.11,4.06,4.06,0,0,1-2.56.82H15.8a2.35,2.35,0,0,1-1.65-.61,5.74,5.74,0,0,1-1.91-2.91,36,36,0,0,1-.61-5.65v-.29c0-1.23.11-6.91.11-8.1a11.74,11.74,0,0,1,1.33-6,15,15,0,0,0-.61,4.57c0,.57,0,2.27,0,4s-.07,3.5-.07,4.11v.32A40.65,40.65,0,0,0,13,22.5a6.35,6.35,0,0,0,2.16,3.27l-.07,0a3.18,3.18,0,0,0,2.19.83Zm-.79-.73a2.31,2.31,0,0,1-1.65-.61,5.74,5.74,0,0,1-1.91-2.91,36,36,0,0,1-.61-5.65v-.29c0-1.23.11-6.91.11-8.1,0-3,.64-8.1,5.14-8.1A4.32,4.32,0,0,1,23,4a3,3,0,0,1,.18.9V18.07L23,20.91c-.21.4-.21.9-.43,1.3-1,2.05-2,3.63-4.54,3.63Zm1-3.23c.94,0,1.23-1,1.23-1.7,0-.43.11-2.34.11-2.73,0-1.12.1-6.48.1-7.67V4.72a1.29,1.29,0,0,0-1.22-1.3h-.11a3,3,0,0,0-.68.22c-.11,0-.51.46-.61.57a1.11,1.11,0,0,0-.11.33c0,.61-.11,3.13-.11,3.74V21.53A1.43,1.43,0,0,0,18.21,22.61ZM17.64,5.08V4.61l.07-.07c.07-.08.07-.18,0-.18a4.91,4.91,0,0,1,.57-.22.58.58,0,0,1,.61.58v5.79c0,.58,0,2.41-.07,3.92s0,3.21,0,3.75c0,.18,0,.72,0,1.29s-.07,1.23-.07,1.44c0,.4-.11,1-.51,1H18c0-.76.11-1.95.11-2.27,0-1.12.1-6.48.1-7.67V6.16A1.35,1.35,0,0,0,17.64,5.08Z"/><path class="cls-1" d="M25.67,3a11.18,11.18,0,0,0-.4,3.14V7.81a10.5,10.5,0,0,0,2.05,4.39l.36.47A25.47,25.47,0,0,0,29.81,15l.79.72,0,0c1.33,1.26,1.87,1.77,1.87,4v1.15a2,2,0,0,1,0,.36v.29a1,1,0,0,1-.69.4v-.76a4.5,4.5,0,0,0-1.36-3.78V16.27l-.62-.54s-.54,0-1.11,0c-.76-.75-1.44-1.62-2.16-2.48a9.92,9.92,0,0,1-1.91-4.07V7.59A7.4,7.4,0,0,1,25.67,3Zm6,23.44c.18,0,.54,0,.9-.08s.65,0,.72,0,.11,0,.15,0a3.26,3.26,0,0,1-1.7.76c-.18,0-1.29.11-1.51.11h-.61a4.25,4.25,0,0,1-3.13-1.26,4.23,4.23,0,0,1-1.69-3.53c0-.29-.11-1.55-.11-1.66V18l.18-.18h.54v1.47a4.64,4.64,0,0,0,0,.62v0c0,.43.07,1,.07,1.12a4.88,4.88,0,0,0,1.94,4h0A5,5,0,0,0,31,26.46ZM31,25.74a4.25,4.25,0,0,1-3.13-1.26A4.23,4.23,0,0,1,26.21,21c0-.29-.11-1.55-.11-1.66V16.56l.18-.18h.5c.79,0,2.67.07,2.67.07l.18.11v3.67c0,.22.07,1,.07,1.22l.11.22a1.86,1.86,0,0,0,1.72.94,1.67,1.67,0,0,0,1.55-.94c0-.11.07-.65.07-.83V19.69c0-2.92-.82-3.24-2.84-5.22a34.82,34.82,0,0,1-2.41-2.7A9.92,9.92,0,0,1,26,7.7V6.16c0-2.42.4-4.72,2.7-5.84.22-.1.83-.32.83-.32h2.34s.9.32,1.22.4a4.07,4.07,0,0,1,1.48.75,5.55,5.55,0,0,1,1.22,3.13V7.81L35.57,8H32.43V4.61s-.18-.65-.28-.87A1.1,1.1,0,0,0,31,3.13c-.5,0-1.4.51-1.4,1.15V7a3.7,3.7,0,0,1,.07.44c.43,1.54,1.62,2.48,2.73,3.52,1.91,1.87,3.89,4.07,4.32,6.81,0,.07.11.57.11.68v1.26c0,2.2-.18,3.46-1.76,5a3.54,3.54,0,0,1-2,.94c-.18,0-1.29.11-1.51.11Zm-.68-21V4.28c0-.25.43-.43.68-.43s.4,0,.43.15a2.34,2.34,0,0,1,.25.68v4h2.63v.54l-.21.18H31.86a7.5,7.5,0,0,1-.87-1V6.05s-.18-.65-.28-.87A.92.92,0,0,0,30.35,4.75Z"/><path class="cls-1" d="M39.67,25.63a1.87,1.87,0,0,0,1.69.79h1.08v0c0,.07-.11.46-.11.57l-.07.11H39.92c-.21,0-.79,0-1-.29v-.68c0-.22.11-1.55.11-1.76,0-1.16.18-6.38.18-7.46V14.51c0-.08.11-.58.11-.65,0-1.3.18-7.09.18-8.35V5.22c0-.18,0-.47-.29-.47H36.72c-.11,0-.29-.11-.4-.11s-.18-.21-.18-.21V1.84s.11-.22.18-.22h.54V4.07L37.62,4a1.41,1.41,0,0,0,.54,0h2.09v0c0,.57,0,2.55-.08,4.14,0,1.76-.1,3.56-.1,4.21a.84.84,0,0,0,0,.14,2,2,0,0,0-.07.51v2.44c0,.54,0,2.09-.07,3.64s-.11,3.24-.11,3.82c0,0,0,.43-.07.82s0,.83,0,.94Zm.72-.9c0-.22.11-1.55.11-1.76,0-1.16.18-6.38.18-7.46V13.07c0-.07.11-.58.11-.65,0-1.3.18-7.09.18-8.35V3.78c0-.18,0-.47-.29-.47H38.16c-.11,0-.29-.11-.4-.11S37.58,3,37.58,3V.4s.11-.22.18-.22h.51c.65,0,6.3.11,7,.11h1.66c.1,0,.39.11.5.11l.07.1V3.38H44.39l-.11.11-.11.29V16.09c0,.79-.29,7.45-.29,8.24V25c0,.07-.11.47-.11.57l-.07.11H41.36c-.21,0-.79,0-1-.29Zm4.5-19.91V4.1H46v.72Z"/><path class="cls-1" d="M48.71,3a11.18,11.18,0,0,0-.4,3.14V7.81a10.5,10.5,0,0,0,2,4.39l.36.47A27,27,0,0,0,52.85,15l.79.72,0,0c1.34,1.26,1.87,1.77,1.87,4v1.15a2,2,0,0,1,0,.36v.29a1,1,0,0,1-.69.4v-.76a4.5,4.5,0,0,0-1.36-3.78V16.27l-.62-.54s-.54,0-1.11,0c-.76-.75-1.44-1.62-2.16-2.48a9.92,9.92,0,0,1-1.91-4.07V7.59A7.4,7.4,0,0,1,48.71,3Zm6,23.44c.18,0,.54,0,.9-.08s.65,0,.72,0,.11,0,.15,0a3.26,3.26,0,0,1-1.7.76c-.18,0-1.29.11-1.51.11h-.61a4.25,4.25,0,0,1-3.13-1.26,4.26,4.26,0,0,1-1.69-3.53c0-.29-.11-1.55-.11-1.66V18l.18-.18h.54v1.47a4.64,4.64,0,0,0,0,.62v0c0,.43.07,1,.07,1.12a4.88,4.88,0,0,0,1.94,4h0a4.91,4.91,0,0,0,3.63,1.44Zm-.61-.72a4.25,4.25,0,0,1-3.13-1.26A4.26,4.26,0,0,1,49.25,21c0-.29-.11-1.55-.11-1.66V16.56l.18-.18h.5c.79,0,2.67.07,2.67.07l.18.11v3.67c0,.22.07,1,.07,1.22l.11.22a1.86,1.86,0,0,0,1.72.94,1.67,1.67,0,0,0,1.55-.94c0-.11.07-.65.07-.83V19.69c0-2.92-.82-3.24-2.84-5.22a34.82,34.82,0,0,1-2.41-2.7A9.92,9.92,0,0,1,49,7.7V6.16c0-2.42.4-4.72,2.7-5.84.22-.1.83-.32.83-.32H54.9s.9.32,1.22.4a4.07,4.07,0,0,1,1.48.75,5.55,5.55,0,0,1,1.22,3.13V7.81L58.61,8H55.47V4.61s-.18-.65-.28-.87a1.1,1.1,0,0,0-1.12-.61c-.5,0-1.4.51-1.4,1.15V7a3.7,3.7,0,0,1,.07.44c.43,1.54,1.62,2.48,2.73,3.52,1.91,1.87,3.89,4.07,4.32,6.81,0,.07.11.57.11.68v1.26c0,2.2-.18,3.46-1.76,5a3.54,3.54,0,0,1-2,.94c-.18,0-1.29.11-1.51.11Zm-.68-21V4.28c0-.25.43-.43.68-.43s.4,0,.43.15a2.34,2.34,0,0,1,.25.68v4h2.63v.54l-.21.18H54.9a7.5,7.5,0,0,1-.87-1V6.05s-.18-.65-.28-.87A.86.86,0,0,0,53.39,4.75Z"/><path class="cls-1" d="M70,26.28h1.55a.78.78,0,0,1,0,.14s-.18.07-.18.18-.21.29-.39.29a9.73,9.73,0,0,1-1.8.11h-.65c-.29-.22-.22-.76-.22-1.05s-.07-.9-.07-1V11.92c0-.29-.11-1.88-.11-2.17V2.16c.11-.11.29-.5.4-.5h.32V8.32c0,.14,0,.68,0,1.15s.07.86.07,1V23.54s0,.25,0,.4a4.73,4.73,0,0,1,0,.57v.15a1.5,1.5,0,0,0,.51,1.47Zm-.22-1.77c0-.21-.07-.9-.07-1V10.48c0-.29-.11-1.88-.11-2.16V.72c.11-.11.29-.5.4-.5h5a4.22,4.22,0,0,1,1.87.36,2,2,0,0,1,.68.57A6,6,0,0,1,79,5.33c0,1,0,3.31,0,4.28,0,.11-.11,1.15-.11,1.26s-.11.76-.11.83a4,4,0,0,1-2.16,2.59,4.18,4.18,0,0,1-1.51.29c-.29,0-1.66.11-1.91.11l-.11.07c.07,3.35-.14,6.55,0,10.22,0,0-.18.07-.18.18s-.21.29-.39.29a9.73,9.73,0,0,1-1.8.11H70C69.73,25.34,69.8,24.8,69.8,24.51Zm3.14-13.13c0,.36,0,.46.32.46,1,0,2.16-.39,2.37-1.44.08-.79.08-1.9.08-2.66,0-1.15,0-1.91-.08-3.17-.1-.93-1-1.29-1.9-1.29-.22,0-.58-.11-.69.28,0,1.12-.1,6.55-.1,7.71Zm.82-6.2V4c.58,0,1.08.21,1.15.61.08,1.26.08,2,.08,3.13,0,.72,0,1.8-.08,2.59v-.07a1.14,1.14,0,0,1-.68.68c0-.61,0-1.26,0-1.76,0-1.15,0-1.91-.08-3.17A1.29,1.29,0,0,0,73.76,5.18Zm0,10.84v-.61a1.08,1.08,0,0,0,.36,0l.94-.07a4.26,4.26,0,0,0,.9-.07,3,3,0,0,1-.83.5A3.46,3.46,0,0,1,73.76,16Z"/><path class="cls-1" d="M80.71,24.84c0,.43,0,1.26,1,1.26.29,0,1.08,0,1.87,0H85.5l1.65.08c.36,0,.72,0,1,0l0,.54S88.09,27,88,27a.43.43,0,0,0-.18,0h-.29c-.4,0-3.13-.15-3.49-.15l-3.78,0c-.29,0-.29-.36-.29-.54V26.1c.07-4.79.11-9.58.11-14.33,0-.9.07-8.39,0-9.29V1.84l.17-.18h.54v.72c0,1.54,0,4.1,0,5.9v2.05c0,4.75,0,9.54-.11,14.33Zm.72-.18c.07-4.79.11-9.58.11-14.33,0-.9.07-8.39,0-9.29V.4l.18-.18H83c1.83-.08,6.23,0,6.23,0l.18.07a6.52,6.52,0,0,1,.1.76v.18c0,.54,0,1.76,0,1.76l-.18.18h-.36c-1.12,0-2.16-.07-3.24,0a.56.56,0,0,0-.58.36c0,2-.18,4.43-.14,6.37v.79a.78.78,0,0,0,.75.29c.76,0,1.55-.11,2.31-.15.18,0,.29,0,.36.29v.62c0,.21,0,.75,0,.75l-.1,1.3c.07-.26-.44.25-.62.28-.64,0-1.29-.07-1.9-.07-.4,0-.58,0-.76.29A9.79,9.79,0,0,0,85,15.37c0,.65-.11,4.54-.11,5.54,0,0,0,.47,0,.54v.65a.42.42,0,0,0,.28.25l4.4-.07.07,3.06s-.11.18-.18.18a.43.43,0,0,0-.18,0H89c-.4,0-3.13-.15-3.49-.15l-3.78,0c-.29,0-.29-.36-.29-.54Zm4.25-9.15v-.25a1.52,1.52,0,0,1,0-.54h.08c.28,0,.57,0,.86,0a.61.61,0,0,0,.25,0,3,3,0,0,0,0,.44c0,.25-.44.25-.62.28Zm.14-10.9V3.89c.58,0,1.15,0,1.77,0H88v.57l-.18.18h-.36C86.9,4.64,86.36,4.64,85.82,4.61Z"/><path class="cls-1" d="M91.69,25.63a6.31,6.31,0,0,0,2.63.65.89.89,0,0,1-.69.68A4.5,4.5,0,0,1,91,26.64v-.8c0-.1,0-.72,0-.72.08-7.45,0-15-.07-22.53,0-.21.07-.79.4-.79h.32c0,1.91,0,3.82,0,5.76,0,3.82,0,7.63,0,11.41v4.75s0,.58,0,.69Zm.72-1.22c0-.11,0-.73,0-.73.08-7.45,0-15-.07-22.53,0-.21.07-.79.4-.79,1.87-.07,3.6-.47,3.63,2.2.36,1.29.69,2.48,1,3.74C98.06,9,99,11.59,99.83,14.36a5,5,0,0,1,.32,1.15c0,.11.11.51.11.62s.11.39.29.36.21,0,.21-.11c0-.4,0-2.27,0-2.67s-.11-3.67-.11-4.06c0-1.37-.11-7.67-.15-9l.18-.21,2.77,0c.29,0,.4.22.51.4v.86c0,2.16,0,4.25,0,6.41,0,5.22-.25,17.35-.25,17.35l-.18.18-3.85.07a1.69,1.69,0,0,1-.33-.29,1,1,0,0,1-.21-.5c-.26-2.23-2.81-12.28-3.28-12.71h-.07l-.11.11c0,3.56.07,9,.11,12.56a.85.85,0,0,1-.69.72,4.5,4.5,0,0,1-2.66-.32Zm4.18-3.6c0-1.48,0-3,0-4.5.79,3.06,1.58,7.05,1.84,8.6a2,2,0,0,0,.32.83,7,7,0,0,0,.72.54h2.81v.54l-.18.18-3.85.07a1.69,1.69,0,0,1-.33-.29,1,1,0,0,1-.21-.5A49.55,49.55,0,0,0,96.59,20.81Zm2.62-19h.58c0,2.41.11,6.73.11,7.81,0,.25,0,1.62,0,2.77l-.54-1.73-.21-.61-.15-8Z"/><path class="cls-1" d="M106.45,25.77a2,2,0,0,0,1.12.61h5a4.91,4.91,0,0,0,1-.07,1.42,1.42,0,0,1-.54.44,4.35,4.35,0,0,1-1.87.35h-5a.65.65,0,0,1-.4-.18V19c0-.29.11-1.91.11-2.2v-13c0-.11.07-.76.07-1s-.07-.83.22-1h.46v.11c0,.15,0,.43,0,.47v13c0,.14,0,.61-.07,1s0,1.05,0,1.16Zm.72-8.2c0-.29.11-1.91.11-2.2v-13c0-.11.07-.76.07-1s-.07-.83.22-1h.64a9.62,9.62,0,0,1,1.8.11l.58-.11.11.11c.25,0,1.62.07,1.91.07a4.22,4.22,0,0,1,1.51.29,5.07,5.07,0,0,1,1.33,1.15.48.48,0,0,1,.07.22c0,.07.51.47.51.47a13,13,0,0,1,.25,2.09c0,.07.11.75.11.82s.1,1.19.1,1.26c.08,1,0,12.78,0,13.75a6,6,0,0,1-1.37,4.18,2.16,2.16,0,0,1-.68.58,4.36,4.36,0,0,1-1.87.36h-5a.72.72,0,0,1-.4-.18Zm3.31-13.72c0,1.12.11,17.35.11,18.47.11.39.47.29.68.29.87,0,1.8-.36,1.91-1.3.07-1.26.07-2,.07-3.17,0-.75,0-12.67-.07-13.42-.21-1-.93-1.44-2-1.44-.29,0-.69.1-.69.46Zm2,.94c.07.75.07,12.6.07,13.35,0,1.08,0,2-.07,3.13a.94.94,0,0,1-.68.58c0-.79,0-1.4,0-2.27s0-12.67-.07-13.42a2.08,2.08,0,0,0-.54-1V4a1.18,1.18,0,0,1,1.26.86Z"/><path class="cls-1" d="M119.41,25.84l.58.58h1.94V27l-.22.18h-2.88l-.18-.18-.1-1.08,0-4.25.07-10.83V2.12c0-.1.18-.39.29-.39h.43V9.36l-.07,10.83,0,4.32Zm.58-1.4,0-4.25.07-10.83V.68c0-.1.18-.39.29-.39l2.88-.18c.18,0,.29.18.4.36V1.91l-.11,1.19,0,9.71-.1,3.5c0,1-.08,2.08-.08,3.13,0,1.83,0,6.08,0,6.08l-.22.18h-2.88l-.18-.18Z"/><path class="cls-1" d="M126.29,25.63a6.27,6.27,0,0,0,2.62.65.88.88,0,0,1-.68.68,4.49,4.49,0,0,1-2.66-.32v-.8c0-.1,0-.72,0-.72.07-7.45,0-15-.07-22.53,0-.21.07-.79.39-.79h.33c0,1.91,0,3.82,0,5.76,0,3.82,0,7.63,0,11.41v4.75s0,.58,0,.69Zm.71-1.22c0-.11,0-.73,0-.73.07-7.45,0-15-.07-22.53,0-.21.07-.79.39-.79,1.88-.07,3.6-.47,3.64,2.2.36,1.29.68,2.48,1,3.74.76,2.74,1.69,5.29,2.52,8.06a4.5,4.5,0,0,1,.32,1.15c0,.11.11.51.11.62s.11.39.29.36.22,0,.22-.11c0-.4,0-2.27,0-2.67s-.11-3.67-.11-4.06c0-1.37-.11-7.67-.14-9l.18-.21,2.77,0c.29,0,.4.22.5.4v.86c0,2.16,0,4.25,0,6.41,0,5.22-.25,17.35-.25,17.35l-.18.18-3.85.07a1.72,1.72,0,0,1-.32-.29,1,1,0,0,1-.22-.5c-.25-2.23-2.81-12.28-3.28-12.71h-.07l-.1.11c0,3.56.07,9,.1,12.56a.84.84,0,0,1-.68.72A4.53,4.53,0,0,1,127,25.2Zm4.18-3.6c0-1.48,0-3,0-4.5.8,3.06,1.59,7.05,1.84,8.6a2.1,2.1,0,0,0,.32.83,8.35,8.35,0,0,0,.72.54h2.81v.54l-.18.18-3.85.07a1.72,1.72,0,0,1-.32-.29,1,1,0,0,1-.22-.5A49.55,49.55,0,0,0,131.18,20.81Zm2.63-19h.57c0,2.41.11,6.73.11,7.81,0,.25,0,1.62,0,2.77L134,10.69l-.22-.61-.14-8Z"/><path class="cls-1" d="M141.84,3.46a15.48,15.48,0,0,0-.51,4.06l-.21,12.89a8.18,8.18,0,0,0,.36,2.12l0-.18.07.26c.69,2.51,2.13,3.77,4.57,3.77a5.62,5.62,0,0,0,1.44-.14l-.18.14a4.59,4.59,0,0,1-2.7.72A3.65,3.65,0,0,1,140.79,24a6.09,6.09,0,0,1-.39-2.16L140.61,9C140.61,7,140.76,5,141.84,3.46Zm6.94,21.48a4.67,4.67,0,0,1-2.7.73,3.66,3.66,0,0,1-3.85-3.1,6.09,6.09,0,0,1-.39-2.16l.21-12.89c0-2.77.29-5.61,3-7A3.36,3.36,0,0,1,146.8.14c2.16,0,3.93.36,4.61,2.67A7.91,7.91,0,0,1,151.7,4l-.11,5.62-2.55,0-.22-.21.07-4.83s-.29-.39-.39-.57a1.37,1.37,0,0,0-1-.47c-.76,0-1.33.07-1.66.79a2.31,2.31,0,0,1-.14.32l-.29,17c0,.5.76.86,1.15.86a1.41,1.41,0,0,0,1.55-1.33l.11-4.43a2.39,2.39,0,0,0-.22-.83l-.11-.1-1,0-.22-.18.08-2.05a.34.34,0,0,1,.32-.33l2.77,0,1.84-.07h.11l.21.21c0,.22,0,1.44,0,1.62,0,.44,0,1.55,0,1.66,0,1.26-.22,7.13-.25,8.35,0,.22,0,.61-.29.61l-1.33,0c-.22,0-.43-.8-.83-.8l-.11,0Zm-2.12-8.49a5.59,5.59,0,0,1,.76,0,.33.33,0,0,0,.07.21l-.11,4.43c0,.36-.32.58-.72.61l.11-3.6a2.39,2.39,0,0,0-.22-.83l-.11-.1h-.28c0-.33,0-.69,0-1ZM146.41,5V4.82l.11-.28c.14-.26.43-.29.9-.29a.78.78,0,0,1,.46.14v0a2.86,2.86,0,0,0,.29.46l-.07,4.86.65.65,1.4,0v.72l-2.55,0-.22-.22L147.45,6s-.28-.39-.39-.57A1.11,1.11,0,0,0,146.41,5Zm2.7,20.59v0c.21.4.39.69.9.69h.18v.14c0,.22,0,.61-.29.61l-1.33,0c-.22,0-.43-.79-.83-.79l0,0a10.73,10.73,0,0,0,1.37-.58Z"/><path class="cls-1" d="M161.71,27c-.29,0-2-.11-2.23-.11s-.11-.35-.11-.46.21-1,.21-1.08c.51-3.82.83-7.71,1.44-11.52.18-1.84.58-3.6.76-5.47.07-.76.4-1.55.5-2.31A24.28,24.28,0,0,1,163,1.8h.43c-.21,1.08-.43,2.3-.47,2.84l-.21.87a10.05,10.05,0,0,0-.29,1.37c-.11.93-.25,1.83-.4,2.73s-.28,1.84-.36,2.7c-.36,2.27-.64,4.82-.9,7.09l-.54,4.47a1.82,1.82,0,0,0-.1.5l0-.07a3.39,3.39,0,0,0-.14.72c0,.54-.29,1.19.83,1.19l1,.07.54,0c-.11.44-.25.72-.5.72Zm1.44-1.44c-.29,0-2-.1-2.23-.1s-.11-.37-.11-.47.18-1,.21-1.08l1.44-11.52c.18-1.84.58-3.6.76-5.47.07-.76.4-1.55.5-2.31a24.28,24.28,0,0,1,.76-4.28c1.19,0,2.48-.07,3.78,0a39.51,39.51,0,0,1,.9,5.4c.07,1,.32,2.05.47,3l.57,4.75c0,.11.11.5.11.58.29,3.24,1.12,8.42,1.19,8.92.07.87.29,1.66.29,2.52l-.11.11h-3.13c-.36,0-.36-.65-.36-1a14.21,14.21,0,0,0-.51-3.38h-3.09c-.72,0-.18,4.24-1.15,4.24Zm1.44-2.8.07-.72h2.63c.07.46.18,2.08.18,2.66s0,1.69,1.08,1.69h1.76c0,.18,0,.4,0,.61l-.11.11h-3.13c-.36,0-.36-.65-.36-1a14.21,14.21,0,0,0-.51-3.38Zm2.63-4.47.07-.11c.18-.46-.29-.21-.29-3.34,0,0-.54-6-.86-6s-.29.22-.29.29a55.62,55.62,0,0,1-.87,6.73,14.62,14.62,0,0,0-.28,2,.29.29,0,0,0,.18.39Zm-1.52-2.27.33-2.19.07-.47a3.29,3.29,0,0,0,.07.58,5.93,5.93,0,0,0,.11.9,12.65,12.65,0,0,0,.18,2.73h-.86a6.42,6.42,0,0,1,0-.93Z"/><path class="cls-1" d="M174.88,26.28h1.55s0,.07,0,.14-.18.07-.18.18-.22.29-.4.29a9.62,9.62,0,0,1-1.8.11h-.64c-.29-.22-.22-.76-.22-1.05s-.07-.9-.07-1V11.92c0-.29-.11-1.88-.11-2.17V2.16c.11-.11.29-.5.4-.5h.32V8.32c0,.14,0,.68,0,1.15s.08.86.08,1V23.54s0,.25,0,.4a3.56,3.56,0,0,1,0,.57v.15a1.49,1.49,0,0,0,.5,1.47Zm-.21-1.77c0-.21-.07-.9-.07-1V10.48c0-.29-.11-1.88-.11-2.16V.72c.11-.11.29-.5.39-.5h5a4.23,4.23,0,0,1,1.88.36,2.11,2.11,0,0,1,.68.57,6.07,6.07,0,0,1,1.37,4.18c0,1,0,3.31,0,4.28,0,.11-.11,1.15-.11,1.26s-.1.76-.1.83a4.07,4.07,0,0,1-2.16,2.59,4.24,4.24,0,0,1-1.52.29c-.28,0-1.65.11-1.9.11l-.11.07c.07,3.35-.15,6.55,0,10.22,0,0-.18.07-.18.18s-.22.29-.4.29a9.68,9.68,0,0,1-1.8.11h-.65C174.6,25.34,174.67,24.8,174.67,24.51Zm3.13-13.13c0,.36,0,.46.32.46,1,0,2.16-.39,2.38-1.44.07-.79.07-1.9.07-2.66,0-1.15,0-1.91-.07-3.17-.11-.93-1-1.29-1.91-1.29-.21,0-.57-.11-.68.28,0,1.12-.11,6.55-.11,7.71Zm.83-6.2V4c.57,0,1.08.21,1.15.61.07,1.26.07,2,.07,3.13,0,.72,0,1.8-.07,2.59v-.07a1.17,1.17,0,0,1-.68.68c0-.61,0-1.26,0-1.76,0-1.15,0-1.91-.07-3.17A1.39,1.39,0,0,0,178.63,5.18Zm0,10.84v-.61a1.11,1.11,0,0,0,.36,0l.93-.07a4.17,4.17,0,0,0,.9-.07,3.06,3.06,0,0,1-.82.5A3.46,3.46,0,0,1,178.63,16Z"/><path class="cls-1" d="M186.69,26.28h1.55s0,.07,0,.14-.18.07-.18.18-.22.29-.4.29a9.73,9.73,0,0,1-1.8.11h-.65c-.29-.22-.21-.76-.21-1.05s-.08-.9-.08-1V11.92c0-.29-.1-1.88-.1-2.17V2.16c.1-.11.28-.5.39-.5h.33V8.32c0,.14,0,.68,0,1.15s.07.86.07,1V23.54s0,.25,0,.4a3.56,3.56,0,0,1,0,.57v.15a1.49,1.49,0,0,0,.5,1.47Zm-.21-1.77c0-.21-.08-.9-.08-1V10.48c0-.29-.1-1.88-.1-2.16V.72c.1-.11.28-.5.39-.5h5a4.19,4.19,0,0,1,1.87.36,2,2,0,0,1,.69.57,6.07,6.07,0,0,1,1.37,4.18c0,1,0,3.31,0,4.28,0,.11-.11,1.15-.11,1.26s-.11.76-.11.83a4,4,0,0,1-2.16,2.59,4.14,4.14,0,0,1-1.51.29c-.29,0-1.65.11-1.91.11l-.1.07c.07,3.35-.15,6.55,0,10.22,0,0-.18.07-.18.18s-.22.29-.4.29a9.73,9.73,0,0,1-1.8.11h-.65C186.4,25.34,186.48,24.8,186.48,24.51Zm3.13-13.13c0,.36,0,.46.32.46,1,0,2.16-.39,2.38-1.44.07-.79.07-1.9.07-2.66,0-1.15,0-1.91-.07-3.17-.11-.93-1.05-1.29-1.91-1.29-.22,0-.58-.11-.68.28,0,1.12-.11,6.55-.11,7.71Zm.83-6.2V4c.57,0,1.08.21,1.15.61.07,1.26.07,2,.07,3.13,0,.72,0,1.8-.07,2.59v-.07a1.16,1.16,0,0,1-.69.68c0-.61,0-1.26,0-1.76,0-1.15,0-1.91-.07-3.17A1.39,1.39,0,0,0,190.44,5.18Zm0,10.84v-.61a1.14,1.14,0,0,0,.36,0l.93-.07a4.22,4.22,0,0,0,.9-.07,3,3,0,0,1-.83.5A3.42,3.42,0,0,1,190.44,16Z"/><path class="cls-1" d="M198.14,26.21a8.26,8.26,0,0,1,1.08.07l1,.07v.36c-.26.65-2.38.21-3.24.21l-.18-.17a10.06,10.06,0,0,1-.11-1.63c0-1.29.11-12.41.11-13.74,0-2.74-.11-5.44-.11-8.18,0-.46-.14-1.36.47-1.51h.25v.07c0,1.37,0,2.78,0,4.14s.07,2.67.07,4c0,.62,0,4.11-.07,7,0,3.1,0,6.16,0,6.8a8.11,8.11,0,0,0,.22,2Zm0-2.53c0-1.29.11-12.41.11-13.75,0-2.73-.11-5.43-.11-8.17,0-.46-.14-1.36.47-1.51,1.69,0,3.38,0,5.07.11A6.23,6.23,0,0,1,206,1c1.69,1.33,1.87,3.38,1.87,5.32a8.35,8.35,0,0,1-2,6.16v.29a2.87,2.87,0,0,1,1.51,1.94,50,50,0,0,1,.54,7.89,6.87,6.87,0,0,0,.61,2.41c-.14.5-.18.43-.82.43-.9,0-1.66,0-2.63,0-.33-.29-.65-.57-.65-2.55,0-.87,0-2.05,0-3.28,0-2.41.1-5.58-2.38-5.58a.44.44,0,0,0-.47.47c0,.54-.1,3.28-.1,3.85,0,.4.1,3.67.1,4.07,0,1.08.15,2.05.15,2.88-.25.65-2.38.22-3.24.22l-.18-.18A9,9,0,0,1,198.14,23.68Zm5.94-13.35c.07-1.62.18-3.2.18-4.82,0-.69-.22-1.91-1-2.09h-1.33l-.25.29V11l.18.18C202.67,11.16,203.5,11.3,204.08,10.33Zm-1.87,5.94c0-.61,0-1.15,0-1.51,1.48.25,1.41,2.84,1.41,4.82,0,.65,0,1.3,0,1.91v1.37c0,2.3.54,2.81,1.08,3.27.68,0,1.55,0,2.2,0l.1.29c-.14.5-.18.43-.82.43-.9,0-1.66,0-2.63,0-.33-.28-.65-.57-.65-2.55,0-.87,0-2.05,0-3.28C202.93,19.4,203,17.39,202.21,16.27Zm1.33-10.76c0,1.19,0,2.41-.11,3.6,0,.32-.07.68-.07,1a1,1,0,0,1-.65.33c0-1.15.11-2.3.11-3.49a3,3,0,0,0-.47-1.7V4a3.84,3.84,0,0,0,.76.11C203.39,4.28,203.54,5.08,203.54,5.51Z"/><path class="cls-1" d="M215.74,26.57a5.75,5.75,0,0,0,1.12-.11,4.06,4.06,0,0,1-2.56.82h-.79a2.35,2.35,0,0,1-1.65-.61A5.74,5.74,0,0,1,210,23.76a34.89,34.89,0,0,1-.61-5.65v-.29c0-1.23.1-6.91.1-8.1a11.76,11.76,0,0,1,1.34-6,15,15,0,0,0-.62,4.57c0,.57,0,2.27,0,4s-.07,3.5-.07,4.11v.32a39.25,39.25,0,0,0,.61,5.8,6.29,6.29,0,0,0,2.16,3.27l-.07,0a3.18,3.18,0,0,0,2.19.83Zm-.79-.73a2.31,2.31,0,0,1-1.65-.61,5.74,5.74,0,0,1-1.91-2.91,34.89,34.89,0,0,1-.61-5.65v-.29c0-1.23.1-6.91.1-8.1,0-3,.65-8.1,5.15-8.1A4.33,4.33,0,0,1,220.71,4a3,3,0,0,1,.18.9V18.07l-.18,2.84c-.22.4-.22.9-.43,1.3-1,2.05-2,3.63-4.54,3.63Zm1-3.23c.94,0,1.23-1,1.23-1.7,0-.43.1-2.34.1-2.73,0-1.12.11-6.48.11-7.67V4.72a1.29,1.29,0,0,0-1.22-1.3H216a3,3,0,0,0-.68.22c-.11,0-.51.46-.61.57a1.11,1.11,0,0,0-.11.33c0,.61-.11,3.13-.11,3.74V21.53A1.43,1.43,0,0,0,215.92,22.61Zm-.57-17.53V4.61l.07-.07c.07-.08.07-.18,0-.18a4.91,4.91,0,0,1,.57-.22.58.58,0,0,1,.61.58v5.79c0,.58,0,2.41-.07,3.92s0,3.21,0,3.75c0,.18,0,.72,0,1.29s-.07,1.23-.07,1.44c0,.4-.11,1-.51,1h-.21c0-.76.11-1.95.11-2.27,0-1.12.1-6.48.1-7.67V6.16A1.35,1.35,0,0,0,215.35,5.08Z"/><path class="cls-1" d="M228.42,26.31c0,.26-.15.72-.4.72H226.9c-.79,0-2.16.22-2.62-.25-.29-.29-.69-6.37-.69-6.37l-1.15-9.83c-.29-2-.47-4-.65-6a16.21,16.21,0,0,1-.18-2.38V1.8l.07-.11h.65c0,.54.11,1.05.18,1.51v0c.18,2,.36,4.1.65,6.08v0L224.31,19s.43,6.34.9,6.8,1.73.54,2.56.51c.21,0,.39,0,.57,0Zm-.08-.72c-.79,0-2.16.22-2.63-.25C225.43,25.05,225,19,225,19l-1.15-9.83c-.29-2-.47-4-.65-6a16.21,16.21,0,0,1-.18-2.38V.36l.07-.11h2.59c.58,0,.58.69.58,1.05,0,.1.07.86.07,1,.22,1.19.58,5.07.69,5.47s.54,4.14.54,4.43c0,.07.07,1.22.07,1.29s.11.61.11.69.07.64.36.64h.11a.9.9,0,0,0,.1-.25c0-.11.11-1.08.11-1.15.29-2.09.83-5.36,1.08-7.45,0-.29.43-4,.61-4.93a3.29,3.29,0,0,1,.07-.36s.11-.29.18-.29h2.38c.29,0,.29.29.29.47,0,0-.11.68-.11.86-.54,4.25-1,8.5-1.58,12.74-.4,2.56-.87,5-1.16,7.6,0,.18-.18,1.37-.18,1.58s-.1.47-.1.47-.08.58-.08.68-.1.83-.39.83ZM229,1.8h.28c-.14,1.12-.32,2.74-.39,3.56a2.72,2.72,0,0,0,0,.51c-.14,1.26-.39,2.91-.65,4.5l0,.25L228,9.86a8.77,8.77,0,0,1-.14-.93l.21-1.55c0-.29.43-4,.61-4.93a3.29,3.29,0,0,1,.07-.36S228.88,1.8,229,1.8Z"/><path class="cls-1" d="M234.36,27c-.29,0-2-.11-2.24-.11s-.1-.35-.1-.46.21-1,.21-1.08c.51-3.82.83-7.71,1.44-11.52.18-1.84.58-3.6.76-5.47.07-.76.39-1.55.5-2.31a23.39,23.39,0,0,1,.76-4.28h.43c-.22,1.08-.43,2.3-.47,2.84l-.21.87a8.72,8.72,0,0,0-.29,1.37c-.11.93-.25,1.83-.4,2.73s-.29,1.84-.36,2.7c-.36,2.27-.65,4.82-.9,7.09L233,23.87a2.1,2.1,0,0,0-.11.5l0-.07a3.39,3.39,0,0,0-.14.72c0,.54-.29,1.19.82,1.19.15,0,.58,0,1.05.07l.54,0c-.11.44-.25.72-.51.72Zm1.44-1.44c-.29,0-2-.1-2.24-.1s-.1-.37-.1-.47.18-1,.21-1.08l1.44-11.52c.18-1.84.58-3.6.76-5.47.07-.76.39-1.55.5-2.31a23.39,23.39,0,0,1,.76-4.28c1.19,0,2.48-.07,3.78,0a39.51,39.51,0,0,1,.9,5.4c.07,1,.32,2.05.46,3l.58,4.75c0,.11.11.5.11.58.29,3.24,1.11,8.42,1.19,8.92.07.87.28,1.66.28,2.52l-.1.11h-3.14c-.36,0-.36-.65-.36-1a14.29,14.29,0,0,0-.5-3.38h-3.09c-.72,0-.18,4.24-1.16,4.24Zm1.44-2.8.07-.72h2.62c.08.46.19,2.08.19,2.66s0,1.69,1.07,1.69H243c0,.18,0,.4,0,.61l-.1.11h-3.14c-.36,0-.36-.65-.36-1a14.29,14.29,0,0,0-.5-3.38Zm2.62-4.47.07-.11c.19-.46-.28-.21-.28-3.34,0,0-.54-6-.87-6-.18,0-.28.22-.28.29a55.62,55.62,0,0,1-.87,6.73,13.28,13.28,0,0,0-.29,2,.31.31,0,0,0,.18.39Zm-1.51-2.27.32-2.19.08-.47a2.56,2.56,0,0,0,.07.58,5.93,5.93,0,0,0,.11.9,12.65,12.65,0,0,0,.18,2.73h-.87a8.55,8.55,0,0,1,0-.93Z"/><path class="cls-1" d="M246.67,26.35c.83,0,2.3.07,3.13.07,1.47,0,3-.07,4.28-.14,0,.43-.21.61-.68.64a54.79,54.79,0,0,1-7.52.18l-.11-.89c0-.19-.18-5.22-.25-7.17,0-.36.18-6.48.14-8.71,0-1.37-.14-7.13-.14-8.39,0-.18.18-.28.36-.28l.36,0c0,.83,0,1.91.07,2.85,0,1.79.07,3.67.07,4.35,0,1.69-.07,5.65-.11,7.6,0,.61,0,1.08,0,1.15.07,1.94.25,7,.25,7.2Zm.54-1.59c0-.18-.18-5.21-.25-7.16,0-.36.18-6.48.14-8.71,0-1.37-.14-7.13-.14-8.39,0-.18.18-.28.36-.28L250,.29l.29.29v.86c0,.4-.07,2.34-.07,2.7L250.55,22a.41.41,0,0,0,.29.29l4.14-.14c.11,0,.33.28.33.39l.21,2.13c.07.57-.14.79-.68.83a58.17,58.17,0,0,1-7.52.18Z"/></g></g></svg>