<svg xmlns="http://www.w3.org/2000/svg" viewBox="0 0 409.04 445.37"><defs><style>.cls-1{fill:#d9d9d7;}.cls-2{fill:#2d84a2;}.cls-3{fill:#fff;}.cls-4{fill:#ffb373;}.cls-5{fill:#3793ac;}.cls-6{fill:#44484b;}.cls-7{fill:#313538;}.cls-8{fill:#cff0ff;}.cls-19,.cls-8{opacity:0.1;}.cls-19,.cls-9{fill:#212426;}.cls-9{opacity:0.2;}.cls-10{fill:#ffc5a7;}.cls-11{fill:#eaa797;}.cls-12{fill:#3293b4;}.cls-13{fill:#599bab;}.cls-14{fill:#a44e33;}.cls-15{fill:#2f3336;}.cls-16{fill:#ee8043;}.cls-17{fill:#35393a;}.cls-18{fill:#ff924f;}.cls-20{fill:#458493;}.cls-21{fill:#67b4c7;}</style></defs><title>Asset 2</title><g id="Layer_2" data-name="Layer 2"><g id="OBJECTS"><path class="cls-1" d="M409,437c0-3.85-20.2-10.8-133.15-12.85S0,425.73,0,429.58,27.3,442.9,140.26,445,409,440.89,409,437Z"/><path class="cls-2" d="M79,222.34s4.17,5.24,25-1.27L100.49,212S86.11,214.26,79,222.34Z"/><polygon class="cls-3" points="107.67 368.67 132.27 388.04 120.04 364.47 114.17 361.23 107.67 368.67"/><polygon class="cls-4" points="142.76 339.53 114.17 361.23 120.04 364.47 147.43 345.36 142.76 339.53"/><polygon class="cls-5" points="107.67 368.67 132.27 388.04 130.68 390.37 105.96 370.93 107.67 368.67"/><path class="cls-6" d="M189.53,303.67l-75.35,57.56,5.86,3.24s94.1-48,98.59-60-69.36-103.26-69.36-103.26L104.54,185.1s-10.06,28.41-10.36,34.83S195.1,296.15,195.1,296.15a19.5,19.5,0,0,0-3.59,1.14C190.2,298,189.53,303.67,189.53,303.67Z"/><path class="cls-7" d="M198.75,293.52A459.88,459.88,0,0,0,163,262.84c-6-4.63-12.07-9.25-18.45-13.34-6-3.84-12.69-7.51-19.82-8.48-.32,0-.48.42-.14.51a67.91,67.91,0,0,1,20.21,9.09c6.12,4,12,8.47,17.77,12.94a458.05,458.05,0,0,1,35.62,30.54C198.55,294.46,199.13,293.88,198.75,293.52Z"/><path class="cls-8" d="M217.24,301.85c-.67-2-8.07-1-8.14-.13s3.56,3,5,3S217.51,302.65,217.24,301.85Z"/><polygon class="cls-3" points="33.74 417.95 58.99 424.78 43.23 409.42 36.53 409.64 33.74 417.95"/><polygon class="cls-4" points="52.45 376.37 36.53 409.64 43.23 409.42 59.44 378.99 52.45 376.37"/><polygon class="cls-5" points="33.74 417.95 58.99 424.78 57.96 427.37 32.67 420.77 33.74 417.95"/><path class="cls-6" d="M149.27,201.25,92.4,193.74s-11.07,18.74-6.89,33.18c1.79,6.17-5.14,85.54-5.14,85.54s-3.05,2.75-3.42,4.06-.41,7.71-.41,7.71l-40,85.41,6.7-.22s60.24-86.57,64.11-98.77c3.37-10.64,5.81-41.24,15.45-71.36a296.77,296.77,0,0,0,26.48-38"/><path class="cls-7" d="M88.21,238.8c0-.3-.57-.23-.57.08.16,6.05.67,12.08.71,18.14s-.13,11.83-.55,17.74A230.86,230.86,0,0,1,82.33,311c-.16.67.93,1,1.08.29a234.12,234.12,0,0,0,5.37-36.07C89.6,263.2,90,250.71,88.21,238.8Z"/><path class="cls-9" d="M121.48,243.41a9.94,9.94,0,0,0,8.18,1.92c4.79-1,6.86-14.8,5.74-22.09A62.24,62.24,0,0,0,133.21,213s-2.22,7.39-4.62,13.68S122.37,240.23,121.48,243.41Z"/><path class="cls-7" d="M133.91,206.87a92.63,92.63,0,0,1-2,9.61A87.15,87.15,0,0,1,128,226.72c-1.34,3.07-2.77,6.09-4.14,9.14-1.28,2.84-3,6-3.6,9-.07.37.44.63.64.27,1.72-3.08,2.77-6.66,4.23-9.89s2.89-6.32,4.24-9.51c2.46-5.81,5.12-12.42,5-18.83C134.4,206.66,134,206.58,133.91,206.87Z"/><path class="cls-7" d="M203.27,297.87a40.57,40.57,0,0,1-4.05-.87c-1.32-.36-2.61-.95-4-1.18a.25.25,0,0,0-.27.14.34.34,0,0,0-.35.45,6,6,0,0,0,1.85,2.69c.65.57,1.74,1.51,2.65,1.31a.33.33,0,0,0,.19-.47,2.38,2.38,0,0,0-.92-.62,7.17,7.17,0,0,1-1.28-.86,8.43,8.43,0,0,1-1.52-1.86c2.14,1.27,5.08,1.77,7.43,2.13C203.59,298.81,203.84,298,203.27,297.87Z"/><path class="cls-7" d="M123.78,362.05c-1.91-1.11-3.51-2.6-5.32-3.83-.17-.12-.32.12-.21.26a31.16,31.16,0,0,0,5.16,4.2C123.78,363,124.19,362.29,123.78,362.05Z"/><path class="cls-7" d="M45.51,406.39a11.64,11.64,0,0,0-3-.58c-1.15-.2-2.29-.48-3.43-.67a.23.23,0,0,0-.12.44,23.47,23.47,0,0,0,3.61.88,7.88,7.88,0,0,0,2.89.27A.19.19,0,0,0,45.51,406.39Z"/><path class="cls-7" d="M91.55,211.33c0-.55-.89-.55-.86,0,.22,3.8.55,7.61.58,11.41a19.8,19.8,0,0,1-.64,5.63,22.51,22.51,0,0,1-2.37,4.73c-.09.15.09.37.25.25,2.43-1.72,3.22-5.33,3.48-8.12C92.42,220.65,91.8,215.91,91.55,211.33Z"/><path class="cls-7" d="M105.93,277.85c-1.57-.62-3.17-1.19-4.77-1.72-1.25-.42-4.17-.87-5.48-1.85,4.36-1.2,8.51-1,13-.5.33,0,.38-.48.07-.57-4.56-1.38-9.66-.89-14.21.28a.54.54,0,0,0-.32.78c.88,1.74,3.33,1.9,5,2.43,3.06,1,6,2.16,9,3.35.66.26,1,.16.64.48a4.51,4.51,0,0,1-1.79.39c-1.4.25-2.82.36-4.24.52a16.36,16.36,0,0,0-6.55,1.78c-.49.3-.16,1.19.41,1a36.53,36.53,0,0,1,9.08-1.9c1.08-.14,4.38-.11,4.69-1.57C110.81,279.07,106.93,278.25,105.93,277.85Z"/><path class="cls-7" d="M184.28,252.86c-1-1.66-4.49,1.37-5.38,2.17-1.28,1.16-2.4,2.48-3.59,3.73-.73.76-3.46,3.86-4.24,2.73-.4-.59.51-3.16.71-3.94a28.48,28.48,0,0,1,1.05-3.2,28,28,0,0,1,3.65-6.38c.21-.28-.27-.66-.49-.38a26.06,26.06,0,0,0-4.25,7.23c-.83,2.19-2,5.49-1.51,7.86a.43.43,0,0,0,.3.3c1.15.37,2.61-1.06,3.42-1.74a62.06,62.06,0,0,0,4.48-4.55,17,17,0,0,1,2.61-2.26,9.9,9.9,0,0,1,1.26-.74c1.62-.77,1.07.45.87,1.58-.54,3-1.66,5.8-2.23,8.75a.29.29,0,0,0,.56.16,62.67,62.67,0,0,0,2-6.7C183.74,256.46,184.94,253.9,184.28,252.86Z"/><path class="cls-8" d="M105,310.74c-.21-2.13-7.66-2.75-7.91-1.9s2.82,3.68,4.26,4S105.12,311.58,105,310.74Z"/><path class="cls-7" d="M81.47,316.73c-.17-1.65.18-3.57-.61-5.06a.11.11,0,0,0-.18,0c-1.05,1.57-.6,4.09-.42,5.9a15.4,15.4,0,0,0,1.39,6,.5.5,0,0,0,.93-.25C82.48,321.1,81.71,318.94,81.47,316.73Z"/><path class="cls-10" d="M59.82,116.84s-38.56,13.92-42,17.86,31.47,61,31.47,61l5.39-3.93-18.5-47.93s24.47-10.49,32.78-13.12Z"/><path class="cls-11" d="M37.14,144.29a12.54,12.54,0,0,0-1.71-4.47.46.46,0,0,0-.52-.22l-.08,0,0,0a.48.48,0,0,0-.21.52c.28,1.52.88,3,1.18,4.5C35.94,145.57,37.36,145.2,37.14,144.29Z"/><path class="cls-10" d="M195.6,33.31s-7.53-4.49-5.85-5.33S196,30.22,196,30.22c-.14.18-1.85-2.57-2-5.35-.1-2.2.71-8,2-8s.28,6.5.28,6.5,1.45-7.35,3.22-6.5c.48.23-.61,7.09-.61,7.09s1.92-6.9,3-6.34,0,6.68,0,6.68,1.17-4.76,2.29-4.76-.24,5.42-.24,5.42.45,3.2,1,5.59c.42,1.9-3.45,6-3.45,6Z"/><path class="cls-10" d="M201.46,36.57s-12.92,58.74-21.78,68.26c-5.9,6.34-53,18.8-53,18.8s-6.41-9.53,2.6-22.14c0,0,36.59-9.95,40.2-11.53S195.6,33.31,195.6,33.31Z"/><path class="cls-11" d="M169.84,89.59a5.41,5.41,0,0,0-1.61,2.29,29.17,29.17,0,0,0-1.21,3c-.32.88,1.17,1.31,1.41.39a21.83,21.83,0,0,1,1-2.86,8.09,8.09,0,0,0,.87-2.53A.28.28,0,0,0,169.84,89.59Z"/><path class="cls-12" d="M82.28,103.16s2.33,89.66.22,96.69c0,0-7.23,4.25-5.83,7.06s6.77,4.18,6.77,4.18-5.77,7.74-4.41,11.25c0,0,34.39-18.27,70.24-21.09,0,0-2.81-13.35-7-13.35,0,0,4.22-8.43,1.41-12S129.28,105.26,127.17,101C127.17,101,100.32,102.55,82.28,103.16Z"/><polygon class="cls-13" points="83.03 139.16 133.62 130.98 136.82 147.2 83.29 157.72 83.03 139.16"/><path class="cls-14" d="M109.39,65.17A117.49,117.49,0,0,0,134,64.44a24.69,24.69,0,0,0,7.12-1.7,9.52,9.52,0,0,0-4.39-2.31C137,61,140,56,140.72,54.2a7.21,7.21,0,0,0-3-.22c1-1.66.74-3.74,1-5.65l-37.47,2.72a5.54,5.54,0,0,0-2.39.54c-1.5.87-1.83,2.86-2,4.58-.12,1.26-3-.34-3.32,1.58-.71,4.64,8.06,37,13.3,35.66C111.57,92.19,110.6,74.33,109.39,65.17Z"/><path class="cls-10" d="M117.08,85l-3.39,24.14c-7.83,5.35-13.37-6.56-13.37-6.56l4.79-25.4Z"/><path class="cls-11" d="M106.67,85.44s-4.64,17.89,7.7,18.8l1.75-13Z"/><path class="cls-10" d="M106.18,79.91a3.53,3.53,0,0,1-3.38,3.94,4,4,0,0,1-4.15-3.59A3.53,3.53,0,0,1,102,76.32,4,4,0,0,1,106.18,79.91Z"/><path class="cls-10" d="M130.25,59.88s1.91,36-2.9,37.79c-5.68,2.12-15.31,3.7-17.82-3-4.6-12.2-7.5-32.89-7.5-32.89Z"/><path class="cls-14" d="M125.36,70.64c.08.73,3.14,1,4.93.81s2.33-.83,2.26-1.56-2.31-1.07-4.09-.89S125.29,69.92,125.36,70.64Z"/><path class="cls-14" d="M118.27,71.4c.08.72-2.87,1.62-4.66,1.81s-2.45-.34-2.53-1.06,2-1.53,3.83-1.72S118.2,70.68,118.27,71.4Z"/><path class="cls-3" d="M127.17,87.62,116,88.21s2.83,6.91,7,5.81S127.17,87.62,127.17,87.62Z"/><path class="cls-14" d="M106.57,80.79c1.45,0-.81-13.94-.71-16.74,2.44,1.59,13.93,1.44,18.41.16,6.86-2,8.85-5.2,9.15-7.23-29.6-2.52-34,2.51-33.66,5.07C100.07,64.36,104.62,81.81,106.57,80.79Z"/><path class="cls-14" d="M105.86,64.05s11.39,7.12,23.87,1.59c0,0-4.28-.51-9.41-4.4Z"/><path class="cls-15" d="M119.23,75.74a2.61,2.61,0,0,0-2.31-.12,3,3,0,0,0-1.5,1.56c0,.13-.26.84,0,.87.85.06,1.28-1.2,2-1.45,1-.35,1.79.86,2.69.59a.11.11,0,0,0,.08-.09C120.39,76.5,119.72,76,119.23,75.74Z"/><path class="cls-15" d="M129.76,74.47A3,3,0,0,0,127,75.84c-.33.41.14,1,.62.73s1.12-1.11,1.93-1.13,1.07.51,1.68.66a.2.2,0,0,0,.23-.15C131.56,75.11,130.46,74.57,129.76,74.47Z"/><path class="cls-11" d="M126,82.33A21,21,0,0,1,124.49,80c-.3-.67-.43-1.46-1.11-1.82a.07.07,0,0,0-.09,0c-.47.87.15,2,.55,2.84s1.92,2.1,1.07,2.75a.5.5,0,0,0,.29.92C126.49,84.71,126.55,83.16,126,82.33Z"/><path class="cls-11" d="M104.55,81a3.16,3.16,0,0,0-1.61-1.49c-.58-.24-1.47-.47-1.86.18a.42.42,0,0,0,0,.43c.32.42.8.34,1.25.51a2.1,2.1,0,0,1,.75.52,4.93,4.93,0,0,0-.78.58c-.52.48.2,1.2.75.89s.84-.52,1.29-.75A.64.64,0,0,0,104.55,81Z"/><path class="cls-2" d="M118.93,104.26c0-.09-.15-.09-.18,0-.74,2.88-.82,5.85-1.8,8.71-.76,2.21-2,3.22-4.27,2.91a17.62,17.62,0,0,1-4.21-1.2c-5-2.09-8.35-6.08-12.66-9.15-.06,0-.15,0-.1.1,3.53,5,9.81,9.68,15.86,11,2.42.52,4.66.44,5.75-2.07C118.56,111.65,119.52,107.38,118.93,104.26Z"/><path class="cls-12" d="M127.17,101a9.84,9.84,0,0,1,2.56-1.54c.91-.21,2.33.77,2.33.77S162,92.2,166,90.88c0,0-2.28,20.33-3.93,24.26L128.35,128S118.84,112.52,127.17,101Z"/><path class="cls-12" d="M82.28,103.16s-2.56-1.35-3.65-.7a22.14,22.14,0,0,0-2.35,1.73L32.41,122s7.87,14.86,17.48,19.45L84.2,130.33S92.16,119.27,82.28,103.16Z"/><path class="cls-2" d="M135.12,192.33c-3.9.41-7.91,1.91-11.68,3-4.08,1.14-8.14,2.35-12.14,3.75-7.74,2.7-15.38,5.86-22.23,10.42,0,0,0,.07,0,.05a138,138,0,0,1,22.78-9.86q5.69-1.86,11.45-3.46c3.88-1.08,8.18-1.72,11.88-3.31C135.48,192.77,135.46,192.3,135.12,192.33Z"/><path class="cls-2" d="M123.53,190.19a32.39,32.39,0,0,0-7.76.9c-2.92.52-5.82,1.16-8.68,1.92-5.17,1.38-11.06,2.9-15.62,5.78-.09.05,0,.19.08.16,2.71-.75,5.3-2,8-2.94s5.15-1.68,7.76-2.38,5.26-1.29,7.93-1.78,5.7-.57,8.37-1.35C123.77,190.45,123.7,190.2,123.53,190.19Z"/><path class="cls-2" d="M125.91,130c-4.51,8.51-8.64,17.2-13.4,25.59s-10.2,16.32-15.28,24.52c-.21.34.33.74.58.42,5.71-7.57,10.55-16,15.22-24.22,4.8-8.46,9.53-17.13,13.09-26.2C126.17,130,126,129.86,125.91,130Z"/><path class="cls-2" d="M127,151.08c-.83,3.18-1.45,6.4-2.32,9.57s-2.27,6.23-2.84,9.4a.15.15,0,0,0,.28.11c1.68-2.75,2.45-6.26,3.24-9.35a52.66,52.66,0,0,0,1.72-9.72A0,0,0,0,0,127,151.08Z"/><path class="cls-2" d="M86.5,108.07a.39.39,0,0,0-.75.21,32.21,32.21,0,0,1,1,11.39,31.46,31.46,0,0,1-1.06,5.78c-.39,1.37-1,4.87-2.51,5.43,0,0,0,.06,0,.07l.8,0a.21.21,0,0,0,.17-.1C88.06,124.08,88.51,115.52,86.5,108.07Z"/><path class="cls-2" d="M54.74,138.37c-5.21-5.24-10.24-10.79-15.77-15.7a.31.31,0,0,0-.43.44C43.4,128.68,48.9,133.77,54.09,139A.46.46,0,0,0,54.74,138.37Z"/><path class="cls-2" d="M159.24,93.61c0-.44-.7-.44-.69,0,.27,7.86-.79,15.37-2.05,23.1a.21.21,0,0,0,.41.11C159.08,109.41,159.5,101.29,159.24,93.61Z"/><path class="cls-10" d="M54.63,191.81S61.29,195,63,195.64s1.78,6.24,1.85,7-2.14,1.21-2.14,1.21.5,1.86,0,2.57-4.06.57-4.35,1.21-2.35,1-3.21,1-3.77-5.87-4.42-7.57a30.66,30.66,0,0,1-1.49-5.39Z"/><path class="cls-16" d="M279.93,169s11.91,16.73,39.49,11.33C319.42,180.36,305.38,161.88,279.93,169Z"/><path class="cls-17" d="M319.81,85.14s1.77,1.78,1.33,2.8A3.32,3.32,0,0,1,320,89.41s3.34,3.44,3.27,4.75-4.45,7.68-10.12,6.68-8.29-6.62-8.38-12S313.11,78.86,319.81,85.14Z"/><path class="cls-17" d="M298.52,53.88c-4.37.57-7.68,2.12-8.06,3.1-1.23,3.1-.28,6.14-1.09,6.76A10.52,10.52,0,0,1,286.61,65a26,26,0,0,0-5.15,2.62,6.14,6.14,0,0,0-2.28,2.3c-.86,1.79,0,3.92,1,5.6s3.73,5.59-.74,9.15c2.88,1.76,7.12-.34,7.59-3.68.31-2.24-2.85-6.53-2.9-7-.29-2.58,6.33-5.11,9.52-6.38s5.57-3.56,9-4.08a12.48,12.48,0,0,1,4.39-.13A6.47,6.47,0,0,1,312,68.7c-.21-.07.42-.06.64-.06.87,0,1.74-.5,2.57-.24A2,2,0,0,1,316.4,70a5.29,5.29,0,0,1-.15,2.09,64.61,64.61,0,0,1-3.86,12.23c-.06.13-.15.28-.29.26s-.05-.3,0-.2a6,6,0,0,0,7.67.78c2.32-1.6,3.57-4.35,4.37-7a20.18,20.18,0,0,0,.93-5.38c.13-6.19-3.83-12-9.16-15.18A26.85,26.85,0,0,0,298.52,53.88Z"/><path class="cls-10" d="M301.33,83.18l-3.46,21.5c5.27,6.62,13.14-2.09,13.14-2.09l2.6-22.93Z"/><path class="cls-11" d="M308.29,88.34S307.6,100,298.7,99.48l1.79-10.67Z"/><path class="cls-10" d="M312,81.73A3.15,3.15,0,0,0,313.82,86a3.61,3.61,0,0,0,4.49-2,3.15,3.15,0,0,0-1.85-4.25A3.61,3.61,0,0,0,312,81.73Z"/><path class="cls-10" d="M305,61.49a9.75,9.75,0,0,0-12.46,5.17c-3.93,9-8,22.6,1,26.07,16.24,6.24,26.74-25.35,26.74-25.35Z"/><path class="cls-11" d="M296.14,78.18c-.9-.27-2.23,0-2.49,1-.19.75.72,2.1,1.58,1.73a.2.2,0,0,0,.11-.2c-.06-.54-.76-.67-.86-1.19-.14-.83,1.11-.77,1.6-.88C296.3,78.62,296.41,78.26,296.14,78.18Z"/><path class="cls-17" d="M303.62,58.7a25.86,25.86,0,0,0-.13,3.41,6.74,6.74,0,0,0,.26,2c.63,1.88,2.58,3,4.41,3.73S312,69.31,313.11,71a7.15,7.15,0,0,1,.91,4.39,12,12,0,0,0,0,2.4,2.54,2.54,0,0,0,1.26,2c2.65-1.48,4.29-4.25,5.33-7.11a10.83,10.83,0,0,0,.75-6.4,9.45,9.45,0,0,0-3.42-4.7,14.93,14.93,0,0,0-4.1-2.39C310.48,57.87,307.15,58.38,303.62,58.7Z"/><path class="cls-17" d="M298,68.76c-.26.6-3,0-4.42-.61s-1.78-1.33-1.52-1.92,2.25-.31,3.73.31S298.29,68.17,298,68.76Z"/><path class="cls-17" d="M303.89,71.28c-.25.59,2,2.14,3.5,2.77s2.19.36,2.44-.24S308.48,72,307,71.33,304.14,70.68,303.89,71.28Z"/><path class="cls-3" d="M292,82.77l9.4,3.46s-4.24,5.15-7.55,3.11S292,82.77,292,82.77Z"/><path class="cls-15" d="M301.93,74.73a2.33,2.33,0,0,1,2,.5A2.7,2.7,0,0,1,304.8,77c0,.13,0,.79-.27.73-.74-.18-.78-1.36-1.37-1.78-.79-.56-1.75.26-2.45-.2a.12.12,0,0,1,0-.1C300.74,75.07,301.45,74.82,301.93,74.73Z"/><path class="cls-15" d="M293.28,70.87a2.64,2.64,0,0,1,2,1.89c.17.44-.4.87-.72.46s-.67-1.24-1.35-1.47-1.05.15-1.61.12c-.09,0-.18-.1-.16-.18C291.57,70.94,292.65,70.77,293.28,70.87Z"/><path class="cls-11" d="M313.07,83.1a2.88,2.88,0,0,1,1.76-.85c.56,0,1.39,0,1.55.65a.38.38,0,0,1-.13.36c-.39.27-.78.08-1.21.11a1.83,1.83,0,0,0-.77.24,4,4,0,0,1,.51.71c.31.54-.48,1-.88.56s-.58-.67-.9-1A.59.59,0,0,1,313.07,83.1Z"/><path class="cls-18" d="M328.67,79c.74,3,2.92,5.59,4.26,3.93s1.59-4,1.69-6.09a78.84,78.84,0,0,0-.07-8.28,18,18,0,0,0-1.12-5.88,10.23,10.23,0,0,0-8.49-6.06,6.94,6.94,0,0,1-2.49-.37,7.19,7.19,0,0,1-2.18-2.08c-2.53-2.84-7.72-3.54-11.51-3.2s-8.87-1.58-10.24,2.89c10.29,1.41,21.19,11.58,22.49,16.33,1.2,4.43.35,11.48-1.2,14.93a3,3,0,0,0,2.61-1.37A8.08,8.08,0,0,0,328.67,79Z"/><path class="cls-17" d="M315.59,79.67a4.69,4.69,0,0,1-1.75,1.46,10.65,10.65,0,0,0-1,.57,3.59,3.59,0,0,0-1.33,4.16c-.78-.59-1.64-1.32-1.67-2.3a2.2,2.2,0,0,1,.21-1,7.19,7.19,0,0,1,2.78-2.6A4.33,4.33,0,0,0,315,77c0-.25,1,.63,1.07.92A2.54,2.54,0,0,1,315.59,79.67Z"/><path class="cls-16" d="M325.15,69.28a16.73,16.73,0,0,0-5.09-9.34,26.37,26.37,0,0,0-4.18-3.11A20.93,20.93,0,0,0,310.2,54a.18.18,0,0,0-.15.32c1.49,1.24,3.45,2,5.1,3a25.33,25.33,0,0,1,4.56,3.41,15.58,15.58,0,0,1,3.15,4.19c.75,1.5,1,3.18,2,4.55C325,69.57,325.17,69.42,325.15,69.28Z"/><path class="cls-16" d="M325.14,76.24a.2.2,0,0,0-.38-.06c-.36,1.07-.48,2.24-.74,3.33s-.66,2.2-.89,3.32c0,.18.22.34.33.15A14.69,14.69,0,0,0,325.14,76.24Z"/><path class="cls-16" d="M330.66,75.62a.12.12,0,0,0-.2-.06,5.43,5.43,0,0,0-.92,1.73c-.09.18-.19.35-.29.53a21.73,21.73,0,0,0,.36-5.74c0-.62-1-.65-1,0a32.18,32.18,0,0,1-.54,7.26c0,.32.32.43.55.29a.18.18,0,0,0,.1-.06,8.24,8.24,0,0,0,1.45-2A2.76,2.76,0,0,0,330.66,75.62Z"/><path class="cls-10" d="M315.69,100.12s7.43-.48,12.39,3.18c4.13,3,28.63,65.73,34.67,83.15l-4.38,5.3s-31.33-68.89-35.12-69.6-5.54,9.22-5.54,9.22S299.68,128.76,315.69,100.12Z"/><path class="cls-10" d="M273.16,421.34a81.94,81.94,0,0,0,.14-8.49c-.24-2.43-2.19-14.87-2.19-14.87l5-.7s1.3,10.18,1.41,11.13,1.37,1.77,1.93,3.69C279.44,412.1,278.47,424.09,273.16,421.34Z"/><path class="cls-6" d="M273.16,421.34s2.74-.14,3.75-1.56c1.18-1.67,2.53-7.68,2.53-7.68l3.19,1.78-5.12,16.67-10.61,4.5,5.07-6.6Z"/><path class="cls-10" d="M392.5,257.19a81.55,81.55,0,0,0-6.8,5.1c-1.77,1.67-10.4,10.84-10.4,10.84l-3.61-3.51s7.24-7.27,7.92-7.94.56-2.16,1.74-3.79C381.35,257.89,391.42,251.31,392.5,257.19Z"/><path class="cls-6" d="M392.5,257.19s-1.8-2.08-3.54-2c-2,.08-7.61,2.7-7.61,2.7l-.56-3.61,16.32-6.17,10.05,5.62-8.32,0Z"/><path class="cls-10" d="M220,38.13s6.68-4,5.19-4.72-5.53,2-5.53,2c.12.16,1.63-2.29,1.75-4.75.09-1.95-.63-7.06-1.75-7.06s-.25,5.76-.25,5.76-1.29-6.51-2.86-5.76c-.42.2.55,6.28.55,6.28s-1.71-6.12-2.71-5.62,0,5.93,0,5.93-1-4.23-2-4.23.2,4.81.2,4.81-.4,2.83-.86,4.95c-.38,1.69,3.06,5.31,3.06,5.31Z"/><path class="cls-10" d="M276.24,108c-8.66-2.29-34.6-7.19-39.89-10.69C225.44,90.07,214.85,41,214.85,41L220,38.13s19.78,49.55,22.88,51.16c2,1.06,40.86,9.69,50.59,10h0s-1.5,18-8.13,24.53C285.38,123.83,279.78,108.91,276.24,108Z"/><path class="cls-11" d="M247.6,91.88c-1-.65-2-1.26-3-1.88a8,8,0,0,0-2.77-1.44c-.15,0-.33.13-.22.29A7.63,7.63,0,0,0,244,90.69c1,.68,2.08,1.38,3.14,2C247.65,93,248.1,92.23,247.6,91.88Z"/><path class="cls-10" d="M287.3,147.3s-4.17,24.06-5.83,30.93c0,0,23.95,9,35.31,8.16,0,0-2.83-23.8-4.5-37.3Z"/><path class="cls-10" d="M293.51,99.3s15.45.51,22.18.82c0,0-9.75,29.82-21.45,27C285.38,125,293.51,99.3,293.51,99.3Z"/><path class="cls-18" d="M319.42,180.36S309.78,175,300.89,173c-10.05-2.29-21-4-21-4L286,140.89s-10.25-10.58-6.22-17.06C285.42,114.75,291.39,99,291.39,99l4.22.2s-5.11,20.07,2.22,20.71,16.54-20.14,16.54-20.14l3.43.17c-3.17,18.36-4.93,27.41.77,30.52C318.57,130.42,320.28,157.93,319.42,180.36Z"/><path class="cls-13" d="M316.78,186.39s5.92,7.84,7.45,16.54-11.46,95.71-11.46,95.71a49.47,49.47,0,0,1,4.86-1.74c2.52-.69,8.44-.53,8.44-.53l48.49-31.21,3.79,5.87S326.07,316.8,308.86,323,283.6,210.2,281.47,178.23Z"/><path class="cls-13" d="M281.47,178.23S249,274.16,246.65,286s23.69,119.89,23.69,119.89l7.37-.91L267,298.94s1-9.62-3-11c0,0,29.1-43.54,41.44-65.65C319.42,197.17,281.47,178.23,281.47,178.23Z"/><path class="cls-19" d="M288.63,215s-10.77,22-9.81,29.5,9.05,6.86,9.05,6.86Z"/><path class="cls-20" d="M289.6,206.32a15.21,15.21,0,0,0-1.1-5.25c-.92-2.13-2.3-4-2.65-6.31a.15.15,0,0,0-.28,0,6,6,0,0,0,.67,3.91,19.75,19.75,0,0,1,2.35,7.25c.39,5-.07,10.06-.16,15q-.19,9.78-.36,19.57a.4.4,0,0,0-.62,0,151.4,151.4,0,0,0-15.48,22c-4.08,6.81-9,14.74-9.24,22.92,0,.14.22.17.24,0,1.65-8.58,5.64-15.84,10.17-23.22S282.91,248,288.06,241q-.1,5.17-.19,10.37a.48.48,0,0,0,.95,0q.29-15.22.6-30.45C289.51,216.09,289.88,211.16,289.6,206.32Z"/><path class="cls-20" d="M321.19,205.76c-2.79-2.42-5.47-4.23-7.24-7.62a18.15,18.15,0,0,1-1.81-5.28c-.24-1.41,0-2.88-.21-4.27a30.34,30.34,0,0,0,5.31,0c.2,0,.29-.35.05-.39-2.86-.48-5.84-.4-8.73-.64-3.29-.28-6.57-.64-9.83-1.11-6.2-.88-12.22-2.32-18.35-3.57a.37.37,0,0,0-.19.71,115.83,115.83,0,0,0,18.74,3.76q4.36.59,8.76.92c1.17.09,2.37.21,3.58.3-1,3,.5,7.28,1.74,9.78,1.57,3.14,4.43,6.84,8,7.76C321.18,206.13,321.34,205.89,321.19,205.76Z"/><path class="cls-11" d="M371.46,190.58a22.25,22.25,0,0,1,1.7-3.33,3.89,3.89,0,0,1,1-1.05,4.11,4.11,0,0,1,1.34-.42l4.93-.94a.7.7,0,0,1,0,1c-.75.74-5.09,1.47-6,2C374.06,188.09,372.19,189.92,371.46,190.58Z"/><path class="cls-11" d="M371,191.75a21.06,21.06,0,0,1,2.1-3.09,3.58,3.58,0,0,1,1.13-.92,4,4,0,0,1,1.37-.25l5-.33a.69.69,0,0,1-.11,1c-.83.64-5.24.84-6.18,1.29C373.9,189.61,371.82,191.19,371,191.75Z"/><path class="cls-10" d="M358.37,191.75c1.89,3.68,7.7,1.72,9.59,1.69,1.53,0,3-.66,4.54-.72a13,13,0,0,1,3.6.59,1.47,1.47,0,0,0,1.53-.36c.48-.6-3.33-2.78-5.62-2.56,1.19-2.4,1.77-4.33,4.44-5s3.66-1.35,3.74-2.25c-.9-.69-4.06.21-5.86,1.16s-1.41.95-3.22,1.88-6.38.79-8.36.32C358.84,186.45,356.59,188.41,358.37,191.75Z"/><path class="cls-16" d="M314.3,141.71a32.56,32.56,0,0,1-7.78-1.37c-2.17-.71-4.25-1.74-6.54-2a13.72,13.72,0,0,0-5,.52c-1.09.27-2.16.6-3.25.83a36.68,36.68,0,0,1-4.17.29.24.24,0,0,0-.12.44c1.5.78,3.29.43,4.89.08,2.72-.6,5.33-1.66,8.16-1.15,2.27.41,4.35,1.49,6.56,2.1a18.55,18.55,0,0,0,7.26.55A.14.14,0,0,0,314.3,141.71Z"/><path class="cls-16" d="M317.8,174.13A37.67,37.67,0,0,0,310,171c-3-1-6.09-1.89-9.2-2.6a76.23,76.23,0,0,0-17.77-2.37.23.23,0,0,0,0,.46c6.05.74,12,1.28,18,2.68q4.05.94,8,2.2c2.88.92,5.69,2.32,8.61,3.06A.19.19,0,0,0,317.8,174.13Z"/><path class="cls-16" d="M307.79,144.22c-1.77.93-3.11,3-4.47,4.42-1.72,1.82-3.46,3.61-5.24,5.37-3.44,3.43-7.11,6.63-10.55,10.06-.16.16.06.48.26.33a116,116,0,0,0,10.89-9.79c1.78-1.76,3.54-3.54,5.26-5.35,1.39-1.46,3.31-3,4.07-4.87C308.06,144.26,307.89,144.17,307.79,144.22Z"/><path class="cls-16" d="M305.11,155.81a43.1,43.1,0,0,0-4.18,7.33.32.32,0,0,0,.55.32,41.93,41.93,0,0,0,4.07-7.39A.27.27,0,0,0,305.11,155.81Z"/><path class="cls-16" d="M313.52,104.62c-3.68,5.57-6.33,13.9-12.75,16.68-3.81,1.64-8.31.12-8.9-4.51-.47-3.7.61-7.65,1.14-11.3,0-.17-.23-.2-.28,0a41.9,41.9,0,0,0-1.31,7.12,14.66,14.66,0,0,0,.12,5.83,6.54,6.54,0,0,0,6.95,4.37c3.5-.34,6.34-2.86,8.45-5.67a49,49,0,0,0,6.92-12.31A.19.19,0,0,0,313.52,104.62Z"/><path class="cls-21" d="M284.37,222.24c-4-2.12-8.05-4.72-12.38-6.32-.52-.18-1.19.36-.67.74a68.61,68.61,0,0,0,9.68,5.42l-9.84-.24a.76.76,0,0,0-.76,1.13c2.07,3,6.23,6.47,10.64,6.08.48,0,.71-.56.25-.8-3.16-1.65-6.06-2.54-8.38-4.89,3.69,0,7.37.07,11.06.13A.67.67,0,0,0,284.37,222.24Z"/><path class="cls-21" d="M313.45,224.79c-4.24-.94-8.61-2.28-13.05-2.67-.53-.05-1,.58-.48.79a70.14,70.14,0,0,0,10.3,2.51c-3.12.69-6.24,1.36-9.37,2-.64.13-.9.81-.48,1.16,2.59,2.12,7.25,4.21,11.35,2.86.45-.14.56-.65.08-.76-3.34-.71-6.28-.82-9-2.34,3.5-.81,7-1.62,10.51-2.4C314.1,225.8,314.13,224.94,313.45,224.79Z"/><path class="cls-20" d="M265.3,284.51c-1.38,1.31-2.14,3.4-3.31,4.93-1.29,1.69-3.08,3.06-4.23,4.83-.16.24.14.45.36.36,1.95-.86,3.53-2.91,4.8-4.56,1.16-1.5,2.75-3.38,3-5.31C266,284.44,265.5,284.32,265.3,284.51Z"/><path class="cls-20" d="M313.47,292.17a.15.15,0,0,0-.29,0c-.77,4.89-1,9.63-2.64,14.37-.26.75,1,1.1,1.2.33C313.06,302.26,314.28,297,313.47,292.17Z"/><path class="cls-20" d="M374.37,273.83,372,270.89a13,13,0,0,0-2.28-2.51.31.31,0,0,0-.45.35,12.49,12.49,0,0,0,1.86,2.72c.82,1.05,1.63,2.1,2.46,3.15C374,275.15,374.8,274.37,374.37,273.83Z"/><path class="cls-20" d="M278.85,400.07c-1.72.14-3.34.69-5.08.73-1.47,0-3.09-.53-4.47,0a.09.09,0,0,0,0,.15c1.07,1.05,3.09.93,4.51.89a11.24,11.24,0,0,0,5.25-1.09C279.31,400.56,279.2,400,278.85,400.07Z"/><path class="cls-8" d="M247.71,288.33c.86-2,8.14-.25,8.12.64s-3.82,2.62-5.3,2.52S247.38,289.11,247.71,288.33Z"/><path class="cls-8" d="M307,321.63c-1.79-1.2,1.2-8.05,2.07-7.87s1.9,4.22,1.54,5.66S307.66,322.1,307,321.63Z"/><path class="cls-20" d="M321.29,209.08c-1.31,6.78-2.06,13.71-3,20.54-1,7.11-2,14.23-3.05,21.34s-2,13.93-3,20.89c-1,6.49-2.17,13.13-.42,19.54a.44.44,0,0,0,.85-.23c-1.8-6.62-.43-13.53.53-20.21s2-13.63,2.93-20.44,2-13.63,3-20.44,2.28-13.91,2.95-20.89A.36.36,0,0,0,321.29,209.08Z"/><path class="cls-20" d="M269.35,343.32c-.72-8.36-1.32-16.73-2.13-25.08s-1.53-16.9-3.85-24.9c0-.12-.25-.11-.24,0,1,8.6,2.51,17.11,3.36,25.73s1.43,17,2.17,25.51a502.26,502.26,0,0,0,6.94,51.25c.07.38.64.21.58-.16C273.31,378.31,270.87,360.88,269.35,343.32Z"/><path class="cls-2" d="M84.58,134.54a.61.61,0,0,0-1.17.32c2.63,10.06,2.32,20.46,1.87,30.77-.46,10.52-1.44,21.09-1.47,31.63,0,.26.38.25.41,0,1.11-10.79,1.29-21.73,1.92-32.56C86.74,154.61,87,144.43,84.58,134.54Z"/><path class="cls-1" d="M214.1,4.35C214,3,213.57-1,211.17.23c-2.07,1-1.56,3.94-1.52,5.89a12.19,12.19,0,0,0,1.76,7,.77.77,0,0,0,1.3,0C214.34,10.38,214.27,7.44,214.1,4.35Z"/><path class="cls-1" d="M233.5,20.61c1-.85,4-3.56,1.63-4.79-2.06-1.06-4.11,1.05-5.66,2.22a12.15,12.15,0,0,0-4.63,5.53.76.76,0,0,0,.76,1.05C228.77,24.34,231.1,22.56,233.5,20.61Z"/><path class="cls-1" d="M184.83,11c-.93-1-3.85-3.72-4.51-1.53-.57,1.9,1.65,3.8,3,5.25A14.46,14.46,0,0,0,189,19a.57.57,0,0,0,.8-.7C189,15.41,187,13.24,184.83,11Z"/><path class="cls-1" d="M224.51,10.88a10.5,10.5,0,0,0-2.89,2.74.89.89,0,0,0,1,1.29A10.66,10.66,0,0,0,226,12.82,1.23,1.23,0,1,0,224.51,10.88Z"/><path class="cls-1" d="M199.9,7.81a10.64,10.64,0,0,0,1.48,3.69.89.89,0,0,0,1.57-.45,10.85,10.85,0,0,0-.7-3.92A1.23,1.23,0,1,0,199.9,7.81Z"/></g></g></svg>