<svg xmlns="http://www.w3.org/2000/svg" viewBox="0 0 79.65 27.29"><defs><style>.cls-1{fill:#ff4817;}</style></defs><title>Asset 15</title><g id="Layer_2" data-name="Layer 2"><g id="Layer_1-2" data-name="Layer 1"><path class="cls-1" d="M1,3.24a.13.13,0,0,0,0,.11,2.08,2.08,0,0,0,0,.29.55.55,0,0,0,0,.21A14,14,0,0,0,.72,6.62c0,4,3.2,7.31,5.54,9.83a4.77,4.77,0,0,1,1.12,3.46c0,.61-.07,1.44-.47,1.72H6.66v-.28a5.69,5.69,0,0,0-1.08-3.71V15.77l-.83-.08H3.82C1.91,13.53,0,11,0,8.06A12.79,12.79,0,0,1,.18,5.44c0-.08.07-.54.07-.62A5,5,0,0,1,1,3.24ZM7.85,26.1,8.17,26a3.61,3.61,0,0,1-1.87.8H3.92a6.23,6.23,0,0,1-1.65-.51C.54,25.59.36,23.79.18,22.07c0-.26-.07-1.26-.07-1.45V17.93l.07-.08H.86l0,1.34c0,.07,0,.39,0,.68a7.08,7.08,0,0,1,0,.83c.18,1.94.4,4,2.56,4.86a1.6,1.6,0,0,1,.46.18,4.41,4.41,0,0,0,1.44.36Zm-2.49-.72a6.23,6.23,0,0,1-1.65-.51C2,24.15,1.8,22.35,1.62,20.62c0-.25-.07-1.25-.07-1.43v-2.7l.07-.08H4.75l.11.08v3.6c0,.18.07,1,.07,1.18l.43.62a2,2,0,0,0,1.44.46H7c1-.28,1.12-1.54,1.12-2.44a5.44,5.44,0,0,0-1.3-4C4.54,13.5,1.44,10.33,1.44,6.62A12.84,12.84,0,0,1,1.62,4c0-.08.07-.54.07-.62A4.74,4.74,0,0,1,4.07.4a5.33,5.33,0,0,1,2-.36A5.45,5.45,0,0,1,8.24.32a1.71,1.71,0,0,1,.62.36c.21.18.72.72.79.8,1,1.18.9,3.34.9,4.78V7.42c0,.07-.07.28-.07.36a.38.38,0,0,1-.11.21H7.56c-.11,0-.18-.29-.18-.29,0-1.08,0-2.23-.07-3.31C7.13,3.64,7,3.31,6.23,3.31c-1.51,0-1.37,1.23-1.37,2.48A4.68,4.68,0,0,0,6.08,9.25c1.84,1.94,4.11,4.43,5,7.16.11.26.4,1.08.4,1.08v3.78a1.56,1.56,0,0,0-.11.36c-.54,2-1.69,3.49-3.67,3.75Zm.22-20.3c0-.58.11-1,.65-1,.21,0,.25.07.36.43.07,1.08.07,2.2.07,3.28,0,0,.25,1,.9,1H9.11v.14c0,.08-.07.29-.07.36a.38.38,0,0,1-.11.22H7.24l-.62-.68v0a3,3,0,0,1-.68-1c0-.65,0-1.3-.07-1.95A4.22,4.22,0,0,0,5.58,5.08Z"/><path class="cls-1" d="M14,25.77l.58.58h1.94v.54l-.21.18H13.43l-.18-.18-.11-1.08V21.56c0-6.59.11-12.85.11-19.44,0-.1.18-.39.29-.39l.43,0c0,2.92,0,5.8-.07,8.64,0,3.21,0,6.45,0,9.72v4.32Zm.58-1.4V20.12c0-6.59.11-12.85.11-19.44,0-.1.18-.39.29-.39L17.86.4c.18,0,.28.18.39.36v9c0,3.17-.21,6.37-.21,9.58,0,1.83-.08,6.08-.08,6.08l-.21.18H14.87l-.18-.18Z"/><path class="cls-1" d="M29.81,26H30v.32c0,.22,0,.61-.29.61l-1.33,0c-.21,0-.43-.79-.83-.79l-.1,0-.29.22a4.79,4.79,0,0,1-2.7.72,3.65,3.65,0,0,1-3.85-3.1,5.88,5.88,0,0,1-.4-2.16l.22-12.89A11.88,11.88,0,0,1,21,4.54a15.36,15.36,0,0,0-.15,2.66v13a7.48,7.48,0,0,0,.36,2.09l.11.32A4.38,4.38,0,0,0,25.92,26a5.87,5.87,0,0,0,2.95-.65s0,.07.07.07C29.16,25.7,28.94,26,29.81,26Zm-1.23-1.3a5,5,0,0,1-2.66.58A3.56,3.56,0,0,1,22,22.42a7,7,0,0,1-.44-2.19V7.2c0-2.81.22-5.36,2.88-6.84A3.9,3.9,0,0,1,26.21,0c2.16,0,3.88.29,4.64,2.56a8.28,8.28,0,0,1,.32,1.22V9.14h-2.7l-.21-.21V4.39a4.26,4.26,0,0,1-.4-.61,1.16,1.16,0,0,0-.93-.4c-.72,0-1.33.11-1.66.8a1.13,1.13,0,0,1-.11.32V21.38c0,.51.76.83,1.16.83a1.43,1.43,0,0,0,1.54-1.33V16.41a2.59,2.59,0,0,0-.21-.79l-.11-.11h-1l-.18-.21V13.25a.32.32,0,0,1,.28-.33h2.81c.22,0,1.66-.11,1.84-.11h.1l.22.22v3.28c0,1.26-.11,7.12-.11,8.38,0,.18,0,.58-.29.58H29.81c-.18,0-.4-.79-.83-.79h-.11ZM25.88,4.86V4.72A3.56,3.56,0,0,0,26,4.36c.18-.29.51-.26.94-.26.14,0,.25,0,.32.08a1.61,1.61,0,0,0,.36.43l-.07,4.6.65.65h1.73V11l-2.56,0-.22-.21.07-4.83s-.28-.39-.39-.57A1.4,1.4,0,0,0,25.88,4.86Zm.18,11.37h1c0,.11.07.18.07.22v4.43c0,.32-.32.57-.72.61L26.53,18a2.48,2.48,0,0,0-.21-.82l-.11-.11h-.33V16Z"/><path class="cls-1" d="M34.16,25.05l.22.51.43.43h2a.84.84,0,0,1-.68.72H33.66l-.11-.11-.11-.29V24.8c.22-7.45.22-15,.33-22.5,0-.21.07-.79.39-.79h.33c0,2.31-.07,4.61-.07,6.88,0,5-.11,10-.26,15Zm.72-1.69c.22-7.45.22-15,.33-22.5,0-.21.07-.79.39-.79,1.08,0,1.84.07,2.92.07a17.08,17.08,0,0,1,.68,2.2l.9,3.71c.69,2.77,1.48,5.65,2.27,8.38a4.48,4.48,0,0,1,.29,1.16c0,.1.11.5.11.61s.11.39.28.39.22,0,.22-.1V13.82c0-.39.11-3.92.11-4.32v-9l.18-.22h2.73c.29,0,.4.22.51.4v.9c0,2.16-.11,4.21-.11,6.37-.11,5.22-.29,17.35-.29,17.35l-.18.18H42.08a2.49,2.49,0,0,1-.29-.29,1.12,1.12,0,0,1-.21-.5c-.5-2.09-1-4.11-1.58-6.09l-.08-.21c-.21-.4-1.11-4.65-1.4-4.65h-.11l-.07.11c-.11,3.57-.11,7.2-.11,10.73a.85.85,0,0,1-.68.72H35.1L35,25.16l-.11-.29Zm4-2.09c0-1.18,0-2.37,0-3.6a5.12,5.12,0,0,0,.32,1c.54,1.77,1,3.64,1.44,5.47l0-.07a3.52,3.52,0,0,0,.18.61,2.06,2.06,0,0,0,.32.87,5.9,5.9,0,0,0,.65.54l3.13,0v.58l-.18.18H40.64a2,2,0,0,1-.28-.29,1,1,0,0,1-.22-.5C39.74,24.48,39.35,22.86,38.92,21.27Zm3.2-19.58h.54V9.5c0,.22,0,1.15-.07,2.13a7,7,0,0,0,0,.9c-.22-.72-.43-1.44-.61-2.16V1.91Z"/><path class="cls-1" d="M55.62,1.55h.58c0,.75,0,1.44,0,1.8v7.48a3.37,3.37,0,0,0,.07.51c0,.18-.07.68-.07.68v.51c0,.54.07.93.07,1.18s-.07,1.34-.07,1.59v3.92c0,6.8,2.45,7.34,5.94,7.34a5.3,5.3,0,0,0,1.37-.14,4.44,4.44,0,0,1-2.81.87c-3.31,0-5.22-.47-5.22-6.63V16.74c0-.11.07-1.41.07-1.48v-.11c0-.39-.07-.79-.07-1.18v-.51c0-.11.07-.61.07-.68s-.07-.4-.07-.51V4.79c0-.87.07-3.17.07-3.17Zm11,20.84c-.68,2-1.94,3.45-4.53,3.45s-4.29-.28-5-3.23c0-.51-.18-2.88-.18-3.39V15.3c0-.11.07-1.41.07-1.48v-.11c0-.39-.07-.79-.07-1.18V12c0-.11.07-.61.07-.68s-.07-.4-.07-.51V3.35c0-.87.07-3.17.07-3.17l.11-.07h1.37c.1.18.21.29.39.29s.29-.11.4-.29l.9-.11.29.11V21.24a4.72,4.72,0,0,0,.28,1c.22.29.51.68.9.68a1.94,1.94,0,0,0,1.59-.57,1.39,1.39,0,0,0,.21-.4L63.57.4l.11-.11.18-.11h1.19a.56.56,0,0,1,.5-.18c.58,0,.36.29.69.68a5.5,5.5,0,0,0,.57.69l.11.21c0,1.77.11,3.32.11,5.12,0,.39-.22.79-.22,1.18a8.23,8.23,0,0,0,.11,1.66V17c0,.58-.11,3.57-.11,4.18,0,.11-.1.4-.1.5l-.08.29ZM62.42,1.62h.43c0,6.62-.14,13.53-.18,20.12h0s0,0,0,.07l0,0a1,1,0,0,1-.69.32l.18-20.62.11.18Z"/><path class="cls-1" d="M70.67,26.21h1.47v.1s-.18.07-.18.18-.21.29-.39.29a9.73,9.73,0,0,1-1.8.11h-.65c-.29-.22-.22-.76-.22-1.05s-.07-.89-.07-1V11.81c0-.29-.11-1.88-.11-2.16V2.05c.11-.11.29-.5.4-.5h.43V8.24c0,.33.11,1.91.11,2.16V23.47c0,.18.07.83.07,1V25a1.18,1.18,0,0,0,.5,1.11Zm-.22-1.77c0-.22-.07-.9-.07-1V10.4c0-.28-.11-1.87-.11-2.16V.32a.72.72,0,0,1,.4-.18h5A4.36,4.36,0,0,1,77.58.5a2.16,2.16,0,0,1,.68.58,6,6,0,0,1,1.37,4.18,26.94,26.94,0,0,1,0,3c0,.08-.07,1.12-.07,1.23s-.11.75-.11.86a18.4,18.4,0,0,1-.57,2.09,2.62,2.62,0,0,0-.22.47.31.31,0,0,1-.07.18,5.07,5.07,0,0,1-1.33,1.15,4.22,4.22,0,0,1-1.51.29c-.29,0-1.66.1-1.91.1l-.11.08V24.91s-.18.07-.18.18-.22.29-.4.29a10.57,10.57,0,0,1-1.8.1h-.64C70.38,25.27,70.45,24.73,70.45,24.44ZM73.58,11.3c0,.36.4.47.69.47,1.08,0,1.8-.39,2-1.44.07-.79.07-1.91.07-2.66,0-1.15,0-1.91-.07-3.17-.11-.94-1-1.3-1.91-1.3-.21,0-.57-.1-.68.29,0,1.12-.11,6.55-.11,7.7Zm.83-6.12V3.92c.58,0,1.08.22,1.15.62.07,1.25.07,2,.07,3.13,0,.72,0,1.8-.07,2.59v-.07a1,1,0,0,1-.79.82c0-.68,0-1.4,0-1.94,0-1.15,0-1.91-.08-3.17A1.2,1.2,0,0,0,74.41,5.18Zm0,10.73v-.58a10.55,10.55,0,0,0,1.91-.1,2,2,0,0,1-.65.39A4.24,4.24,0,0,1,74.41,15.91Z"/></g></g></svg>