<svg xmlns="http://www.w3.org/2000/svg" viewBox="0 0 126.05 27.5"><defs><style>.cls-1{fill:#9b3926;}</style></defs><title>Asset 6</title><g id="Layer_2" data-name="Layer 2"><g id="Layer_1-2" data-name="Layer 1"><path class="cls-1" d="M1.15,26.53c.83,0,2.31.07,3.13.07,1.48,0,3-.07,4.29-.15,0,.44-.22.62-.69.65a54.75,54.75,0,0,1-7.52.18l-.11-.9c0-.18-.18-5.22-.25-7.16,0-.36.18-6.48.14-8.71C.14,9.14,0,3.38,0,2.12a.33.33,0,0,1,.36-.29l.36,0c0,.83,0,1.91.07,2.84,0,1.8.07,3.67.07,4.36,0,1.69-.07,5.65-.1,7.59,0,.62,0,1.08,0,1.16C.79,19.76,1,24.83,1,25Zm.54-1.59c0-.18-.18-5.22-.25-7.16,0-.36.18-6.48.14-8.71,0-1.37-.14-7.13-.14-8.39A.33.33,0,0,1,1.8.39L4.5.47l.29.28v.87c0,.39-.07,2.34-.07,2.7L5,22.17a.39.39,0,0,0,.29.29l4.14-.15c.1,0,.32.29.32.4L10,24.83c.07.58-.15.8-.69.83a54.75,54.75,0,0,1-7.52.18Z"/><path class="cls-1" d="M12.13,26l.58.58h1.94v.54l-.21.18H11.56l-.18-.18-.11-1.08,0-4.25L11.38,11V2.3c0-.11.18-.39.28-.39h.44V9.54L12,20.37l0,4.32Zm.58-1.4,0-4.25.07-10.83V.86c0-.11.19-.39.29-.39L16,.29c.18,0,.29.18.4.36V2.08l-.11,1.19,0,9.72-.1,3.49c0,1.05-.08,2.09-.08,3.14,0,1.83,0,6.08,0,6.08l-.22.18H13l-.19-.18Z"/><path class="cls-1" d="M24.48,26.49c0,.25-.15.72-.4.72H23c-.8,0-2.16.22-2.63-.25-.29-.29-.69-6.37-.69-6.37L18.5,10.76c-.28-2-.46-4-.65-6a17.49,17.49,0,0,1-.17-2.37V2l.07-.11h.65a13.3,13.3,0,0,0,.18,1.51v0c.17,2,.36,4.1.64,6.08v0l1.16,9.83s.43,6.33.89,6.8,1.73.54,2.56.51c.22,0,.4,0,.58,0Zm-.07-.72c-.8,0-2.16.22-2.63-.25-.29-.29-.69-6.37-.69-6.37L19.94,9.32c-.29-2-.46-4-.65-6.05A17.49,17.49,0,0,1,19.12.9V.54l.07-.11h2.59c.57,0,.57.68.57,1,0,.11.08.87.08,1,.21,1.18.57,5.07.68,5.47s.54,4.14.54,4.42c0,.08.07,1.23.07,1.3s.11.61.11.68.07.65.36.65h.11a.86.86,0,0,0,.11-.25c0-.11.1-1.08.1-1.15.29-2.09.83-5.37,1.08-7.45,0-.29.44-4,.62-4.93a2.86,2.86,0,0,1,.07-.36s.11-.29.18-.29h2.37c.29,0,.29.29.29.47,0,0-.11.68-.11.86-.54,4.25-1,8.49-1.58,12.74-.4,2.56-.86,5-1.15,7.6,0,.18-.18,1.37-.18,1.58a4.82,4.82,0,0,1-.11.47c0,.11-.07.57-.07.68s-.11.83-.4.83ZM25,2h.29c-.15,1.11-.33,2.73-.4,3.56a2.63,2.63,0,0,0,0,.5c-.14,1.26-.39,2.92-.64,4.5l0,.26L24.08,10a8.57,8.57,0,0,1-.14-.94l.21-1.54c0-.29.44-4,.62-4.94a3,3,0,0,1,.07-.35S25,2,25,2Z"/><path class="cls-1" d="M31.39,26l.58.58h1.94v.54l-.22.18H30.81l-.17-.18-.11-1.08,0-4.25L30.64,11V2.3c0-.11.17-.39.28-.39h.43V9.54l-.07,10.83,0,4.32Zm.58-1.4,0-4.25.07-10.83V.86c0-.11.18-.39.29-.39L35.24.29c.18,0,.29.18.4.36V2.08l-.11,1.19,0,9.72-.1,3.49c0,1.05-.08,2.09-.08,3.14,0,1.83,0,6.08,0,6.08l-.22.18H32.25l-.18-.18Z"/><path class="cls-1" d="M38.27,25.81a6.24,6.24,0,0,0,2.62.64.88.88,0,0,1-.68.69,4.42,4.42,0,0,1-2.66-.33V26c0-.11,0-.72,0-.72.07-7.45,0-15-.07-22.53,0-.22.07-.79.39-.79h.33c0,1.9,0,3.81,0,5.76,0,3.81,0,7.63,0,11.41V23.9s0,.57,0,.68ZM39,24.58c0-.11,0-.72,0-.72.07-7.45,0-15-.07-22.53,0-.22.07-.79.39-.79,1.88-.07,3.6-.47,3.64,2.19.36,1.3.68,2.49,1,3.75.76,2.73,1.69,5.29,2.52,8.06a4.53,4.53,0,0,1,.33,1.15c0,.11.1.51.1.61s.11.4.29.36.22,0,.22-.1c0-.4,0-2.27,0-2.67s-.11-3.67-.11-4.07c0-1.36-.1-7.66-.14-9l.18-.22L50,.54c.29,0,.4.21.5.39V1.8c0,2.16,0,4.24,0,6.4,0,5.22-.25,17.35-.25,17.35l-.18.18-3.85.08a1.72,1.72,0,0,1-.32-.29,1,1,0,0,1-.22-.51c-.25-2.23-2.81-12.27-3.27-12.7h-.08l-.1.11c0,3.56.07,9,.1,12.56a.84.84,0,0,1-.68.72A4.41,4.41,0,0,1,39,25.37ZM43.16,21c0-1.47,0-3,0-4.5.79,3.06,1.58,7.06,1.83,8.61a2,2,0,0,0,.33.82,5.82,5.82,0,0,0,.72.54h2.8V27l-.18.18-3.85.08a1.72,1.72,0,0,1-.32-.29,1,1,0,0,1-.22-.51A50.47,50.47,0,0,0,43.16,21ZM45.79,2h.58c0,2.41.1,6.73.1,7.81,0,.26,0,1.62,0,2.78L46,10.87l-.22-.61-.14-8Z"/><path class="cls-1" d="M53.42,10.29h1.26l-.11.29-.68.4-1.44,0-.4-.39L54,6.26,54.07,6H52.85l-.26-.22-.1-1.29V2.34l.1-.4h.62V3.13l.14,1.55.65.61h.61l-1.76,4Zm.25-1.11,1.91-4.36-.07-.25H54.29L54,4.35l-.1-1.29V.9L54,.5h3.42l.36.22c0,2.09,0,4.17,0,4.17L56,9.14l-.68.4-1.44,0Z"/><path class="cls-1" d="M67.1,25.45a1,1,0,0,0,1.12,1h6.33v.72H66.78c-.25,0-.36-.11-.4-.36l-.07-.54c0-.18-.11-5.22-.11-7.16v-17c0-.18.22-.29.4-.29l.32,0V17.64c0,1.36.07,4.67.11,6.33v.83Zm.65-.65c0-.18-.11-5.22-.11-7.16V.61c0-.18.22-.29.4-.29L71,.43l.33.29v.86c0,.4-.11,2.34-.11,2.7V22.1a.39.39,0,0,0,.29.29H75.7c.11,0,.29.28.29.39V25.7H68.22c-.26,0-.36-.11-.4-.36Z"/><path class="cls-1" d="M83.45,26.74a5,5,0,0,0,1.11-.11,4,4,0,0,1-2.55.83h-.8a2.35,2.35,0,0,1-1.65-.61,5.72,5.72,0,0,1-1.91-2.92A35.79,35.79,0,0,1,77,18.28V18c0-1.22.11-6.91.11-8.09a11.78,11.78,0,0,1,1.33-6,15.11,15.11,0,0,0-.61,4.58c0,.57,0,2.26,0,4s-.07,3.49-.07,4.11v.32a40.5,40.5,0,0,0,.61,5.79A6.38,6.38,0,0,0,80.53,26l-.07,0a3.13,3.13,0,0,0,2.19.83Zm-.8-.72A2.35,2.35,0,0,1,81,25.41a5.72,5.72,0,0,1-1.91-2.92,35.79,35.79,0,0,1-.61-5.65v-.28c0-1.23.11-6.92.11-8.1,0-3,.64-8.1,5.14-8.1a4.31,4.31,0,0,1,4.68,3.85,3,3,0,0,1,.18.9V18.25l-.18,2.84c-.21.4-.21.9-.43,1.3C87,24.44,86,26,83.45,26Zm1-3.24c.94,0,1.23-1,1.23-1.69,0-.43.11-2.34.11-2.73,0-1.12.11-6.48.11-7.67V4.89A1.3,1.3,0,0,0,83.84,3.6h-.11a3.08,3.08,0,0,0-.68.21c-.11,0-.51.47-.61.58a1.13,1.13,0,0,0-.11.32c0,.62-.11,3.13-.11,3.75V21.7A1.41,1.41,0,0,0,83.62,22.78ZM83.05,5.25V4.78l.07-.07c.07-.07.07-.18,0-.18a5.05,5.05,0,0,1,.57-.21.57.57,0,0,1,.61.57v5.8c0,.57,0,2.41-.07,3.92s0,3.21,0,3.75c0,.17,0,.72,0,1.29s-.07,1.22-.07,1.44c0,.4-.11,1-.51,1h-.21c0-.75.11-1.94.11-2.27,0-1.11.1-6.47.1-7.66V6.33A1.37,1.37,0,0,0,83.05,5.25Z"/><path class="cls-1" d="M98.1,26.78l.28-.11v0a4,4,0,0,1-1.83.79H94a4.85,4.85,0,0,1-1-.29c-2.26-.9-2.66-3.24-2.77-5.4v-11c0-.51.11-2.78.11-3.17A8.21,8.21,0,0,1,91.4,3.45,13.6,13.6,0,0,0,91,6.19c0,.18,0,.72,0,1.37s-.07,1.54-.07,1.8V20.41c.11,2.37.54,5,3.17,6a6.55,6.55,0,0,0,1.33.36Zm-2.67-.72a4.85,4.85,0,0,1-1-.29c-2.26-.9-2.66-3.24-2.77-5.4v-11c0-.51.11-2.78.11-3.17.11-2.05.5-4.14,2.27-5.4A4.91,4.91,0,0,1,97.77.07a1.11,1.11,0,0,0,.33.11,4.93,4.93,0,0,1,1.83,1.4C101,2.77,101,4.71,101,6.26a6,6,0,0,1-.11,2l-.07.11H98l-.11-.11V5.87c0-.29-.11-1.45-.11-1.66s-.29-.58-.57-.76a1.75,1.75,0,0,0-.69-.1c-1,0-1.19.86-1.19,1.76,0,4.93-.1,9.83-.1,14.76v.61c0,.18.1,1.15.1,1.37A1.59,1.59,0,0,0,96.69,23a3.12,3.12,0,0,0,1.3-.47l.11-.11a3.93,3.93,0,0,1,.36-.57V16.7c0-.07.21-.07.28-.07H99c.4,0,1.94.07,2.34.07.11,0,.32.79.4,1v1.37c0,2.26-.18,4.53-1.88,6.19a4,4,0,0,1-1.83.79ZM96,5.11c0-.54.08-1,.47-1a1.27,1.27,0,0,1,.33,0c.28.29.18.29.25.9,0,.33.07.76.07.87V8.53l.54.54h1.87a1.54,1.54,0,0,1-.11.61l-.07.11H96.55l-.11-.11V7.3c0-.28-.11-1.43-.11-1.65A.77.77,0,0,0,96,5.11Zm1.48,13h.22v3.56l-.22.36-.14,0h0l-.39.18V18.14c0-.07.21-.07.28-.07Z"/><path class="cls-1" d="M104.86,27.21c-.28,0-1.94-.11-2.23-.11s-.11-.36-.11-.47.22-1,.22-1.08c.5-3.81.83-7.7,1.44-11.51.18-1.84.58-3.6.76-5.48.07-.75.39-1.54.5-2.3A23.23,23.23,0,0,1,106.2,2h.43c-.22,1.08-.43,2.3-.47,2.84l-.22.86a10.07,10.07,0,0,0-.28,1.37c-.11.94-.26,1.84-.4,2.74s-.29,1.83-.36,2.7c-.36,2.27-.65,4.82-.9,7.09L103.46,24s-.07.29-.11.51l0-.08a3.92,3.92,0,0,0-.15.72c0,.54-.28,1.19.83,1.19.15,0,.58,0,1.05.07.14,0,.36,0,.54,0-.11.43-.26.72-.51.72Zm1.44-1.44c-.28,0-1.94-.11-2.23-.11s-.11-.36-.11-.47a10.89,10.89,0,0,1,.22-1.08l1.44-11.51c.18-1.84.58-3.6.76-5.48.07-.75.39-1.54.5-2.3a23.23,23.23,0,0,1,.76-4.28c1.18,0,2.48-.07,3.78,0a39.76,39.76,0,0,1,.9,5.4c.07,1,.32,2.05.46,3l.58,4.75c0,.11.11.5.11.57.28,3.24,1.11,8.43,1.19,8.93.07.86.28,1.66.28,2.52l-.11.11H111.7c-.36,0-.36-.65-.36-1a14.47,14.47,0,0,0-.5-3.39h-3.1c-.72,0-.18,4.25-1.15,4.25ZM107.74,23l.08-.72h2.62c.08.47.18,2.09.18,2.67s0,1.69,1.08,1.69h1.77c0,.18,0,.39,0,.61l-.1.11h-3.14c-.36,0-.36-.65-.36-1a14.47,14.47,0,0,0-.5-3.39Zm2.63-4.46.07-.11c.18-.47-.28-.21-.28-3.35,0,0-.54-6-.87-6a.34.34,0,0,0-.29.29,54,54,0,0,1-.86,6.73,13.16,13.16,0,0,0-.29,2,.31.31,0,0,0,.18.4Zm-1.51-2.27.32-2.19.08-.47a2.54,2.54,0,0,0,.07.57,4.55,4.55,0,0,0,.11.9,12.7,12.7,0,0,0,.18,2.74h-.87a8.74,8.74,0,0,1,0-.94Z"/><path class="cls-1" d="M117.18,26.53c.82,0,2.3.07,3.13.07,1.47,0,3-.07,4.28-.15,0,.44-.21.62-.68.65a54.79,54.79,0,0,1-7.52.18l-.11-.9c0-.18-.18-5.22-.25-7.16,0-.36.18-6.48.14-8.71,0-1.37-.14-7.13-.14-8.39a.33.33,0,0,1,.36-.29l.36,0c0,.83,0,1.91.07,2.84,0,1.8.07,3.67.07,4.36,0,1.69-.07,5.65-.11,7.59,0,.62,0,1.08,0,1.16.07,1.94.25,7,.25,7.19Zm.54-1.59c0-.18-.18-5.22-.26-7.16,0-.36.19-6.48.15-8.71,0-1.37-.15-7.13-.15-8.39,0-.18.19-.29.37-.29l2.69.08.29.28v.87c0,.39-.07,2.34-.07,2.7l.32,17.85a.41.41,0,0,0,.29.29l4.14-.15c.11,0,.33.29.33.4l.21,2.12c.07.58-.14.8-.68.83a54.79,54.79,0,0,1-7.52.18Z"/></g></g></svg>